<svg fill="none" height="875" viewBox="0 0 317 875" width="317" xmlns="http://www.w3.org/2000/svg"><g stroke="#fa7d39" stroke-width="5"><path d="m176.5 842.941-29 29" stroke-linecap="round"/><path d="m147.5 842.941c5.976 7.031 21.823 22.263 29 29" stroke-linecap="round"/><path d="m160.838 857.662c27.029-134.752-81.7322-120.752-130.6431-175.752-33.24696-37.386 135.3061-101.84 138.3061-173.34s-40.001-175.5-117.0003-137-23.1859 130 46.4999 137c69.6854 7 186.0004-114 201.0004-240.5s-138.163-150.287-138.163-229.4079" stroke-dasharray="10 10"/><circle cx="157.126" cy="18.9102" r="16"/><g fill="#000"><circle cx="302.25" cy="246.512" r="12"/><circle cx="242.25" cy="142.512" r="12"/><circle cx="15.25" cy="435.512" r="12"/><circle cx="243.25" cy="405.512" r="12"/><circle cx="45.25" cy="695.512" r="12"/></g></g></svg>