<svg width="1458" height="44" viewBox="0 0 1458 44" fill="none" xmlns="http://www.w3.org/2000/svg">
<path opacity="0.5" d="M1457 14V44H1V14L14 1L27 14L40 1L53 14L66 1L79 14L92 1L105 14L118 1L131 14L144 1L157 14L170 1L183 14L196 1L209 14L222 1L235 14L248 1L261 14L274 1L287 14L300 1L313 14L326 1L339 14L352 1L365 14L378 1L391 14L404 1L417 14L430 1L443 14L456 1L469 14L482 1L495 14L508 1L521 14L534 1L547 14L560 1L573 14L586 1L599 14L612 1L625 14L638 1L651 14L664 1L677 14L690 1L703 14L716 1L729 14L742 1L755 14L768 1L781 14L794 1L807 14L820 1L833 14L846 1L859 14L872 1L885 14L898 1L911 14L924 1L937 14L950 1L963 14L976 1L989 14L1002 1L1015 14L1028 1L1041 14L1054 1L1067 14L1080 1L1093 14L1106 1L1119 14L1132 1L1145 14L1158 1L1171 14L1184 1L1197 14L1210 1L1223 14L1236 1L1249 14L1262 1L1275 14L1288 1L1301 14L1314 1L1327 14L1340 1L1353 14L1366 1L1379 14L1392 1L1405 14L1418 1L1431 14L1444 1L1457 14Z" fill="#FFD230"/>
<path opacity="0.5" d="M1457 14L1444 1L1431 14L1418 1L1405 14L1392 1L1379 14L1366 1L1353 14L1340 1L1327 14L1314 1L1301 14L1288 1L1275 14L1262 1L1249 14L1236 1L1223 14L1210 1L1197 14L1184 1L1171 14L1158 1L1145 14L1132 1L1119 14L1106 1L1093 14L1080 1L1067 14L1054 1L1041 14L1028 1L1015 14L1002 1L989 14L976 1L963 14L950 1L937 14L924 1L911 14L898 1L885 14L872 1L859 14L846 1L833 14L820 1L807 14L794 1L781 14L768 1L755 14L742 1L729 14L716 1L703 14L690 1L677 14L664 1L651 14L638 1L625 14L612 1L599 14L586 1L573 14L560 1L547 14L534 1L521 14L508 1L495 14L482 1L469 14L456 1L443 14L430 1L417 14L404 1L391 14L378 1L365 14L352 1L339 14L326 1L313 14L300 1L287 14L274 1L261 14L248 1L235 14L222 1L209 14L196 1L183 14L170 1L157 14L144 1L131 14L118 1L105 14L92 1L79 14L66 1L53 14L40 1L27 14L14 1L1 14" stroke="black" stroke-linecap="square" stroke-dasharray="8 12"/>
</svg>
