<svg width="40" height="40" viewBox="0 0 40 40" fill="none" xmlns="http://www.w3.org/2000/svg">
<path d="M3.6663 25.4116H2.25903V21.7345H7.54245V35.8014H3.6663V25.4116Z" fill="#5244F2"/>
<path d="M22.3544 25.4116H13.3677V32.0996H22.3544V25.4116ZM9.51621 35.8014V21.7345H26.2306V35.8014H9.51621Z" fill="#5244F2"/>
<path d="M3.6663 7.74866H2.25903V4.07152H7.54245V18.1385H3.6663V7.74866Z" fill="#5244F2"/>
<path d="M22.3544 7.74866H13.3677V14.4366H22.3544V7.74866ZM9.51621 18.1385V4.07152H26.2306V18.1385H9.51621Z" fill="#5244F2"/>
<path d="M30.4451 11.3543H27.6305V4H38.1974V26.9306H30.4451V11.3543Z" fill="#5244F2"/>
<path d="M31.7078 28.3108H30.9107L30.5439 27.7855H33.1398V28.3108H32.2615V29.795H31.7078V28.3108Z" fill="#5244F2"/>
<path d="M33.4282 29.2627H35.5444V29.795H33.4282V29.2627ZM33.4282 28.5223H35.0083V29.0511H33.4282V28.5223ZM33.4282 27.7855H35.5479V28.3108H33.4282V27.7855Z" fill="#5244F2"/>
<path d="M35.8288 27.7855H36.252L37.4759 28.8784V27.7855H38.0296V29.795H37.617L36.379 28.7127V29.795H35.8288V27.7855Z" fill="#5244F2"/>
<path d="M31.7078 31.378H30.9107L30.5439 30.8527H33.1398V31.378H32.2615V32.8623H31.7078V31.378Z" fill="#5244F2"/>
<path d="M33.4282 32.3299H35.5444V32.8623H33.4282V32.3299ZM33.4282 31.5895H35.0083V32.1184H33.4282V31.5895ZM33.4282 30.8527H35.5479V31.378H33.4282V30.8527Z" fill="#5244F2"/>
<path d="M35.8288 30.8527H36.252L37.4759 31.9456V30.8527H38.0296V32.8623H37.617L36.379 31.7799V32.8623H35.8288V30.8527Z" fill="#5244F2"/>
<path d="M32.5825 33.9904C32.7306 33.9904 32.8353 34.028 32.8964 34.1033C32.9599 34.1785 32.9916 34.276 32.9916 34.3959V35.5628C32.9916 35.6968 32.9516 35.8037 32.8717 35.8837C32.7918 35.9612 32.6812 36 32.5402 36H31.0518C30.9107 36 30.8002 35.9612 30.7202 35.8837C30.6403 35.8037 30.6003 35.6968 30.6003 35.5628V34.8013H31.1541V35.4747H32.4379V34.5157H30.6003V34.3959C30.6003 34.276 30.6309 34.1785 30.692 34.1033C30.7555 34.028 30.8613 33.9904 31.0095 33.9904H32.5825Z" fill="#5244F2"/>
<path d="M33.1168 33.9904H33.9068L35.1307 35.0834V33.9904H35.6844V36H35.2718L34.0338 34.9177V36H33.4836V34.5157L33.1168 33.9904Z" fill="#5244F2"/>
<path d="M38.4036 33.9904V34.5157H36.2804L35.9136 33.9904H38.4036ZM36.2804 35.4676H38.4001V36H36.2804V35.4676ZM36.2804 34.7273H37.864V35.2561H36.2804V34.7273Z" fill="#5244F2"/>
</svg>
