<svg width="40" height="40" viewBox="0 0 40 40" fill="none" xmlns="http://www.w3.org/2000/svg">
<ellipse opacity="0.1" cx="20.5418" cy="37.7783" rx="6.44276" ry="1.18943" fill="black"/>
<path d="M26.7524 31.9878C30.0808 31.9878 31.5958 24.6178 31.5958 21.8233C31.5958 19.6452 30.0929 18.3252 28.117 18.3252C26.1535 18.3252 24.5595 19.1695 24.5397 20.2151C24.5396 22.9745 24.054 31.9878 26.7524 31.9878Z" fill="white" stroke="black" stroke-width="0.991193"/>
<path d="M14.5954 31.9878C11.267 31.9878 9.75204 24.6178 9.75204 21.8233C9.75204 19.6452 11.255 18.3252 13.2308 18.3252C15.1943 18.3252 16.7884 19.1695 16.8082 20.2151C16.8082 22.9745 17.2939 31.9878 14.5954 31.9878Z" fill="white" stroke="black" stroke-width="0.991193"/>
<mask id="path-4-inside-1_401_13193" fill="white">
<path d="M28.7495 20.3944C29.2114 20.1207 29.8116 20.4433 29.7577 20.9775C29.3581 24.9319 27.2099 28.2438 24.2612 29.7825C22.778 30.5565 22.101 32.4056 20.7583 33.4036C20.6886 33.4553 20.6161 33.4837 20.5415 33.4837C20.4668 33.4836 20.3944 33.4554 20.3247 33.4036C18.983 32.4043 18.3048 30.5565 16.8217 29.7825C13.884 28.2492 11.7412 24.9558 11.3304 21.0207C11.2747 20.4872 11.8729 20.1625 12.3357 20.4337C14.7344 21.8395 17.5271 22.6457 20.5083 22.6458C23.5176 22.6458 26.3355 21.8248 28.7495 20.3944Z"/>
</mask>
<path d="M28.7495 20.3944C29.2114 20.1207 29.8116 20.4433 29.7577 20.9775C29.3581 24.9319 27.2099 28.2438 24.2612 29.7825C22.778 30.5565 22.101 32.4056 20.7583 33.4036C20.6886 33.4553 20.6161 33.4837 20.5415 33.4837C20.4668 33.4836 20.3944 33.4554 20.3247 33.4036C18.983 32.4043 18.3048 30.5565 16.8217 29.7825C13.884 28.2492 11.7412 24.9558 11.3304 21.0207C11.2747 20.4872 11.8729 20.1625 12.3357 20.4337C14.7344 21.8395 17.5271 22.6457 20.5083 22.6458C23.5176 22.6458 26.3355 21.8248 28.7495 20.3944Z" fill="#FFDF6F"/>
<path d="M24.2612 29.7825L24.7197 30.6613L24.7198 30.6612L24.2612 29.7825ZM20.7583 33.4036L21.3493 34.1993L21.3495 34.1991L20.7583 33.4036ZM20.5415 33.4837L20.5405 34.4749H20.5415V33.4837ZM20.3247 33.4036L19.7326 34.1985L19.7332 34.1989L20.3247 33.4036ZM16.8217 29.7825L16.3631 30.6612L16.3631 30.6612L16.8217 29.7825ZM20.5083 22.6458L20.5082 23.637H20.5083V22.6458ZM29.7577 20.9775L30.7438 21.0771L29.7577 20.9775ZM28.7495 20.3944L28.2443 19.5416L28.7495 20.3944ZM29.7577 20.9775L28.7715 20.8778C28.4004 24.5502 26.4137 27.5412 23.8026 28.9038L24.2612 29.7825L24.7198 30.6612C28.0061 28.9463 30.3158 25.3136 30.7438 21.0771L29.7577 20.9775ZM24.2612 29.7825L23.8027 28.9037C22.8437 29.4041 22.1868 30.2302 21.6695 30.9072C21.1067 31.6437 20.6988 32.2128 20.167 32.6081L20.7583 33.4036L21.3495 34.1991C22.1605 33.5963 22.7625 32.7419 23.2446 32.1108C23.7723 31.4203 24.1954 30.9348 24.7197 30.6613L24.2612 29.7825ZM20.7583 33.4036L20.1672 32.6079C20.2222 32.567 20.352 32.4925 20.5415 32.4925V33.4837V34.4749C20.8801 34.4749 21.155 34.3437 21.3493 34.1993L20.7583 33.4036ZM20.5415 33.4837L20.5424 32.4925C20.7302 32.4927 20.8599 32.5664 20.9162 32.6082L20.3247 33.4036L19.7332 34.1989C19.9289 34.3445 20.2034 34.4745 20.5405 34.4749L20.5415 33.4837ZM20.3247 33.4036L20.9167 32.6087C20.3849 32.2125 19.9767 31.643 19.4137 30.9066C18.8961 30.2295 18.2389 29.4041 17.2804 28.9038L16.8217 29.7825L16.3631 30.6612C16.8876 30.9349 17.3111 31.4204 17.8388 32.1106C18.3211 32.7414 18.9228 33.5954 19.7326 34.1985L20.3247 33.4036ZM16.8217 29.7825L17.2804 28.9038C14.6791 27.5461 12.6977 24.572 12.3162 20.9178L11.3304 21.0207L10.3446 21.1236C10.7847 25.3396 13.089 28.9523 16.3631 30.6612L16.8217 29.7825ZM12.3357 20.4337L11.8345 21.2889C14.3811 22.7813 17.3461 23.6369 20.5082 23.637L20.5083 22.6458L20.5083 21.6546C17.7081 21.6545 15.0878 20.8978 12.8369 19.5786L12.3357 20.4337ZM20.5083 22.6458V23.637C23.7002 23.637 26.692 22.7656 29.2548 21.2471L28.7495 20.3944L28.2443 19.5416C25.979 20.8839 23.335 21.6546 20.5083 21.6546V22.6458ZM11.3304 21.0207L12.3162 20.9178C12.3232 20.9842 12.3098 21.066 12.2681 21.1421C12.229 21.2136 12.1761 21.26 12.1285 21.2871C12.037 21.3391 11.924 21.3413 11.8345 21.2889L12.3357 20.4337L12.8369 19.5786C12.2846 19.2549 11.6411 19.2838 11.1487 19.5637C10.6432 19.8512 10.2716 20.4247 10.3446 21.1236L11.3304 21.0207ZM29.7577 20.9775L30.7438 21.0771C30.8146 20.3773 30.4405 19.8048 29.9334 19.5193C29.4396 19.2412 28.7955 19.2151 28.2443 19.5416L28.7495 20.3944L29.2548 21.2471C29.1655 21.3 29.0525 21.2983 28.9607 21.2467C28.913 21.2198 28.8599 21.1735 28.8205 21.1022C28.7784 21.0261 28.7648 20.9443 28.7715 20.8778L29.7577 20.9775Z" fill="black" mask="url(#path-4-inside-1_401_13193)"/>
<ellipse cx="20.5748" cy="20.8621" rx="8.7225" ry="2.9075" fill="black" stroke="black" stroke-width="0.991193"/>
<path d="M13.5704 25.752C13.5704 25.752 17.8727 27.2057 20.6409 27.2057C23.4091 27.2057 27.7114 25.752 27.7114 25.752" stroke="black" stroke-width="0.991193" stroke-linecap="round"/>
<circle cx="1.97232" cy="1.97232" r="1.97232" transform="matrix(-1 0 0 1 14.3432 6.45654)" fill="black"/>
<path d="M12.0422 8.1333L15.7238 11.815" stroke="black" stroke-width="0.986159"/>
<circle cx="28.4782" cy="8.42886" r="1.97232" fill="black"/>
<path d="M28.8397 8.1333L25.1581 11.815" stroke="black" stroke-width="0.986159"/>
<path d="M20.4907 8.69238C24.9396 8.6926 28.6523 12.4422 29.5292 17.4354C29.7331 18.5964 29.1092 19.7322 28.0424 20.2339C25.7605 21.307 23.2115 21.9062 20.5229 21.9062C17.8064 21.9062 15.2332 21.2936 12.9335 20.1991C11.8703 19.6931 11.2515 18.5566 11.4586 17.3976C12.3476 12.4232 16.0528 8.69238 20.4907 8.69238Z" fill="#FFDF6F"/>
<path d="M20.4907 8.69238L20.4907 8.1993H20.4907V8.69238ZM20.5229 21.9062L20.5229 22.3993H20.5229V21.9062ZM28.0424 20.2339L27.8326 19.7877L27.8326 19.7877L28.0424 20.2339ZM20.4907 8.69238L20.4906 9.18546C24.6374 9.18567 28.1961 12.6956 29.0435 17.5206L29.5292 17.4354L30.0148 17.3501C29.1084 12.1889 25.2417 8.19954 20.4907 8.1993L20.4907 8.69238ZM28.0424 20.2339L27.8326 19.7877C25.615 20.8305 23.1375 21.4132 20.5229 21.4132V21.9062V22.3993C23.2855 22.3993 25.9059 21.7834 28.2523 20.6801L28.0424 20.2339ZM20.5229 21.9062L20.5229 21.4132C17.8813 21.4131 15.3803 20.8175 13.1454 19.7539L12.9335 20.1991L12.7216 20.6443C15.0861 21.7696 17.7315 22.3993 20.5229 22.3993L20.5229 21.9062ZM11.4586 17.3976L11.944 17.4843C12.803 12.6777 16.3542 9.18546 20.4907 9.18546V8.69238V8.1993C15.7515 8.1993 11.8922 12.1687 10.9732 17.3108L11.4586 17.3976ZM12.9335 20.1991L13.1454 19.7539C12.2724 19.3384 11.778 18.4136 11.944 17.4843L11.4586 17.3976L10.9732 17.3108C10.725 18.6997 11.4682 20.0478 12.7216 20.6443L12.9335 20.1991ZM29.5292 17.4354L29.0435 17.5206C29.207 18.4516 28.7084 19.3758 27.8326 19.7877L28.0424 20.2339L28.2523 20.6801C29.51 20.0886 30.2591 18.7413 30.0148 17.3501L29.5292 17.4354Z" fill="black"/>
<path d="M20.4907 12.1768C23.6385 12.1769 26.304 14.1296 27.2178 16.828C27.5142 17.7032 27.0065 18.6137 26.1507 18.9621C24.4039 19.6734 22.4931 20.0654 20.4907 20.0654C18.4884 20.0654 16.5776 19.6733 14.8308 18.9621C13.9749 18.6137 13.4672 17.7032 13.7636 16.8279C14.6774 14.1295 17.3428 12.1768 20.4907 12.1768Z" fill="black"/>
<ellipse cx="22.7584" cy="16.3842" rx="1.6436" ry="1.31488" fill="white"/>
<ellipse cx="18.0532" cy="16.3847" rx="1.6436" ry="1.31488" fill="white"/>
</svg>
