<svg width="40" height="40" viewBox="0 0 40 40" fill="none" xmlns="http://www.w3.org/2000/svg">
<g clip-path="url(#clip0_493_17804)">
<rect width="40" height="40" rx="2.4" fill="#F2C94C"/>
<path d="M7.90086 28.0914C7.90086 28.3218 7.86126 28.5324 7.78206 28.7232C7.70646 28.9104 7.59666 29.0724 7.45266 29.2092C7.30866 29.3424 7.13406 29.4468 6.92886 29.5224C6.72726 29.598 6.50226 29.6358 6.25386 29.6358C6.00186 29.6358 5.77506 29.598 5.57346 29.5224C5.37186 29.4468 5.20086 29.3424 5.06046 29.2092C4.92006 29.0724 4.81206 28.9104 4.73646 28.7232C4.66086 28.5324 4.62306 28.3218 4.62306 28.0914V25.71H5.54106V28.0158C5.54106 28.1202 5.55366 28.2192 5.57886 28.3128C5.60766 28.4064 5.64906 28.491 5.70306 28.5666C5.76066 28.6386 5.83446 28.6962 5.92446 28.7394C6.01806 28.7826 6.12966 28.8042 6.25926 28.8042C6.38886 28.8042 6.49866 28.7826 6.58866 28.7394C6.68226 28.6962 6.75786 28.6386 6.81546 28.5666C6.87306 28.491 6.91446 28.4064 6.93966 28.3128C6.96486 28.2192 6.97746 28.1202 6.97746 28.0158V25.71H7.90086V28.0914ZM10.9534 29.5332L10.1164 28.1832L9.31178 29.5332H8.21018L9.54938 27.5136L8.31818 25.71H9.43058L10.1434 26.898L10.8454 25.71H11.92L10.7104 27.5136L12.0928 29.5332H10.9534ZM6.70746 34.5332L5.88126 33.0158H5.56806V34.5332H4.66086V30.71H6.11886C6.30246 30.71 6.48066 30.7298 6.65346 30.7694C6.82986 30.8054 6.98646 30.8684 7.12326 30.9584C7.26366 31.0484 7.37526 31.1672 7.45806 31.3148C7.54086 31.4624 7.58226 31.646 7.58226 31.8656C7.58226 32.1248 7.51206 32.3426 7.37166 32.519C7.23126 32.6954 7.03686 32.8214 6.78846 32.897L7.78746 34.5332H6.70746ZM6.66966 31.8818C6.66966 31.7918 6.64986 31.7198 6.61026 31.6658C6.57426 31.6082 6.52566 31.565 6.46446 31.5362C6.40686 31.5038 6.34026 31.4822 6.26466 31.4714C6.19266 31.4606 6.12246 31.4552 6.05406 31.4552H5.56266V32.3462H6.00006C6.07566 32.3462 6.15306 32.3408 6.23226 32.33C6.31146 32.3156 6.38346 32.2922 6.44826 32.2598C6.51306 32.2274 6.56526 32.1806 6.60486 32.1194C6.64806 32.0582 6.66966 31.979 6.66966 31.8818ZM8.24153 34.5332V30.71H10.8119V31.493H9.13253V32.2112H10.7201V32.951H9.13253V33.7448H10.9091V34.5332H8.24153ZM13.5412 31.7036C13.462 31.6028 13.3576 31.5236 13.228 31.466C13.102 31.4048 12.9796 31.3742 12.8608 31.3742C12.7996 31.3742 12.7366 31.3796 12.6718 31.3904C12.6106 31.4012 12.5548 31.4228 12.5044 31.4552C12.454 31.484 12.4108 31.5236 12.3748 31.574C12.3424 31.6208 12.3262 31.682 12.3262 31.7576C12.3262 31.8224 12.3388 31.8764 12.364 31.9196C12.3928 31.9628 12.4324 32.0006 12.4828 32.033C12.5368 32.0654 12.5998 32.096 12.6718 32.1248C12.7438 32.15 12.8248 32.177 12.9148 32.2058C13.0444 32.249 13.1794 32.2976 13.3198 32.3516C13.4602 32.402 13.588 32.4704 13.7032 32.5568C13.8184 32.6432 13.9138 32.7512 13.9894 32.8808C14.065 33.0068 14.1028 33.1652 14.1028 33.356C14.1028 33.5756 14.0614 33.7664 13.9786 33.9284C13.8994 34.0868 13.7914 34.2182 13.6546 34.3226C13.5178 34.427 13.3612 34.5044 13.1848 34.5548C13.0084 34.6052 12.8266 34.6304 12.6394 34.6304C12.3658 34.6304 12.1012 34.5836 11.8456 34.49C11.59 34.3928 11.3776 34.256 11.2084 34.0796L11.8132 33.464C11.9068 33.5792 12.0292 33.6764 12.1804 33.7556C12.3352 33.8312 12.4882 33.869 12.6394 33.869C12.7078 33.869 12.7744 33.8618 12.8392 33.8474C12.904 33.833 12.9598 33.8096 13.0066 33.7772C13.057 33.7448 13.0966 33.7016 13.1254 33.6476C13.1542 33.5936 13.1686 33.5288 13.1686 33.4532C13.1686 33.3812 13.1506 33.32 13.1146 33.2696C13.0786 33.2192 13.0264 33.1742 12.958 33.1346C12.8932 33.0914 12.8104 33.0536 12.7096 33.0212C12.6124 32.9852 12.5008 32.9474 12.3748 32.9078C12.2524 32.8682 12.1318 32.8214 12.013 32.7674C11.8978 32.7134 11.7934 32.645 11.6998 32.5622C11.6098 32.4758 11.536 32.3732 11.4784 32.2544C11.4244 32.132 11.3974 31.9844 11.3974 31.8116C11.3974 31.5992 11.4406 31.4174 11.527 31.2662C11.6134 31.115 11.7268 30.9908 11.8672 30.8936C12.0076 30.7964 12.166 30.7262 12.3424 30.683C12.5188 30.6362 12.697 30.6128 12.877 30.6128C13.093 30.6128 13.3126 30.6524 13.5358 30.7316C13.7626 30.8108 13.9606 30.9278 14.1298 31.0826L13.5412 31.7036ZM14.712 34.5332V30.71H17.2824V31.493H15.603V32.2112H17.1906V32.951H15.603V33.7448H17.3796V34.5332H14.712ZM20.5841 34.5332L20.2871 33.7826H18.8075L18.5267 34.5332H17.5223L19.1261 30.71H20.0225L21.6101 34.5332H20.5841ZM19.5581 31.7306L19.0721 33.0428H20.0333L19.5581 31.7306ZM23.9727 34.5332L23.1465 33.0158H22.8333V34.5332H21.9261V30.71H23.3841C23.5677 30.71 23.7459 30.7298 23.9187 30.7694C24.0951 30.8054 24.2517 30.8684 24.3885 30.9584C24.5289 31.0484 24.6405 31.1672 24.7233 31.3148C24.8061 31.4624 24.8475 31.646 24.8475 31.8656C24.8475 32.1248 24.7773 32.3426 24.6369 32.519C24.4965 32.6954 24.3021 32.8214 24.0537 32.897L25.0527 34.5332H23.9727ZM23.9349 31.8818C23.9349 31.7918 23.9151 31.7198 23.8755 31.6658C23.8395 31.6082 23.7909 31.565 23.7297 31.5362C23.6721 31.5038 23.6055 31.4822 23.5299 31.4714C23.4579 31.4606 23.3877 31.4552 23.3193 31.4552H22.8279V32.3462H23.2653C23.3409 32.3462 23.4183 32.3408 23.4975 32.33C23.5767 32.3156 23.6487 32.2922 23.7135 32.2598C23.7783 32.2274 23.8305 32.1806 23.8701 32.1194C23.9133 32.0582 23.9349 31.979 23.9349 31.8818ZM28.871 34.004C28.7018 34.1984 28.493 34.3532 28.2446 34.4684C27.9962 34.58 27.71 34.6358 27.386 34.6358C27.0908 34.6358 26.8172 34.5872 26.5652 34.49C26.3168 34.3928 26.1008 34.256 25.9172 34.0796C25.7336 33.8996 25.5896 33.6854 25.4852 33.437C25.3808 33.1886 25.3286 32.915 25.3286 32.6162C25.3286 32.3102 25.3808 32.033 25.4852 31.7846C25.5932 31.5362 25.7408 31.3256 25.928 31.1528C26.1152 30.9764 26.3348 30.8414 26.5868 30.7478C26.8388 30.6542 27.1106 30.6074 27.4022 30.6074C27.6722 30.6074 27.9368 30.656 28.196 30.7532C28.4588 30.8468 28.6712 30.9854 28.8332 31.169L28.2068 31.7954C28.1204 31.6766 28.007 31.5884 27.8666 31.5308C27.7262 31.4732 27.5822 31.4444 27.4346 31.4444C27.2726 31.4444 27.1232 31.475 26.9864 31.5362C26.8532 31.5938 26.738 31.6748 26.6408 31.7792C26.5436 31.8836 26.468 32.0078 26.414 32.1518C26.36 32.2922 26.333 32.447 26.333 32.6162C26.333 32.789 26.36 32.9474 26.414 33.0914C26.468 33.2354 26.5418 33.3596 26.6354 33.464C26.7326 33.5648 26.8478 33.644 26.981 33.7016C27.1142 33.7592 27.26 33.788 27.4184 33.788C27.602 33.788 27.7622 33.752 27.899 33.68C28.0358 33.608 28.1456 33.5144 28.2284 33.3992L28.871 34.004ZM31.6805 34.5332V32.9348H30.1901V34.5332H29.2667V30.71H30.1901V32.1572H31.6805V30.71H32.6039V34.5332H31.6805Z" fill="white"/>
<path d="M11.7337 5.33301C15.2674 5.33319 18.133 7.95155 18.1331 11.1514C18.1331 14.3513 15.2674 16.9695 11.7337 16.9697C11.205 16.9697 10.676 16.9113 10.1751 16.7949C9.8412 17.1731 8.81151 18.1338 7.3089 18.1338H6.75226L7.0589 17.668C7.64307 16.7955 7.80934 16.0681 7.83722 15.748C6.25128 14.6717 5.33331 12.9549 5.33331 11.1514C5.3334 7.95143 8.19984 5.33301 11.7337 5.33301ZM11.8216 12.7305C11.715 12.7305 11.6138 12.7523 11.5179 12.7949C11.4219 12.8323 11.3367 12.8857 11.262 12.9551C11.1927 13.0244 11.1367 13.1072 11.0941 13.2031C11.0569 13.2936 11.0375 13.3892 11.0374 13.4902C11.0374 13.5969 11.0592 13.6964 11.1019 13.7871C11.1445 13.8776 11.2007 13.9572 11.2698 14.0264C11.3445 14.0957 11.4272 14.1492 11.5179 14.1865C11.6138 14.2238 11.715 14.2431 11.8216 14.2432C12.0402 14.2432 12.224 14.1703 12.3734 14.0264C12.5227 13.877 12.598 13.6958 12.598 13.4824C12.5979 13.3812 12.5761 13.2849 12.5335 13.1943C12.4962 13.0985 12.4401 13.019 12.3655 12.9551C12.2962 12.8857 12.2135 12.8323 12.1175 12.7949C12.0269 12.7523 11.9282 12.7305 11.8216 12.7305ZM11.8782 8.34668C11.6222 8.34668 11.3791 8.38432 11.1497 8.45898C10.9204 8.52832 10.7148 8.63435 10.5335 8.77832C10.3522 8.92229 10.2026 9.10365 10.0853 9.32227C9.97327 9.54093 9.90145 9.79501 9.86945 10.083L11.1419 10.2188C11.1526 10.0269 11.2137 9.85628 11.3255 9.70703C11.4374 9.55244 11.6056 9.47469 11.8294 9.47461C12.0107 9.47461 12.1529 9.52562 12.2542 9.62695C12.3606 9.72825 12.4134 9.86469 12.4134 10.0352C12.4133 10.1576 12.3816 10.264 12.3177 10.3545C12.2537 10.4398 12.1759 10.5225 12.0853 10.6025L11.8216 10.8506C11.715 10.9412 11.6213 11.0289 11.5413 11.1143C11.4667 11.1996 11.4032 11.2882 11.3499 11.3789C11.2966 11.4695 11.2565 11.5707 11.2298 11.6826C11.2031 11.7893 11.1898 11.9121 11.1898 12.0508V12.3545H12.4378V12.1465C12.4378 12.0613 12.4428 11.9893 12.4534 11.9307C12.4694 11.8667 12.4937 11.8082 12.5257 11.7549C12.5577 11.6963 12.6004 11.6402 12.6536 11.5869C12.7123 11.5336 12.7841 11.4717 12.8694 11.4023C13.0081 11.2957 13.131 11.1946 13.2376 11.0986C13.3496 10.9973 13.4432 10.8903 13.5179 10.7783C13.5977 10.6665 13.6589 10.5442 13.7015 10.4111C13.7441 10.2778 13.7659 10.1223 13.7659 9.94629C13.7659 9.66912 13.7124 9.42913 13.6058 9.22656C13.4991 9.02394 13.3579 8.85845 13.1819 8.73047C13.0059 8.59714 12.8029 8.50105 12.5735 8.44238C12.3498 8.37848 12.118 8.34672 11.8782 8.34668Z" fill="white"/>
</g>
<defs>
<clipPath id="clip0_493_17804">
<rect width="40" height="40" fill="white"/>
</clipPath>
</defs>
</svg>
