<svg width="40" height="40" viewBox="0 0 40 40" fill="none" xmlns="http://www.w3.org/2000/svg">
<circle cx="20.0518" cy="20.2279" r="16.7718" fill="#F1BB35"/>
<g style="mix-blend-mode:overlay" opacity="0.25">
<rect x="11.5013" y="32.0234" width="17.0027" height="1.40022" rx="0.700112" fill="black"/>
</g>
<rect x="12.4015" y="27.0225" width="15.2024" height="5.80093" rx="1.50024" fill="#CCDFEB"/>
<path d="M26.304 8.11914C26.8562 8.11929 27.3039 8.56693 27.304 9.11914C27.304 9.67142 26.8563 10.119 26.304 10.1191H25.5032V10.7939C27.4963 11.1688 29.0042 12.9186 29.0042 15.0205V28.2227C29.0041 30.0454 27.5262 31.5225 25.7034 31.5225H14.3021C12.4793 31.5225 11.0014 30.0454 11.0013 28.2227V15.0205C11.0013 12.9186 12.5092 11.1688 14.5023 10.7939V10.1191H13.7015C13.1492 10.119 12.7015 9.67143 12.7015 9.11914C12.7016 8.56692 13.1493 8.11927 13.7015 8.11914H26.304Z" fill="#CCDFEB"/>
<circle cx="18.6689" cy="6.42282" r="3.19463" fill="#FAA420" stroke="black" stroke-width="0.456376"/>
<path d="M20.2956 6.00524C20.3567 5.55131 20.0123 5.31432 19.5401 5.15411L19.6868 4.53996L19.3135 4.44984L19.1713 5.05064C19.0724 5.02728 18.9724 5.00391 18.8736 4.98389L19.0158 4.38309L18.638 4.29297L18.4914 4.90712C18.4114 4.8882 18.3303 4.87374 18.2503 4.85483L17.7359 4.73133L17.6415 5.12852C17.6415 5.12852 17.9204 5.18971 17.9104 5.19528C18.0615 5.23311 18.0903 5.33213 18.0848 5.40778L17.9193 6.1076C17.9292 6.11205 17.9426 6.11205 17.957 6.12206C17.9426 6.11761 17.9337 6.11761 17.9193 6.11316L17.6926 7.09224C17.6737 7.13897 17.626 7.20572 17.5226 7.18236C17.5271 7.18681 17.2482 7.1156 17.2482 7.1156L17.0716 7.54618L17.5582 7.65966C17.6482 7.68302 17.7382 7.70194 17.8226 7.72642L17.676 8.34613L18.0492 8.43625L18.1959 7.8221C18.3003 7.84991 18.3992 7.87439 18.4936 7.89775L18.347 8.50745L18.7202 8.59757L18.8669 7.97786C19.5046 8.09134 19.9812 8.03905 20.1745 7.45717C20.33 6.99322 20.16 6.72842 19.8201 6.55375C20.0689 6.49701 20.2489 6.33568 20.2956 6.00524ZM19.4557 7.21017C19.3468 7.67412 18.5636 7.43269 18.3125 7.3715L18.5058 6.54818C18.7614 6.61049 19.569 6.72397 19.4557 7.21017ZM19.559 6.00524C19.4601 6.4258 18.808 6.22331 18.5958 6.17102L18.7758 5.42447C18.9835 5.47565 19.6634 5.56577 19.559 6.00524Z" fill="white"/>
<mask id="path-7-inside-1_401_13248" fill="white">
<path d="M24.0038 28.6221H22.3026V29.4229H24.4032V31.5225H23.3036V32.8232H14.3016V30.9229H15.4022V30.0225H13.3016V28.0225H15.0018V26.6221H24.0038V28.6221Z"/>
</mask>
<path d="M24.0038 28.6221H22.3026V29.4229H24.4032V31.5225H23.3036V32.8232H14.3016V30.9229H15.4022V30.0225H13.3016V28.0225H15.0018V26.6221H24.0038V28.6221Z" fill="#FAA420"/>
<path d="M24.0038 28.6221V29.2222H24.6039V28.6221H24.0038ZM22.3026 28.6221V28.022H21.7025V28.6221H22.3026ZM22.3026 29.4229H21.7025V30.0229H22.3026V29.4229ZM24.4032 29.4229H25.0033V28.8228H24.4032V29.4229ZM24.4032 31.5225V32.1226H25.0033V31.5225H24.4032ZM23.3036 31.5225V30.9224H22.7035V31.5225H23.3036ZM23.3036 32.8232V33.4233H23.9037V32.8232H23.3036ZM14.3016 32.8232H13.7015V33.4233H14.3016V32.8232ZM14.3016 30.9229V30.3228H13.7015V30.9229H14.3016ZM15.4022 30.9229V31.5229H16.0023V30.9229H15.4022ZM15.4022 30.0225H16.0023V29.4224H15.4022V30.0225ZM13.3016 30.0225H12.7015V30.6226H13.3016V30.0225ZM13.3016 28.0225V27.4224H12.7015V28.0225H13.3016ZM15.0018 28.0225V28.6226H15.6019V28.0225H15.0018ZM15.0018 26.6221V26.022H14.4017V26.6221H15.0018ZM24.0038 26.6221H24.6039V26.022H24.0038V26.6221ZM24.0038 28.6221V28.022H22.3026V28.6221V29.2222H24.0038V28.6221ZM22.3026 28.6221H21.7025V29.4229H22.3026H22.9027V28.6221H22.3026ZM22.3026 29.4229V30.0229H24.4032V29.4229V28.8228H22.3026V29.4229ZM24.4032 29.4229H23.8031V31.5225H24.4032H25.0033V29.4229H24.4032ZM24.4032 31.5225V30.9224H23.3036V31.5225V32.1226H24.4032V31.5225ZM23.3036 31.5225H22.7035V32.8232H23.3036H23.9037V31.5225H23.3036ZM23.3036 32.8232V32.2231H14.3016V32.8232V33.4233H23.3036V32.8232ZM14.3016 32.8232H14.9017V30.9229H14.3016H13.7015V32.8232H14.3016ZM14.3016 30.9229V31.5229H15.4022V30.9229V30.3228H14.3016V30.9229ZM15.4022 30.9229H16.0023V30.0225H15.4022H14.8021V30.9229H15.4022ZM15.4022 30.0225V29.4224H13.3016V30.0225V30.6226H15.4022V30.0225ZM13.3016 30.0225H13.9017V28.0225H13.3016H12.7015V30.0225H13.3016ZM13.3016 28.0225V28.6226H15.0018V28.0225V27.4224H13.3016V28.0225ZM15.0018 28.0225H15.6019V26.6221H15.0018H14.4017V28.0225H15.0018ZM15.0018 26.6221V27.2222H24.0038V26.6221V26.022H15.0018V26.6221ZM24.0038 26.6221H23.4037V28.6221H24.0038H24.6039V26.6221H24.0038Z" fill="black" mask="url(#path-7-inside-1_401_13248)"/>
<g style="mix-blend-mode:overlay">
<rect x="18.9025" y="28.0225" width="3.50056" height="0.600096" fill="black"/>
</g>
<g style="mix-blend-mode:overlay">
<rect x="16.5021" y="26.6221" width="3.50056" height="0.600096" fill="black"/>
</g>
<g style="mix-blend-mode:overlay">
<rect x="15.9021" y="29.4229" width="3.50056" height="0.600096" fill="black"/>
</g>
<g filter="url(#filter0_i_401_13248)">
<path d="M26.304 8.11914C26.8562 8.11929 27.3039 8.56693 27.304 9.11914C27.304 9.67142 26.8563 10.119 26.304 10.1191H25.5032V10.7939C27.4963 11.1688 29.0042 12.9186 29.0042 15.0205V28.2227C29.0041 30.0454 27.5262 31.5225 25.7034 31.5225H14.3021C12.4793 31.5225 11.0014 30.0454 11.0013 28.2227V15.0205C11.0013 12.9186 12.5092 11.1688 14.5023 10.7939V10.1191H13.7015C13.1492 10.119 12.7015 9.67143 12.7015 9.11914C12.7016 8.56692 13.1493 8.11927 13.7015 8.11914H26.304Z" fill="#CCDFEB" fill-opacity="0.01"/>
</g>
<mask id="path-13-inside-2_401_13248" fill="white">
<path d="M27.6036 31.3232C27.6034 32.1516 26.9321 32.8232 26.1036 32.8232H13.9015C13.0732 32.8231 12.4017 32.1515 12.4015 31.3232V30.3203C12.9388 30.6995 13.5943 30.9228 14.3019 30.9229H25.7032C26.4108 30.9229 27.0663 30.6994 27.6036 30.3203V31.3232Z"/>
</mask>
<path d="M27.6036 31.3232L28.2037 31.3234V31.3232H27.6036ZM13.9015 32.8232L13.9014 33.4233H13.9015V32.8232ZM12.4015 31.3232L11.8014 31.3232L11.8014 31.3234L12.4015 31.3232ZM12.4015 30.3203L12.7475 29.83L11.8014 29.1625V30.3203H12.4015ZM14.3019 30.9229L14.3018 31.5229H14.3019V30.9229ZM27.6036 30.3203H28.2037V29.1626L27.2577 29.83L27.6036 30.3203ZM27.6036 31.3232L27.0035 31.3231C27.0034 31.8203 26.6005 32.2231 26.1036 32.2231V32.8232V33.4233C27.2636 33.4233 28.2035 32.4829 28.2037 31.3234L27.6036 31.3232ZM26.1036 32.8232V32.2231H13.9015V32.8232V33.4233H26.1036V32.8232ZM13.9015 32.8232L13.9016 32.2231C13.4047 32.2231 13.0017 31.8201 13.0016 31.3231L12.4015 31.3232L11.8014 31.3234C11.8017 32.483 12.7417 33.4231 13.9014 33.4233L13.9015 32.8232ZM12.4015 31.3232H13.0016V30.3203H12.4015H11.8014V31.3232H12.4015ZM12.4015 30.3203L12.0555 30.8106C12.6904 31.2586 13.466 31.5229 14.3018 31.5229L14.3019 30.9229L14.3019 30.3228C13.7226 30.3227 13.1872 30.1403 12.7475 29.83L12.4015 30.3203ZM14.3019 30.9229V31.5229H25.7032V30.9229V30.3228H14.3019V30.9229ZM25.7032 30.9229V31.5229C26.5391 31.5229 27.3147 31.2585 27.9496 30.8107L27.6036 30.3203L27.2577 29.83C26.8179 30.1402 26.2824 30.3228 25.7032 30.3228V30.9229ZM27.6036 30.3203H27.0035V31.3232H27.6036H28.2037V30.3203H27.6036Z" fill="black" mask="url(#path-13-inside-2_401_13248)"/>
<g filter="url(#filter1_i_401_13248)">
<mask id="path-15-inside-3_401_13248" fill="white">
<path d="M26.304 8.11914C26.8562 8.11929 27.3039 8.56693 27.304 9.11914C27.304 9.67142 26.8563 10.119 26.304 10.1191H25.5032V10.7939C27.4963 11.1688 29.0042 12.9186 29.0042 15.0205V28.2227C29.0041 30.0454 27.5262 31.5225 25.7034 31.5225H14.3021C12.4793 31.5225 11.0014 30.0454 11.0013 28.2227V15.0205C11.0013 12.9186 12.5092 11.1688 14.5023 10.7939V10.1191H13.7015C13.1492 10.119 12.7015 9.67143 12.7015 9.11914C12.7016 8.56692 13.1493 8.11927 13.7015 8.11914H26.304Z"/>
</mask>
<path d="M26.304 8.11914L26.3042 7.51904H26.304V8.11914ZM27.304 9.11914L27.9041 9.11914L27.9041 9.11905L27.304 9.11914ZM26.304 10.1191L26.304 10.7192L26.3042 10.7192L26.304 10.1191ZM25.5032 10.1191V9.51904H24.9031V10.1191H25.5032ZM25.5032 10.7939H24.9031V11.2917L25.3923 11.3837L25.5032 10.7939ZM29.0042 28.2227L29.6043 28.2227V28.2227H29.0042ZM11.0013 28.2227L10.4012 28.2227L10.4012 28.2227L11.0013 28.2227ZM14.5023 10.7939L14.6132 11.3837L15.1024 11.2917V10.7939H14.5023ZM14.5023 10.1191H15.1024V9.51904H14.5023V10.1191ZM13.7015 10.1191L13.7013 10.7192H13.7015V10.1191ZM12.7015 9.11914L12.1014 9.11905V9.11914H12.7015ZM13.7015 8.11914L13.7015 7.51904L13.7013 7.51904L13.7015 8.11914ZM26.304 8.11914L26.3039 8.71924C26.5248 8.7193 26.7039 8.89844 26.7039 9.11923L27.304 9.11914L27.9041 9.11905C27.904 8.23542 27.1876 7.51928 26.3042 7.51904L26.304 8.11914ZM27.304 9.11914H26.7039C26.7039 9.33984 26.525 9.51898 26.3039 9.51904L26.304 10.1191L26.3042 10.7192C27.1876 10.719 27.9041 10.003 27.9041 9.11914H27.304ZM26.304 10.1191V9.51904H25.5032V10.1191V10.7192H26.304V10.1191ZM25.5032 10.1191H24.9031V10.7939H25.5032H26.1033V10.1191H25.5032ZM25.5032 10.7939L25.3923 11.3837C27.1069 11.7062 28.4041 13.2125 28.4041 15.0205H29.0042H29.6043C29.6043 12.6247 27.8856 10.6314 25.6142 10.2042L25.5032 10.7939ZM29.0042 15.0205H28.4041V28.2227H29.0042H29.6043V15.0205H29.0042ZM29.0042 28.2227L28.4041 28.2226C28.404 29.7137 27.1949 30.9224 25.7034 30.9224V31.5225V32.1226C27.8574 32.1226 29.6041 30.377 29.6043 28.2227L29.0042 28.2227ZM25.7034 31.5225V30.9224H14.3021V31.5225V32.1226H25.7034V31.5225ZM14.3021 31.5225V30.9224C12.8106 30.9224 11.6015 29.7137 11.6014 28.2226L11.0013 28.2227L10.4012 28.2227C10.4014 30.377 12.1481 32.1226 14.3021 32.1226V31.5225ZM11.0013 28.2227H11.6014V15.0205H11.0013H10.4012V28.2227H11.0013ZM11.0013 15.0205H11.6014C11.6014 13.2125 12.8986 11.7062 14.6132 11.3837L14.5023 10.7939L14.3913 10.2042C12.1198 10.6314 10.4012 12.6246 10.4012 15.0205H11.0013ZM14.5023 10.7939H15.1024V10.1191H14.5023H13.9022V10.7939H14.5023ZM14.5023 10.1191V9.51904H13.7015V10.1191V10.7192H14.5023V10.1191ZM13.7015 10.1191L13.7016 9.51904C13.4805 9.51899 13.3016 9.33987 13.3016 9.11914H12.7015H12.1014C12.1014 10.003 12.8179 10.719 13.7013 10.7192L13.7015 10.1191ZM12.7015 9.11914L13.3016 9.11923C13.3016 8.89841 13.4807 8.71929 13.7016 8.71924L13.7015 8.11914L13.7013 7.51904C12.8179 7.51925 12.1015 8.23543 12.1014 9.11905L12.7015 9.11914ZM13.7015 8.11914V8.71924H26.304V8.11914V7.51904H13.7015V8.11914Z" fill="black" mask="url(#path-15-inside-3_401_13248)"/>
</g>
<path d="M14.6019 11.0195L19.2026 11.0195" stroke="black" stroke-width="0.600096" stroke-linecap="round" stroke-linejoin="round"/>
<path d="M21.603 11.0195L23.2032 11.0195" stroke="black" stroke-width="0.600096" stroke-linecap="round" stroke-linejoin="round"/>
<rect x="13.3016" y="16.5198" width="10.4017" height="8.20132" rx="1.10018" fill="#EE804B" stroke="black" stroke-width="0.600096"/>
<path d="M16.8022 20.2207C16.9522 20.7008 17.6023 21.2209 18.5025 21.2209C19.4026 21.2209 20.0527 20.6208 20.2027 20.2207" stroke="black" stroke-width="0.600096" stroke-linecap="round" stroke-linejoin="round"/>
<rect x="14.6019" y="19.5205" width="0.800129" height="1.50024" rx="0.400064" fill="black"/>
<rect x="21.603" y="19.5205" width="0.800129" height="1.50024" rx="0.400064" fill="black"/>
<path d="M11.2013 20.6699C10.0511 21.42 8.35085 23.3704 6.8006 22.6202" stroke="black" stroke-width="0.600096" stroke-linecap="round" stroke-linejoin="round"/>
<circle cx="6.60056" cy="22.5702" r="0.700112" fill="black"/>
<path d="M27.7039 20.4707C29.0414 21.8709 30.6417 22.421 32.842 21.8709" stroke="black" stroke-width="0.600096" stroke-linecap="round" stroke-linejoin="round"/>
<circle cx="32.9421" cy="21.871" r="0.700112" fill="black"/>
<path d="M32.8048 21.8966L31.0545 15.3955" stroke="black" stroke-width="0.600096" stroke-linecap="round" stroke-linejoin="round"/>
<path d="M37.2055 12.9453C34.8551 12.6453 32.8047 15.0957 31.0045 15.3457L32.0546 18.9963C34.455 18.9463 36.4553 16.946 39.2058 17.3961C38.8057 15.1457 38.0056 13.7455 37.2055 12.9453Z" fill="#1749A5" stroke="black" stroke-width="0.600096" stroke-linecap="round" stroke-linejoin="round"/>
<path d="M37.7556 14.195C35.4052 13.8949 33.3549 16.4954 31.5546 16.7454L31.9046 17.6955C34.305 17.6455 35.8052 15.3952 38.5557 15.8452C38.3557 15.2451 38.0056 14.545 37.7556 14.195Z" fill="white"/>
<path d="M37.2055 12.9453C34.8551 12.6453 32.8047 15.0957 31.0045 15.3457L32.0546 18.9963C34.455 18.9463 36.4553 16.946 39.2058 17.3961C38.8057 15.1457 38.0056 13.7455 37.2055 12.9453Z" stroke="black" stroke-width="0.600096" stroke-linecap="round" stroke-linejoin="round"/>
<mask id="path-31-inside-4_401_13248" fill="white">
<path d="M6.65033 9.51953C8.66649 9.51953 10.3007 11.1547 10.3007 13.1709C10.3006 14.4708 9.62092 15.6109 8.59768 16.2573C8.25526 16.4736 8.00092 16.8273 8.00092 17.2323V17.2323C8.00092 17.7787 7.55794 18.2217 7.0115 18.2217H6.29006C5.74366 18.2217 5.30072 17.7787 5.30072 17.2323V17.2323C5.30072 16.8273 5.04633 16.4736 4.70384 16.2574C3.68025 15.6111 3.00005 14.471 2.99994 13.1709C2.99994 11.1548 4.63425 9.51963 6.65033 9.51953Z"/>
</mask>
<path d="M6.65033 9.51953C8.66649 9.51953 10.3007 11.1547 10.3007 13.1709C10.3006 14.4708 9.62092 15.6109 8.59768 16.2573C8.25526 16.4736 8.00092 16.8273 8.00092 17.2323V17.2323C8.00092 17.7787 7.55794 18.2217 7.0115 18.2217H6.29006C5.74366 18.2217 5.30072 17.7787 5.30072 17.2323V17.2323C5.30072 16.8273 5.04633 16.4736 4.70384 16.2574C3.68025 15.6111 3.00005 14.471 2.99994 13.1709C2.99994 11.1548 4.63425 9.51963 6.65033 9.51953Z" fill="#FAA420"/>
<path d="M6.65033 9.51953L6.65033 8.91943L6.6503 8.91943L6.65033 9.51953ZM10.3007 13.1709L10.9008 13.1709V13.1709H10.3007ZM2.99994 13.1709L2.39984 13.1709L2.39984 13.1709L2.99994 13.1709ZM4.70384 16.2574L4.38346 16.7648L4.70384 16.2574ZM8.59768 16.2573L8.91817 16.7646L8.59768 16.2573ZM6.65033 9.51953V10.1196C8.33486 10.1196 9.70062 11.486 9.70062 13.1709H10.3007H10.9008C10.9008 10.8235 8.99813 8.91943 6.65033 8.91943V9.51953ZM10.3007 13.1709L9.70062 13.1708C9.70053 14.2562 9.13387 15.2088 8.27719 15.7499L8.59768 16.2573L8.91817 16.7646C10.108 16.0131 10.9007 14.6854 10.9008 13.1709L10.3007 13.1709ZM7.0115 18.2217V17.6216H6.29006V18.2217V18.8218H7.0115V18.2217ZM4.70384 16.2574L5.02421 15.75C4.16715 15.2088 3.60012 14.2562 3.60004 13.1708L2.99994 13.1709L2.39984 13.1709C2.39997 14.6858 3.19334 16.0134 4.38346 16.7648L4.70384 16.2574ZM2.99994 13.1709H3.60004C3.60004 11.486 4.96586 10.1197 6.65036 10.1196L6.65033 9.51953L6.6503 8.91943C4.30263 8.91954 2.39984 10.8236 2.39984 13.1709H2.99994ZM5.30072 17.2323H5.90082C5.90082 16.5647 5.48681 16.042 5.02421 15.75L4.70384 16.2574L4.38346 16.7648C4.60584 16.9052 4.70062 17.0899 4.70062 17.2323H5.30072ZM6.29006 18.2217V17.6216C6.07509 17.6216 5.90082 17.4473 5.90082 17.2323H5.30072H4.70062C4.70062 18.1102 5.41224 18.8218 6.29006 18.8218V18.2217ZM8.00092 17.2323H7.40082C7.40082 17.4473 7.22652 17.6216 7.0115 17.6216V18.2217V18.8218C7.88936 18.8218 8.60101 18.1101 8.60101 17.2323H8.00092ZM8.59768 16.2573L8.27719 15.7499C7.81474 16.0421 7.40082 16.5647 7.40082 17.2323H8.00092H8.60101C8.60101 17.0898 8.69579 16.9051 8.91817 16.7646L8.59768 16.2573Z" fill="black" mask="url(#path-31-inside-4_401_13248)"/>
<path d="M6.65051 18.0205V24.0215" stroke="black" stroke-width="0.600096" stroke-linecap="round" stroke-linejoin="round"/>
<path d="M7.50063 18.821L6.65049 17.9209L5.95038 18.821" stroke="black" stroke-width="0.600096" stroke-linecap="round" stroke-linejoin="round"/>
<circle cx="7.40065" cy="12.5196" r="0.50008" fill="black"/>
<circle cx="6.00045" cy="12.5196" r="0.50008" fill="black"/>
<path d="M8.10074 14.0205L7.76458 14.2786C7.18684 14.7223 6.39071 14.7486 5.78492 14.3441L5.30029 14.0205" stroke="black" stroke-width="0.600096" stroke-linecap="round" stroke-linejoin="round"/>
<ellipse cx="0.600096" cy="0.52382" rx="0.600096" ry="0.52382" transform="matrix(0.932902 -0.36013 0.360128 0.932903 34.3519 15.5146)" fill="#1749A5"/>
<defs>
<filter id="filter0_i_401_13248" x="11.0013" y="8.11914" width="18.0029" height="23.4033" filterUnits="userSpaceOnUse" color-interpolation-filters="sRGB">
<feFlood flood-opacity="0" result="BackgroundImageFix"/>
<feBlend mode="normal" in="SourceGraphic" in2="BackgroundImageFix" result="shape"/>
<feColorMatrix in="SourceAlpha" type="matrix" values="0 0 0 0 0 0 0 0 0 0 0 0 0 0 0 0 0 0 127 0" result="hardAlpha"/>
<feOffset dx="-4.00064"/>
<feComposite in2="hardAlpha" operator="arithmetic" k2="-1" k3="1"/>
<feColorMatrix type="matrix" values="0 0 0 0 0 0 0 0 0 0 0 0 0 0 0 0 0 0 0.5 0"/>
<feBlend mode="overlay" in2="shape" result="effect1_innerShadow_401_13248"/>
</filter>
<filter id="filter1_i_401_13248" x="11.0013" y="8.11914" width="18.0029" height="23.4033" filterUnits="userSpaceOnUse" color-interpolation-filters="sRGB">
<feFlood flood-opacity="0" result="BackgroundImageFix"/>
<feBlend mode="normal" in="SourceGraphic" in2="BackgroundImageFix" result="shape"/>
<feColorMatrix in="SourceAlpha" type="matrix" values="0 0 0 0 0 0 0 0 0 0 0 0 0 0 0 0 0 0 127 0" result="hardAlpha"/>
<feOffset dx="-4.00064"/>
<feComposite in2="hardAlpha" operator="arithmetic" k2="-1" k3="1"/>
<feColorMatrix type="matrix" values="0 0 0 0 0 0 0 0 0 0 0 0 0 0 0 0 0 0 0.5 0"/>
<feBlend mode="overlay" in2="shape" result="effect1_innerShadow_401_13248"/>
</filter>
</defs>
</svg>
