<svg width="41" height="40" viewBox="0 0 41 40" fill="none" xmlns="http://www.w3.org/2000/svg">
<g clip-path="url(#clip0_401_13253)">
<path d="M39.4427 24.8375C36.7714 35.5519 25.9196 42.0725 15.2039 39.4006C4.49269 36.7294 -2.02793 25.8769 0.64457 15.1631C3.31457 4.44752 14.1664 -2.07373 24.8789 0.597521C35.5939 3.26877 42.1139 14.1225 39.4427 24.8375Z" fill="#1A1A1A"/>
<path d="M28.8615 17.1506C29.2596 14.4894 27.2333 13.0588 24.4627 12.1044L25.3615 8.49938L23.1671 7.9525L22.2921 11.4625C21.7152 11.3188 21.1227 11.1831 20.534 11.0487L21.4152 7.51562L19.2221 6.96875L18.3227 10.5725C17.8452 10.4638 17.3765 10.3563 16.9215 10.2431L16.924 10.2319L13.8977 9.47625L13.314 11.82C13.314 11.82 14.9421 12.1931 14.9077 12.2162C15.7965 12.4381 15.9571 13.0262 15.9302 13.4925L14.9065 17.5994C14.9677 17.615 15.0471 17.6375 15.1346 17.6725C15.0615 17.6544 14.9833 17.6344 14.9027 17.615L13.4677 23.3681C13.359 23.6381 13.0833 24.0431 12.4621 23.8894C12.484 23.9213 10.8671 23.4913 10.8671 23.4913L9.77771 26.0031L12.6333 26.715C13.1646 26.8481 13.6852 26.9875 14.1977 27.1188L13.2896 30.765L15.4815 31.3119L16.3808 27.7044C16.9796 27.8669 17.5608 28.0169 18.1296 28.1581L17.2333 31.7487L19.4277 32.2956L20.3358 28.6563C24.0777 29.3644 26.8915 29.0787 28.0758 25.6944C29.0302 22.9694 28.0283 21.3975 26.0596 20.3725C27.4933 20.0419 28.5733 19.0988 28.8615 17.1506ZM23.8477 24.1813C23.1696 26.9063 18.5815 25.4331 17.094 25.0637L18.299 20.2331C19.7865 20.6044 24.5565 21.3394 23.8477 24.1813ZM24.5265 17.1113C23.9077 19.59 20.089 18.3306 18.8502 18.0219L19.9427 13.6406C21.1815 13.9494 25.1708 14.5256 24.5265 17.1113Z" fill="white"/>
</g>
<defs>
<clipPath id="clip0_401_13253">
<rect width="40" height="40" fill="white" transform="translate(0.0430908)"/>
</clipPath>
</defs>
</svg>
