<svg width="40" height="40" viewBox="0 0 40 40" fill="none" xmlns="http://www.w3.org/2000/svg">
<g clip-path="url(#clip0_401_13243)">
<path d="M5.48556 37H10.3966C11.4451 36.9322 12.2624 36.7964 12.8483 36.5928C13.4342 36.3892 13.8968 35.982 14.2361 35.3712C14.5753 34.7605 14.8837 33.8443 15.1612 32.6227L21.2674 7.37719C21.5757 6.1217 21.6991 5.20553 21.6374 4.62868C21.5757 4.01791 21.2982 3.61072 20.8047 3.40713C20.3425 3.16974 19.5875 3.03403 18.5399 3H5.48552C9.64568 3.9654 12.7172 7.34304 12.7172 11.3616C12.7172 16.126 8.39953 19.9895 3.06903 20C8.39953 20.0105 12.7172 23.874 12.7172 28.6385C12.7172 32.657 9.64568 36.0346 5.48556 37Z" fill="#FE4F18"/>
<path d="M37 3H35.3743C34.3267 3.03403 33.5101 3.16974 32.9245 3.40713C32.3385 3.61072 31.8759 4.01791 31.5367 4.62868C31.2283 5.20553 30.9199 6.1217 30.6115 7.37719L24.5054 32.6227C24.2279 33.8443 24.1045 34.7605 24.1354 35.3712C24.1662 35.982 24.4129 36.3892 24.8755 36.5928C25.3689 36.7624 26.1245 36.8473 27.1422 36.8473H27.9748C29.0233 36.8473 30.1644 36.5418 31.3979 35.9311C32.6624 35.3203 33.8959 34.3193 35.0986 32.9281C35.7906 32.1476 37 30.1381 37 30.1381V3Z" fill="#FE4F18"/>
</g>
<defs>
<clipPath id="clip0_401_13243">
<rect width="34" height="34" fill="white" transform="translate(3 3)"/>
</clipPath>
</defs>
</svg>
