<svg width="40" height="40" viewBox="0 0 40 40" fill="none" xmlns="http://www.w3.org/2000/svg">
<rect width="40" height="40" rx="2.4" fill="#6FCF97"/>
<path d="M5.85066 33.5332V27.8692H7.22666V33.5332H5.85066ZM13.3815 32.7492C13.1309 33.0372 12.8215 33.2665 12.4535 33.4372C12.0855 33.6025 11.6615 33.6852 11.1815 33.6852C10.7442 33.6852 10.3389 33.6132 9.96554 33.4692C9.59754 33.3252 9.27754 33.1225 9.00554 32.8612C8.73354 32.5945 8.5202 32.2772 8.36554 31.9092C8.21087 31.5412 8.13354 31.1359 8.13354 30.6932C8.13354 30.2399 8.21087 29.8292 8.36554 29.4612C8.52554 29.0932 8.7442 28.7812 9.02154 28.5252C9.29887 28.2639 9.6242 28.0639 9.99754 27.9252C10.3709 27.7865 10.7735 27.7172 11.2055 27.7172C11.6055 27.7172 11.9975 27.7892 12.3815 27.9332C12.7709 28.0719 13.0855 28.2772 13.3255 28.5492L12.3975 29.4772C12.2695 29.3012 12.1015 29.1705 11.8935 29.0852C11.6855 28.9999 11.4722 28.9572 11.2535 28.9572C11.0135 28.9572 10.7922 29.0025 10.5895 29.0932C10.3922 29.1785 10.2215 29.2985 10.0775 29.4532C9.93354 29.6079 9.82154 29.7919 9.74154 30.0052C9.66154 30.2132 9.62154 30.4425 9.62154 30.6932C9.62154 30.9492 9.66154 31.1839 9.74154 31.3972C9.82154 31.6105 9.93087 31.7945 10.0695 31.9492C10.2135 32.0985 10.3842 32.2159 10.5815 32.3012C10.7789 32.3865 10.9949 32.4292 11.2295 32.4292C11.5015 32.4292 11.7389 32.3759 11.9415 32.2692C12.1442 32.1625 12.3069 32.0239 12.4295 31.8532L13.3815 32.7492ZM19.7781 30.6772C19.7781 31.1252 19.7008 31.5359 19.5461 31.9092C19.3914 32.2772 19.1754 32.5945 18.8981 32.8612C18.6261 33.1225 18.3008 33.3252 17.9221 33.4692C17.5434 33.6132 17.1328 33.6852 16.6901 33.6852C16.2474 33.6852 15.8368 33.6132 15.4581 33.4692C15.0848 33.3252 14.7594 33.1225 14.4821 32.8612C14.2101 32.5945 13.9968 32.2772 13.8421 31.9092C13.6874 31.5359 13.6101 31.1252 13.6101 30.6772C13.6101 30.2239 13.6874 29.8159 13.8421 29.4532C13.9968 29.0852 14.2101 28.7732 14.4821 28.5172C14.7594 28.2612 15.0848 28.0639 15.4581 27.9252C15.8368 27.7865 16.2474 27.7172 16.6901 27.7172C17.1328 27.7172 17.5434 27.7865 17.9221 27.9252C18.3008 28.0639 18.6261 28.2612 18.8981 28.5172C19.1754 28.7732 19.3914 29.0852 19.5461 29.4532C19.7008 29.8159 19.7781 30.2239 19.7781 30.6772ZM18.3141 30.6772C18.3141 30.4319 18.2741 30.2025 18.1941 29.9892C18.1141 29.7759 18.0021 29.5945 17.8581 29.4452C17.7194 29.2905 17.5488 29.1705 17.3461 29.0852C17.1488 28.9945 16.9301 28.9492 16.6901 28.9492C16.4501 28.9492 16.2314 28.9945 16.0341 29.0852C15.8368 29.1705 15.6661 29.2905 15.5221 29.4452C15.3781 29.5945 15.2661 29.7759 15.1861 29.9892C15.1114 30.2025 15.0741 30.4319 15.0741 30.6772C15.0741 30.9332 15.1141 31.1705 15.1941 31.3892C15.2741 31.6025 15.3834 31.7865 15.5221 31.9412C15.6661 32.0959 15.8368 32.2185 16.0341 32.3092C16.2314 32.3945 16.4501 32.4372 16.6901 32.4372C16.9301 32.4372 17.1488 32.3945 17.3461 32.3092C17.5434 32.2185 17.7141 32.0959 17.8581 31.9412C18.0021 31.7865 18.1141 31.6025 18.1941 31.3892C18.2741 31.1705 18.3141 30.9332 18.3141 30.6772ZM24.2788 33.5332L21.9988 29.8292H21.9748L22.0068 33.5332H20.6788V27.8692H22.2388L24.5108 31.5652H24.5348L24.5028 27.8692H25.8308V33.5332H24.2788ZM29.9911 29.3412C29.8738 29.1919 29.7191 29.0745 29.5271 28.9892C29.3404 28.8985 29.1591 28.8532 28.9831 28.8532C28.8924 28.8532 28.7991 28.8612 28.7031 28.8772C28.6124 28.8932 28.5298 28.9252 28.4551 28.9732C28.3804 29.0159 28.3164 29.0745 28.2631 29.1492C28.2151 29.2185 28.1911 29.3092 28.1911 29.4212C28.1911 29.5172 28.2098 29.5972 28.2471 29.6612C28.2898 29.7252 28.3484 29.7812 28.4231 29.8292C28.5031 29.8772 28.5964 29.9225 28.7031 29.9652C28.8098 30.0025 28.9298 30.0425 29.0631 30.0852C29.2551 30.1492 29.4551 30.2212 29.6631 30.3012C29.8711 30.3759 30.0604 30.4772 30.2311 30.6052C30.4018 30.7332 30.5431 30.8932 30.6551 31.0852C30.7671 31.2719 30.8231 31.5065 30.8231 31.7892C30.8231 32.1145 30.7618 32.3972 30.6391 32.6372C30.5218 32.8719 30.3618 33.0665 30.1591 33.2212C29.9564 33.3759 29.7244 33.4905 29.4631 33.5652C29.2018 33.6399 28.9324 33.6772 28.6551 33.6772C28.2498 33.6772 27.8578 33.6079 27.4791 33.4692C27.1004 33.3252 26.7858 33.1225 26.5351 32.8612L27.4311 31.9492C27.5698 32.1199 27.7511 32.2639 27.9751 32.3812C28.2044 32.4932 28.4311 32.5492 28.6551 32.5492C28.7564 32.5492 28.8551 32.5385 28.9511 32.5172C29.0471 32.4959 29.1298 32.4612 29.1991 32.4132C29.2738 32.3652 29.3324 32.3012 29.3751 32.2212C29.4178 32.1412 29.4391 32.0452 29.4391 31.9332C29.4391 31.8265 29.4124 31.7359 29.3591 31.6612C29.3058 31.5865 29.2284 31.5199 29.1271 31.4612C29.0311 31.3972 28.9084 31.3412 28.7591 31.2932C28.6151 31.2399 28.4498 31.1839 28.2631 31.1252C28.0818 31.0665 27.9031 30.9972 27.7271 30.9172C27.5564 30.8372 27.4018 30.7359 27.2631 30.6132C27.1298 30.4852 27.0204 30.3332 26.9351 30.1572C26.8551 29.9759 26.8151 29.7572 26.8151 29.5012C26.8151 29.1865 26.8791 28.9172 27.0071 28.6932C27.1351 28.4692 27.3031 28.2852 27.5111 28.1412C27.7191 27.9972 27.9538 27.8932 28.2151 27.8292C28.4764 27.7599 28.7404 27.7252 29.0071 27.7252C29.3271 27.7252 29.6524 27.7839 29.9831 27.9012C30.3191 28.0185 30.6124 28.1919 30.8631 28.4212L29.9911 29.3412Z" fill="white"/>
<mask id="path-3-inside-1_401_13198" fill="white">
<path d="M21.0587 6.70557C22.611 6.70557 23.8702 7.9638 23.8702 9.51611V17.9478C23.8702 19.5001 22.611 20.7593 21.0587 20.7593H16.8428C18.3952 20.7593 19.6534 19.5001 19.6534 17.9478V9.51611C19.6534 7.9638 18.3952 6.70557 16.8428 6.70557H21.0587Z"/>
</mask>
<path d="M21.0587 6.70557V8.11092C21.8354 8.11092 22.4648 8.74059 22.4648 9.51611H23.8702H25.2755C25.2755 7.187 23.3865 5.30021 21.0587 5.30021V6.70557ZM23.8702 9.51611H22.4648V17.9478H23.8702H25.2755V9.51611H23.8702ZM23.8702 17.9478H22.4648C22.4648 18.7239 21.8348 19.3539 21.0587 19.3539V20.7593V22.1646C23.3871 22.1646 25.2755 20.2762 25.2755 17.9478H23.8702ZM21.0587 20.7593V19.3539H16.8428V20.7593V22.1646H21.0587V20.7593ZM16.8428 20.7593V22.1646C19.1719 22.1646 21.0587 20.2756 21.0587 17.9478H19.6534H18.248C18.248 18.7245 17.6184 19.3539 16.8428 19.3539V20.7593ZM19.6534 17.9478H21.0587V9.51611H19.6534H18.248V17.9478H19.6534ZM19.6534 9.51611H21.0587C21.0587 7.18764 19.1713 5.30021 16.8428 5.30021V6.70557V8.11092C17.619 8.11092 18.248 8.73996 18.248 9.51611H19.6534ZM16.8428 6.70557V8.11092H21.0587V6.70557V5.30021H16.8428V6.70557Z" fill="white" mask="url(#path-3-inside-1_401_13198)"/>
<path d="M18.2484 6.70557C19.8006 6.70569 21.0589 7.96387 21.0589 9.51611V17.9478C21.0589 19.5 19.8006 20.7592 18.2484 20.7593H8.41046C6.85822 20.7592 5.59991 19.5 5.59991 17.9478V9.51611C5.59991 7.96385 6.85822 6.70565 8.41046 6.70557H18.2484ZM9.80206 12.186C8.89396 12.186 8.15753 12.9225 8.15753 13.8306C8.15754 14.7387 8.89396 15.4751 9.80206 15.4751C10.7101 15.475 11.4466 14.7386 11.4466 13.8306C11.4466 12.9225 10.7101 12.1861 9.80206 12.186Z" fill="white"/>
</svg>
