<svg width="40" height="40" viewBox="0 0 40 40" fill="none" xmlns="http://www.w3.org/2000/svg">
<g clip-path="url(#clip0_401_13202)">
<path d="M31.3349 4.98389H8.66516C6.63215 4.98389 4.98407 6.63197 4.98407 8.66498V31.3347C4.98407 33.3677 6.63215 35.0158 8.66516 35.0158H31.3349C33.3679 35.0158 35.016 33.3677 35.016 31.3347V8.66498C35.016 6.63197 33.3679 4.98389 31.3349 4.98389Z" fill="white" stroke="#779BE7" stroke-width="1.96811"/>
<path d="M12.2369 8.95654H18.1412" stroke="#49B6FF" stroke-width="1.0205" stroke-linecap="round"/>
<path d="M17.0479 11.2163H22.9522" stroke="#49B6FF" stroke-width="1.0205" stroke-linecap="round"/>
<path d="M11.508 29.0024H22.4055" stroke="#49B6FF" stroke-width="1.0205" stroke-linecap="round"/>
<path d="M16.6105 30.9702H27.508" stroke="#49B6FF" stroke-width="1.0205" stroke-linecap="round"/>
<path d="M24.8474 29.0024H26.4874" stroke="#49B6FF" stroke-width="1.0205" stroke-linecap="round"/>
<path d="M20.0364 8.95654H23.754" stroke="#49B6FF" stroke-width="1.0205" stroke-linecap="round"/>
<path d="M24.8474 11.2163H28.5649" stroke="#49B6FF" stroke-width="1.0205" stroke-linecap="round"/>
<path d="M26.9659 21.6883C27.9249 17.8412 25.5835 13.9445 21.7364 12.9854C17.89 12.0263 13.9932 14.3678 13.0343 18.215C12.0746 22.0616 14.4162 25.9579 18.2623 26.9171C22.1099 27.8763 26.0064 25.5351 26.9659 21.6883Z" fill="white" stroke="#FBB13C" stroke-width="0.29309"/>
<path d="M23.1005 18.9493C23.2405 18.0132 22.5277 17.5102 21.5532 17.1745L21.8692 15.9066L21.0975 15.7142L20.7896 16.9487C20.5866 16.8981 20.3784 16.8504 20.1711 16.8032L20.4809 15.5605L19.7097 15.3682L19.3933 16.6358C19.2254 16.5976 19.0605 16.5599 18.9004 16.52L18.9012 16.5161L17.8369 16.2504L17.6316 17.0747C17.6316 17.0747 18.2041 17.2059 18.192 17.214C18.5047 17.2921 18.561 17.4989 18.5516 17.6628L18.1916 19.1073C18.2131 19.1129 18.2409 19.1206 18.2718 19.1331C18.246 19.1267 18.2186 19.1197 18.1903 19.1129L17.6856 21.1362C17.6474 21.2312 17.5504 21.3737 17.3319 21.3196C17.3396 21.3307 16.7706 21.1796 16.7706 21.1796L16.3876 22.0628L17.392 22.3133C17.5786 22.3601 17.762 22.4089 17.9422 22.4552L17.623 23.7377L18.3939 23.93L18.7102 22.6612C18.921 22.7183 19.1254 22.7711 19.3255 22.8209L19.0103 24.0837L19.7821 24.276L20.1016 22.996C21.4178 23.245 22.4076 23.1445 22.824 21.9543C23.1598 20.9959 22.8074 20.443 22.1149 20.0824C22.6191 19.9662 22.9992 19.6344 23.1005 18.9493ZM21.3371 21.4221C21.0984 22.3806 19.4849 21.8625 18.9613 21.7324L19.3852 20.0336C19.9084 20.164 21.5863 20.4225 21.3371 21.4221ZM21.5756 18.9355C21.3581 19.8074 20.0149 19.3644 19.5791 19.2557L19.9633 17.7148C20.3989 17.8235 21.8023 18.0262 21.5756 18.9355Z" fill="white" stroke="#FBB13C" stroke-width="0.29309"/>
<path d="M25.8679 27.0342H30.533" stroke="#49B6FF" stroke-width="1.0205" stroke-linecap="round"/>
<path d="M8.30066 27.0342H14.4237" stroke="#49B6FF" stroke-width="1.0205" stroke-linecap="round"/>
<path d="M8.30066 24.9204H10.9613" stroke="#49B6FF" stroke-width="1.0205" stroke-linecap="round"/>
<path d="M29.6583 24.9204H32.3189" stroke="#49B6FF" stroke-width="1.0205" stroke-linecap="round"/>
<path d="M28.3463 23.1709H31.0068" stroke="#49B6FF" stroke-width="1.0205" stroke-linecap="round"/>
<path d="M29.9499 20.6924H31.8816" stroke="#49B6FF" stroke-width="1.0205" stroke-linecap="round"/>
<path d="M8.30066 20.6924H10.2323" stroke="#49B6FF" stroke-width="1.0205" stroke-linecap="round"/>
<path d="M8.95673 16.5376H10.8884" stroke="#49B6FF" stroke-width="1.0205" stroke-linecap="round"/>
<path d="M28.5649 16.5376H32.0274" stroke="#49B6FF" stroke-width="1.0205" stroke-linecap="round"/>
<path d="M26.451 14.1323H28.6743" stroke="#49B6FF" stroke-width="1.0205" stroke-linecap="round"/>
<path d="M7.79041 14.1323H10.0136" stroke="#49B6FF" stroke-width="1.0205" stroke-linecap="round"/>
<path d="M7.79041 12.3828H14.1685" stroke="#49B6FF" stroke-width="1.0205" stroke-linecap="round"/>
<path d="M29.9499 14.1323H30.7882" stroke="#49B6FF" stroke-width="1.0205" stroke-linecap="round"/>
<path d="M8.30066 18.5786H8.8838" stroke="#49B6FF" stroke-width="1.0205" stroke-linecap="round"/>
<path d="M9.32117 23.1709H10.5239" stroke="#49B6FF" stroke-width="1.0205" stroke-linecap="round"/>
<path d="M8.81094 10.1231C9.45506 10.1231 9.97723 9.60094 9.97723 8.95681C9.97723 8.31269 9.45506 7.79053 8.81094 7.79053C8.16682 7.79053 7.64465 8.31269 7.64465 8.95681C7.64465 9.60094 8.16682 10.1231 8.81094 10.1231Z" stroke="#49B6FF" stroke-width="1.0205"/>
<path d="M8.81094 32.1368C9.45506 32.1368 9.97723 31.6146 9.97723 30.9705C9.97723 30.3264 9.45506 29.8042 8.81094 29.8042C8.16682 29.8042 7.64465 30.3264 7.64465 30.9705C7.64465 31.6146 8.16682 32.1368 8.81094 32.1368Z" stroke="#49B6FF" stroke-width="1.0205"/>
<path d="M31.1891 10.1231C31.8332 10.1231 32.3553 9.60094 32.3553 8.95681C32.3553 8.31269 31.8332 7.79053 31.1891 7.79053C30.5449 7.79053 30.0228 8.31269 30.0228 8.95681C30.0228 9.60094 30.5449 10.1231 31.1891 10.1231Z" stroke="#49B6FF" stroke-width="1.0205"/>
<path d="M31.1891 32.1368C31.8332 32.1368 32.3553 31.6146 32.3553 30.9705C32.3553 30.3264 31.8332 29.8042 31.1891 29.8042C30.5449 29.8042 30.0228 30.3264 30.0228 30.9705C30.0228 31.6146 30.5449 32.1368 31.1891 32.1368Z" stroke="#49B6FF" stroke-width="1.0205"/>
</g>
<defs>
<clipPath id="clip0_401_13202">
<rect width="32" height="32" fill="white" transform="translate(4 4)"/>
</clipPath>
</defs>
</svg>
