<svg width="40" height="40" viewBox="0 0 40 40" fill="none" xmlns="http://www.w3.org/2000/svg">
<path d="M37.2635 39.5508H2.9696V32.0889C2.96982 26.423 9.73336 23.5997 13.7352 27.6016L19.7987 33.6641L20.1161 33.9824L37.2635 16.835V39.5508Z" stroke="#201B21" stroke-width="0.9"/>
<path d="M37.2635 0.450195V7.91113C37.2635 13.577 30.4999 16.4007 26.4979 12.3994L20.1161 6.01758L19.7987 6.33594L2.9696 23.165V0.450195H37.2635Z" stroke="#201B21" stroke-width="0.9"/>
<path d="M24.2019 18.0906C24.1028 16.8288 23.0227 16.3875 21.6519 16.2433L21.6824 14.4959L20.6188 14.4775L20.5892 16.1788C20.3096 16.1739 20.0237 16.1745 19.7396 16.1752L19.7697 14.4626L18.7067 14.444L18.6758 16.1909C18.4454 16.1915 18.2192 16.1919 17.9987 16.1882L17.9987 16.1828L16.5317 16.1566L16.5122 17.2926C16.5122 17.2926 17.2979 17.2913 17.2846 17.3056C17.7154 17.3132 17.8512 17.5658 17.8882 17.7823L17.8536 19.7729C17.8833 19.7736 17.9221 19.7755 17.9659 19.7823C17.9304 19.7817 17.8925 19.7808 17.8535 19.7804L17.8046 22.569C17.7833 22.7043 17.6998 22.9191 17.3988 22.9143C17.4122 22.9266 16.6257 22.9006 16.6257 22.9006L16.3922 24.1671L17.7763 24.1912C18.0339 24.1961 18.2872 24.2048 18.536 24.2108L18.5056 25.978L19.568 25.9967L19.5985 24.2482C19.8901 24.2593 20.1724 24.2665 20.448 24.2711L20.4172 26.0116L21.4808 26.03L21.5119 24.2659C23.3018 24.1946 24.5611 23.7659 24.7459 22.0895C24.8949 20.7396 24.2694 20.1252 23.2587 19.8637C23.8808 19.5605 24.276 19.014 24.2019 18.0906ZM22.6479 21.8434C22.6255 23.1641 20.3668 22.9744 19.646 22.9625L19.6871 20.621C20.4081 20.6338 22.6721 20.4659 22.6479 21.8434ZM22.2109 18.5313C22.1896 19.7328 20.3062 19.5597 19.7058 19.5492L19.7429 17.4256C20.3433 17.4361 22.2327 17.278 22.2109 18.5313Z" fill="#201B21"/>
</svg>
