<svg width="40" height="40" viewBox="0 0 40 40" fill="none" xmlns="http://www.w3.org/2000/svg">
<rect width="40" height="40" fill="#020D1E"/>
<path d="M26.6 26.6002C26.6 28.5884 24.9882 30.2002 23 30.2002C21.0118 30.2002 19.4 28.5884 19.4 26.6002C19.4 24.612 21.0118 23.0002 23 23.0002C24.9882 23.0002 26.6 24.612 26.6 26.6002Z" fill="#00E4AF"/>
<path d="M26.6 20.6002C26.6 22.5884 24.9882 24.2002 23 24.2002C21.0118 24.2002 19.4 22.5884 19.4 20.6002C19.4 18.612 21.0118 17.0002 23 17.0002C24.9882 17.0002 26.6 18.612 26.6 20.6002Z" fill="#00E4AF"/>
<path d="M20.6 26.6002C20.6 28.5884 18.9882 30.2002 17 30.2002C15.0118 30.2002 13.4 28.5884 13.4 26.6002C13.4 24.612 15.0118 23.0002 17 23.0002C18.9882 23.0002 20.6 24.612 20.6 26.6002Z" fill="#00E4AF"/>
<path d="M20.6 20.6002C20.6 22.5884 18.9882 24.2002 17 24.2002C15.0118 24.2002 13.4 22.5884 13.4 20.6002C13.4 18.612 15.0118 17.0002 17 17.0002C18.9882 17.0002 20.6 18.612 20.6 20.6002Z" fill="#00E4AF"/>
<path d="M20.6 13.8002C20.6 15.7884 18.9882 17.4002 17 17.4002C15.0118 17.4002 13.4 15.7884 13.4 13.8002C13.4 11.812 15.0118 10.2002 17 10.2002C18.9882 10.2002 20.6 11.812 20.6 13.8002Z" fill="#00E4AF"/>
</svg>
