<svg width="40" height="40" viewBox="0 0 40 40" fill="none" xmlns="http://www.w3.org/2000/svg">
<g clip-path="url(#clip0_401_13196)">
<path d="M40 20C40 8.9543 31.0457 0 20 0C8.9543 0 0 8.9543 0 20C0 31.0457 8.9543 40 20 40C31.0457 40 40 31.0457 40 20Z" fill="black"/>
<path d="M23.9453 4.16641C23.9305 4.1625 23.9156 4.15859 23.9008 4.15469C22.5828 3.82813 21.2648 3.67188 19.9656 3.67188H19.9594C12.6461 3.675 5.99457 8.63437 4.15472 16.0531C1.98832 24.7922 7.31566 33.6328 16.0531 35.7992C17.3711 36.1258 18.6898 36.282 19.9898 36.282C27.3055 36.282 33.9594 31.3211 35.7992 23.9008C37.9625 15.1805 32.6602 6.35391 23.9453 4.16641ZM34.5195 23.5844C32.8578 30.2844 26.8828 34.9641 19.9898 34.9641C18.7773 34.9641 17.5594 34.8148 16.3711 34.5195C12.4867 33.5563 9.21015 31.1383 7.14457 27.7102C5.07894 24.282 4.47191 20.2555 5.43519 16.3711C7.09613 9.67266 13.0781 4.99375 19.9695 4.99063C21.1797 4.99063 22.3961 5.14062 23.5937 5.4375L23.6086 5.44141L23.6242 5.44531C31.6156 7.45078 36.5031 15.5875 34.5195 23.5844Z" fill="url(#paint0_linear_401_13196)"/>
<path d="M23.3758 17.7945C22.9078 19.6672 20.0523 18.707 19.125 18.4781L19.9437 15.2016C20.8562 15.4266 23.8437 15.857 23.3609 17.7945H23.3758ZM22.8656 23.0898C22.3601 25.1305 18.9242 24.0266 17.8101 23.7492L18.7133 20.1305C19.8273 20.4117 23.3945 20.9594 22.8656 23.0898ZM26.6101 17.8227C26.9055 15.8281 25.3883 14.7562 23.3336 14.0453L24.0078 11.3445L22.3461 10.9328L21.6906 13.5641C21.2602 13.4562 20.8156 13.3531 20.375 13.2547L21.0305 10.5953L19.3875 10.1836L18.7133 12.8844L17.6648 12.6508L15.3945 12.0844L14.9594 13.8398C14.9594 13.8398 16.0937 14.1172 16.1531 14.1398C16.5203 14.2141 16.957 14.6094 16.9211 15.0766L15.0766 22.4734C14.9758 22.7891 14.6391 22.9625 14.3234 22.8617C14.2883 22.8523 13.125 22.5664 13.125 22.5664L12.3102 24.4391L14.4492 24.968L15.6195 25.2727L14.9406 28.0016L16.5836 28.4133L17.2578 25.7125C17.7008 25.8344 18.1367 25.9461 18.5641 26.0492L17.8992 28.7602L19.5422 29.1672L20.2211 26.443C23.0297 26.9727 25.132 26.7609 26.0211 24.2242C26.7375 22.1828 25.9836 21.0078 24.5094 20.2398C25.5859 19.9914 26.382 19.3031 26.6109 17.8242L26.6101 17.8227Z" fill="white"/>
</g>
<defs>
<linearGradient id="paint0_linear_401_13196" x1="9.92195" y1="32.8132" x2="30.0326" y2="7.142" gradientUnits="userSpaceOnUse">
<stop stop-color="#F6AF1B"/>
<stop offset="1" stop-color="#E75924"/>
</linearGradient>
<clipPath id="clip0_401_13196">
<rect width="40" height="40" fill="white"/>
</clipPath>
</defs>
</svg>
