<svg width="40" height="42" viewBox="0 0 40 42" fill="none" xmlns="http://www.w3.org/2000/svg">
<path d="M32.2973 12.0319C33.1087 13.1694 33.761 14.4104 34.2463 15.723L35.9805 15.1582C35.4316 13.6547 34.6759 12.2307 33.7451 10.9341L32.2973 12.0319Z" fill="#00C3FF"/>
<path d="M20.4363 3.83029C19.9749 3.81438 19.5055 3.81438 19.0441 3.83029L19.1714 5.64403C19.8714 5.62017 20.5715 5.63608 21.2636 5.69972C21.9557 5.76336 22.6477 5.87473 23.3319 6.03383L23.7933 4.27577C23.0137 4.09281 22.2261 3.96553 21.4306 3.89393C21.1045 3.86211 20.7624 3.83825 20.4363 3.83029Z" fill="#00C3FF"/>
<path d="M3.45244 28.9922C2.72854 27.5126 2.20351 25.9454 1.90122 24.3306L-3.05176e-05 24.6329C0.33408 26.4625 0.922752 28.2365 1.75007 29.8991L3.45244 28.9922Z" fill="#00C3FF"/>
<path d="M2.47403 10.7036L4.16049 11.6423C5.00372 10.2263 6.02992 8.93763 7.22317 7.80007L5.93446 6.36816C4.58211 7.64892 3.42068 9.10469 2.47403 10.7036Z" fill="#00C3FF"/>
<path d="M0.0874634 16.9014L1.98076 17.2355C2.31487 15.6206 2.87171 14.0614 3.62744 12.5977L1.94098 11.667C1.08184 13.3216 0.461349 15.0797 0.0874634 16.9014Z" fill="#00C3FF"/>
<path d="M12.4256 2.20696L13.1813 3.97298C14.7166 3.3684 16.3236 2.9786 17.9623 2.8195L17.827 0.902344C15.9735 1.07735 14.1598 1.51488 12.4256 2.20696Z" fill="#00C3FF"/>
<path d="M6.7457 5.62829L8.03441 7.06019C9.2913 5.99422 10.6834 5.10326 12.179 4.40322L11.4232 2.63721C9.72882 3.40884 8.15373 4.41913 6.7457 5.62829Z" fill="#00C3FF"/>
<path d="M35.2724 33.9336L33.7689 32.7324C32.7029 33.9893 31.4699 35.0951 30.1096 36.0258L31.1437 37.6566C32.687 36.6145 34.0791 35.3655 35.2724 33.9336Z" fill="#00C3FF"/>
<path d="M11.837 37.3602C10.3573 36.6363 8.98112 35.7135 7.74809 34.6157L6.43552 36.0238C7.81969 37.2647 9.37887 38.2989 11.0494 39.1103L11.837 37.3602Z" fill="#00C3FF"/>
<path d="M39.9101 22.845C40.1568 20.2516 39.8942 17.6344 39.1385 15.1445L37.3089 15.7491C38.3589 19.2811 38.3191 23.0439 37.2054 26.552L39.0192 27.1964C39.4726 25.7883 39.7749 24.3246 39.9101 22.845Z" fill="#00C3FF"/>
<path d="M28.6778 35.6514L27.7073 34.124C26.5061 34.84 25.2174 35.3968 23.8651 35.7707L24.2946 37.5367C25.8379 37.1072 27.3096 36.4787 28.6778 35.6514Z" fill="#00C3FF"/>
<path d="M4.83652 22.8911C4.70128 21.7615 4.68537 20.6159 4.79674 19.4784C4.82061 19.1999 4.85243 18.9613 4.8922 18.7147L3.10233 18.3965C3.06255 18.6988 3.02277 19.0011 2.99095 19.3113C2.87163 20.5921 2.88754 21.8887 3.04664 23.1695L4.83652 22.8911Z" fill="#00C3FF"/>
<path d="M25.0184 3.47343C26.6014 3.93482 28.1129 4.61895 29.505 5.494L30.5789 3.88709C29.0039 2.89271 27.3015 2.12903 25.5116 1.604L25.0184 3.47343Z" fill="#00C3FF"/>
<path d="M17.1907 40.9507L17.3737 39.0335C15.8225 38.8267 14.3031 38.413 12.8552 37.8164L12.0518 39.5824C13.6905 40.2586 15.4247 40.72 17.1907 40.9507Z" fill="#00C3FF"/>
<path d="M7.76403 33.1438L9.01297 31.8232C8.02655 30.8289 7.17536 29.7152 6.48328 28.498L4.86841 29.3492C5.65595 30.7334 6.63442 32.0142 7.76403 33.1438Z" fill="#00C3FF"/>
<path d="M31.4858 4.50879L30.4039 6.1157C31.7483 7.0703 32.9495 8.20787 33.9916 9.48862L35.5349 8.31128C34.3655 6.85552 33.0052 5.58272 31.4858 4.50879Z" fill="#00C3FF"/>
<path d="M33.3314 31.1971C34.286 29.9164 35.0655 28.5163 35.6463 27.0207L33.9359 26.4082C33.4268 27.7128 32.7427 28.9459 31.9074 30.0675L33.3314 31.1971Z" fill="#00C3FF"/>
<path d="M34.7553 16.5913L33.0371 17.1641C33.5144 18.8108 33.6735 20.537 33.5144 22.2394C33.4268 23.186 33.2439 24.1247 32.9655 25.0395L34.6758 25.6441C35.0019 24.594 35.2247 23.5042 35.3281 22.4064C35.5111 20.4495 35.3122 18.4766 34.7553 16.5913Z" fill="#7EE0FF"/>
<path d="M17.6204 36.352L17.7874 34.5462C16.7294 34.3871 15.6873 34.1087 14.6929 33.7109L13.9452 35.3576C15.1225 35.8349 16.3555 36.169 17.6204 36.352Z" fill="#7EE0FF"/>
<path d="M30.0778 17.1157L31.7007 16.5668C31.3109 15.5406 30.7938 14.5621 30.1574 13.6553L28.7971 14.6894C29.3221 15.4452 29.7517 16.2566 30.0778 17.1157Z" fill="#7EE0FF"/>
<path d="M20.2614 8.32568H19.3704L19.4897 10.0281C20.4046 10.0042 21.3114 10.0837 22.2104 10.2826L22.6479 8.63593C22.1069 8.5166 21.566 8.4291 21.0171 8.38137C20.7705 8.3575 20.5159 8.34159 20.2614 8.32568Z" fill="#7EE0FF"/>
<path d="M6.50714 12.9457L8.09814 13.8287C8.69477 12.8423 9.41072 11.9434 10.238 11.1399L9.01297 9.7876C8.04246 10.7263 7.19923 11.7843 6.50714 12.9457Z" fill="#7EE0FF"/>
<path d="M23.8729 7.8336C24.9707 8.16771 26.0287 8.64501 27.0071 9.24164L28.0174 7.73018C26.8719 7.02219 25.6309 6.47329 24.3422 6.0835L23.8729 7.8336Z" fill="#7EE0FF"/>
<path d="M30.404 12.2074L31.8438 11.1097C30.9927 10.0596 29.9983 9.12885 28.9084 8.34131L27.8982 9.85276C28.8369 10.5289 29.6721 11.3165 30.404 12.2074Z" fill="#7EE0FF"/>
<path d="M28.463 27.3289L29.7995 28.3949C30.4518 27.5039 30.9848 26.5413 31.3984 25.5151L29.7915 24.9424C29.4415 25.7856 28.996 26.5891 28.463 27.3289Z" fill="#7EE0FF"/>
<path d="M10.8345 31.3481L9.59357 32.6687C10.6118 33.5596 11.7335 34.3154 12.9506 34.912L13.6984 33.2653C12.6642 32.7562 11.7016 32.1039 10.8345 31.3481Z" fill="#7EE0FF"/>
<path d="M9.18801 22.2071C9.10846 21.4355 9.1005 20.6559 9.1721 19.8843C9.18801 19.749 9.20392 19.6058 9.21983 19.4786L7.54132 19.1763C7.51746 19.3592 7.49359 19.5422 7.47768 19.7252C7.39018 20.64 7.40609 21.5548 7.50155 22.4696L9.18801 22.2071Z" fill="#7EE0FF"/>
<path d="M6.35603 23.6245L4.5582 23.9029C4.81276 25.2314 5.24233 26.5281 5.831 27.7452L7.43791 26.894C6.93675 25.8519 6.57877 24.7541 6.35603 23.6245Z" fill="#7EE0FF"/>
<path d="M27.6833 32.2398L28.6617 33.7671C29.7754 33.0035 30.7857 32.0966 31.6608 31.0783L30.2368 29.9487C29.489 30.8158 28.6299 31.5875 27.6833 32.2398Z" fill="#7EE0FF"/>
<path d="M7.56525 14.7837L5.9822 13.9087C5.36171 15.1099 4.90828 16.3907 4.62985 17.7112L6.41973 18.0294C6.65838 16.8998 7.04022 15.8099 7.56525 14.7837Z" fill="#7EE0FF"/>
<path d="M22.8228 31.4906L23.2206 33.1373C24.2786 32.835 25.2969 32.4054 26.2515 31.8486L25.3287 30.4087C24.5411 30.8621 23.6979 31.2281 22.8228 31.4906Z" fill="#7EE0FF"/>
<path d="M10.3652 26.4473L8.85376 27.2348C9.40266 28.1894 10.0788 29.0645 10.8505 29.852L12.0278 28.6031C11.3914 27.9508 10.8346 27.2269 10.3652 26.4473Z" fill="#7EE0FF"/>
<path d="M19.3305 34.687C19.1794 34.687 19.0283 34.6711 18.8771 34.6552L18.7101 36.4609C20.134 36.5644 21.5659 36.4689 22.958 36.1825L22.5364 34.4165C21.4864 34.6392 20.4045 34.7267 19.3305 34.687Z" fill="#7EE0FF"/>
<path d="M9.83237 9.05858L11.0495 10.403C11.9325 9.66316 12.903 9.04267 13.9451 8.54946L13.2292 6.87891C12.0041 7.45167 10.8665 8.18353 9.83237 9.05858Z" fill="#7EE0FF"/>
<path d="M14.2393 6.44986L14.9552 8.12041C16.0292 7.70675 17.1508 7.42833 18.2963 7.30105L18.1611 5.4873C16.8167 5.63845 15.4962 5.95665 14.2393 6.44986Z" fill="#7EE0FF"/>
<path d="M18.8215 41.0855C20.5319 41.1412 22.2422 40.998 23.9287 40.6719L23.5309 38.8184C22.0751 39.1206 20.5876 39.24 19.092 39.1843C18.8534 39.1843 18.6783 39.1525 18.4397 39.1366L18.2726 41.0776C18.4556 41.0855 18.6386 41.0855 18.8215 41.0776V41.0855Z" fill="#00C3FF"/>
</svg>
