<svg width="168" height="41" viewBox="0 0 168 41" fill="none" xmlns="http://www.w3.org/2000/svg">
<mask id="path-1-outside-1_401_13209" maskUnits="userSpaceOnUse" x="0.332275" y="0.228516" width="80" height="40" fill="black">
<rect fill="white" x="0.332275" y="0.228516" width="80" height="40"/>
<path d="M22.5629 24.8154C22.5629 25.7787 22.383 26.6086 22.0232 27.305C21.675 28.0014 21.2049 28.5934 20.613 29.0809C20.021 29.5683 19.3362 29.9688 18.5586 30.2822C17.7925 30.5839 16.9917 30.8219 16.156 30.996C15.3203 31.1701 14.4788 31.2862 13.6315 31.3442C12.7958 31.4022 12.0124 31.4312 11.2811 31.4312C10.5615 31.4312 9.81286 31.4022 9.03521 31.3442C8.26916 31.2978 7.50311 31.2107 6.73706 31.083C5.97101 30.9554 5.21657 30.7871 4.47373 30.5781C3.7309 30.3576 3.02868 30.0849 2.3671 29.7599L2.33228 7.33551C2.98226 7.06856 3.67286 6.83062 4.40409 6.62169C5.13532 6.40117 5.87815 6.22126 6.6326 6.08198C7.39865 5.93109 8.15889 5.82083 8.91333 5.75118C9.66778 5.66994 10.399 5.62931 11.107 5.62931C11.9311 5.62931 12.761 5.68154 13.5967 5.786C14.444 5.89047 15.2565 6.06457 16.0341 6.30831C16.8118 6.55205 17.5372 6.87124 18.2104 7.26587C18.8836 7.6489 19.4697 8.12478 19.9688 8.69351C20.4795 9.26224 20.8741 9.92383 21.1527 10.6783C21.4429 11.4327 21.588 12.3032 21.588 13.2898C21.588 13.9398 21.4951 14.5491 21.3094 15.1179C21.1237 15.6866 20.8567 16.1973 20.5085 16.65C20.1603 17.1026 19.7367 17.4915 19.2376 17.8165C18.7385 18.1298 18.1756 18.362 17.5488 18.5129C18.3032 18.7102 18.988 19.0004 19.6032 19.3834C20.23 19.7664 20.7581 20.2307 21.1875 20.7762C21.6286 21.3217 21.9652 21.9369 22.1973 22.6217C22.4411 23.3065 22.5629 24.0377 22.5629 24.8154ZM13.7186 14.8915C13.7186 14.5549 13.6489 14.2706 13.5096 14.0384C13.3703 13.7947 13.1962 13.5974 12.9873 13.4465C12.79 13.2956 12.5695 13.1853 12.3257 13.1157C12.0936 13.0461 11.8847 13.0112 11.699 13.0112C11.4668 13.0112 11.2405 13.0461 11.02 13.1157C10.7994 13.1853 10.5847 13.2666 10.3758 13.3594L10.2713 17.2245C10.5383 17.2245 10.8691 17.2013 11.2637 17.1549C11.6583 17.1084 12.0356 17.0098 12.3954 16.8589C12.7668 16.6964 13.0802 16.4643 13.3355 16.1625C13.5909 15.8491 13.7186 15.4255 13.7186 14.8915ZM11.2463 20.5673C10.9097 20.5673 10.5847 20.6021 10.2713 20.6717L10.2017 24.6413C10.3758 24.6761 10.5441 24.7109 10.7066 24.7457C10.8807 24.7689 11.049 24.7805 11.2115 24.7805C11.4552 24.7805 11.7222 24.7573 12.0124 24.7109C12.3025 24.6529 12.5753 24.5484 12.8306 24.3975C13.086 24.235 13.2949 24.0203 13.4574 23.7533C13.6315 23.4864 13.7186 23.1324 13.7186 22.6913C13.7186 22.2503 13.6315 21.8904 13.4574 21.6119C13.2949 21.3333 13.0918 21.1186 12.848 20.9677C12.6043 20.8052 12.3373 20.7007 12.0472 20.6543C11.757 20.5963 11.49 20.5673 11.2463 20.5673Z"/>
<path d="M44.6043 17.6772C44.6043 17.7951 44.6027 17.9126 44.5997 18.0296C44.5937 18.2606 44.5818 18.49 44.564 18.7177C44.5099 19.4078 44.4015 20.0823 44.2386 20.7414C43.9949 21.7163 43.6409 22.6333 43.1766 23.4922C42.724 24.3511 42.1668 25.1404 41.5052 25.86C40.8553 26.568 40.1182 27.1773 39.2941 27.688C38.4817 28.1987 37.5938 28.5992 36.6304 28.8893C35.667 29.1679 34.6456 29.3072 33.5662 29.3072C32.5216 29.3072 31.5234 29.1737 30.5716 28.9068C29.6315 28.6398 28.7494 28.2684 27.9253 27.7925C27.1012 27.305 26.3526 26.7247 25.6794 26.0515C25.0178 25.3667 24.449 24.6122 23.9732 23.7882C23.5089 22.9525 23.1433 22.0587 22.8763 21.107C22.621 20.1552 22.4933 19.1628 22.4933 18.1298C22.4933 17.12 22.6152 16.1335 22.8589 15.1701C23.1027 14.1951 23.4509 13.2782 23.9035 12.4193C24.3678 11.5604 24.9249 10.7711 25.5749 10.0515C26.2249 9.33188 26.9503 8.71092 27.7512 8.18861C28.5637 7.66631 29.44 7.26007 30.3801 6.9699C31.3203 6.67973 32.3127 6.53464 33.3573 6.53464C35.0403 6.53464 36.5724 6.7958 37.9536 7.3181C39.3464 7.84041 40.5303 8.58905 41.5052 9.56402C42.4918 10.5274 43.2521 11.6997 43.786 13.0809C44.3315 14.4505 44.6043 15.9826 44.6043 17.6772ZM36.8741 18.1298C36.8741 17.6307 36.7987 17.1491 36.6478 16.6848C36.5085 16.2089 36.2996 15.7911 36.021 15.4313C35.7425 15.0598 35.3943 14.7639 34.9764 14.5433C34.5702 14.3112 34.1001 14.1951 33.5662 14.1951C33.0207 14.1951 32.5332 14.2938 32.1037 14.4911C31.6743 14.6884 31.3029 14.9612 30.9895 15.3094C30.6877 15.646 30.4556 16.0464 30.2931 16.5107C30.1306 16.9634 30.0493 17.445 30.0493 17.9557C30.0493 18.4432 30.119 18.9307 30.2583 19.4182C30.3975 19.9057 30.6065 20.3467 30.885 20.7414C31.1636 21.136 31.506 21.4552 31.9122 21.6989C32.3301 21.9427 32.8117 22.0645 33.3573 22.0645C33.9028 22.0645 34.3903 21.9601 34.8197 21.7512C35.2608 21.5306 35.6322 21.2405 35.934 20.8807C36.2358 20.5092 36.4679 20.0856 36.6304 19.6097C36.7929 19.1338 36.8741 18.6405 36.8741 18.1298Z"/>
<path fill-rule="evenodd" clip-rule="evenodd" d="M78.0145 13.8469L78.1886 6.465L59.2114 6.49982L59.0025 14.7174L64.1907 14.4389L64.4234 20.1204L71.4984 19.9051L64.7495 28.0847L64.8523 30.5955L72.1994 30.2125L72.8262 14.0559L78.0145 13.8469ZM44.564 18.7177L44.5997 18.0296C44.5937 18.2606 44.5818 18.49 44.564 18.7177Z"/>
<path d="M45.4225 30.8277L57.0752 29.5425L55.4292 34.1966L54.0591 38.0703L54.4312 38.256L55.8824 36.4972L58.0934 33.8175L58.2714 33.6017L64.6584 25.8606L68.2647 21.4898L64.4842 21.6049L54.3366 21.9137L56.5651 5.19986L46.9082 2.22852L45.4225 30.8277Z"/>
</mask>
<path d="M22.5629 24.8154C22.5629 25.7787 22.383 26.6086 22.0232 27.305C21.675 28.0014 21.2049 28.5934 20.613 29.0809C20.021 29.5683 19.3362 29.9688 18.5586 30.2822C17.7925 30.5839 16.9917 30.8219 16.156 30.996C15.3203 31.1701 14.4788 31.2862 13.6315 31.3442C12.7958 31.4022 12.0124 31.4312 11.2811 31.4312C10.5615 31.4312 9.81286 31.4022 9.03521 31.3442C8.26916 31.2978 7.50311 31.2107 6.73706 31.083C5.97101 30.9554 5.21657 30.7871 4.47373 30.5781C3.7309 30.3576 3.02868 30.0849 2.3671 29.7599L2.33228 7.33551C2.98226 7.06856 3.67286 6.83062 4.40409 6.62169C5.13532 6.40117 5.87815 6.22126 6.6326 6.08198C7.39865 5.93109 8.15889 5.82083 8.91333 5.75118C9.66778 5.66994 10.399 5.62931 11.107 5.62931C11.9311 5.62931 12.761 5.68154 13.5967 5.786C14.444 5.89047 15.2565 6.06457 16.0341 6.30831C16.8118 6.55205 17.5372 6.87124 18.2104 7.26587C18.8836 7.6489 19.4697 8.12478 19.9688 8.69351C20.4795 9.26224 20.8741 9.92383 21.1527 10.6783C21.4429 11.4327 21.588 12.3032 21.588 13.2898C21.588 13.9398 21.4951 14.5491 21.3094 15.1179C21.1237 15.6866 20.8567 16.1973 20.5085 16.65C20.1603 17.1026 19.7367 17.4915 19.2376 17.8165C18.7385 18.1298 18.1756 18.362 17.5488 18.5129C18.3032 18.7102 18.988 19.0004 19.6032 19.3834C20.23 19.7664 20.7581 20.2307 21.1875 20.7762C21.6286 21.3217 21.9652 21.9369 22.1973 22.6217C22.4411 23.3065 22.5629 24.0377 22.5629 24.8154ZM13.7186 14.8915C13.7186 14.5549 13.6489 14.2706 13.5096 14.0384C13.3703 13.7947 13.1962 13.5974 12.9873 13.4465C12.79 13.2956 12.5695 13.1853 12.3257 13.1157C12.0936 13.0461 11.8847 13.0112 11.699 13.0112C11.4668 13.0112 11.2405 13.0461 11.02 13.1157C10.7994 13.1853 10.5847 13.2666 10.3758 13.3594L10.2713 17.2245C10.5383 17.2245 10.8691 17.2013 11.2637 17.1549C11.6583 17.1084 12.0356 17.0098 12.3954 16.8589C12.7668 16.6964 13.0802 16.4643 13.3355 16.1625C13.5909 15.8491 13.7186 15.4255 13.7186 14.8915ZM11.2463 20.5673C10.9097 20.5673 10.5847 20.6021 10.2713 20.6717L10.2017 24.6413C10.3758 24.6761 10.5441 24.7109 10.7066 24.7457C10.8807 24.7689 11.049 24.7805 11.2115 24.7805C11.4552 24.7805 11.7222 24.7573 12.0124 24.7109C12.3025 24.6529 12.5753 24.5484 12.8306 24.3975C13.086 24.235 13.2949 24.0203 13.4574 23.7533C13.6315 23.4864 13.7186 23.1324 13.7186 22.6913C13.7186 22.2503 13.6315 21.8904 13.4574 21.6119C13.2949 21.3333 13.0918 21.1186 12.848 20.9677C12.6043 20.8052 12.3373 20.7007 12.0472 20.6543C11.757 20.5963 11.49 20.5673 11.2463 20.5673Z" fill="#C4C4C4"/>
<path d="M44.6043 17.6772C44.6043 17.7951 44.6027 17.9126 44.5997 18.0296C44.5937 18.2606 44.5818 18.49 44.564 18.7177C44.5099 19.4078 44.4015 20.0823 44.2386 20.7414C43.9949 21.7163 43.6409 22.6333 43.1766 23.4922C42.724 24.3511 42.1668 25.1404 41.5052 25.86C40.8553 26.568 40.1182 27.1773 39.2941 27.688C38.4817 28.1987 37.5938 28.5992 36.6304 28.8893C35.667 29.1679 34.6456 29.3072 33.5662 29.3072C32.5216 29.3072 31.5234 29.1737 30.5716 28.9068C29.6315 28.6398 28.7494 28.2684 27.9253 27.7925C27.1012 27.305 26.3526 26.7247 25.6794 26.0515C25.0178 25.3667 24.449 24.6122 23.9732 23.7882C23.5089 22.9525 23.1433 22.0587 22.8763 21.107C22.621 20.1552 22.4933 19.1628 22.4933 18.1298C22.4933 17.12 22.6152 16.1335 22.8589 15.1701C23.1027 14.1951 23.4509 13.2782 23.9035 12.4193C24.3678 11.5604 24.9249 10.7711 25.5749 10.0515C26.2249 9.33188 26.9503 8.71092 27.7512 8.18861C28.5637 7.66631 29.44 7.26007 30.3801 6.9699C31.3203 6.67973 32.3127 6.53464 33.3573 6.53464C35.0403 6.53464 36.5724 6.7958 37.9536 7.3181C39.3464 7.84041 40.5303 8.58905 41.5052 9.56402C42.4918 10.5274 43.2521 11.6997 43.786 13.0809C44.3315 14.4505 44.6043 15.9826 44.6043 17.6772ZM36.8741 18.1298C36.8741 17.6307 36.7987 17.1491 36.6478 16.6848C36.5085 16.2089 36.2996 15.7911 36.021 15.4313C35.7425 15.0598 35.3943 14.7639 34.9764 14.5433C34.5702 14.3112 34.1001 14.1951 33.5662 14.1951C33.0207 14.1951 32.5332 14.2938 32.1037 14.4911C31.6743 14.6884 31.3029 14.9612 30.9895 15.3094C30.6877 15.646 30.4556 16.0464 30.2931 16.5107C30.1306 16.9634 30.0493 17.445 30.0493 17.9557C30.0493 18.4432 30.119 18.9307 30.2583 19.4182C30.3975 19.9057 30.6065 20.3467 30.885 20.7414C31.1636 21.136 31.506 21.4552 31.9122 21.6989C32.3301 21.9427 32.8117 22.0645 33.3573 22.0645C33.9028 22.0645 34.3903 21.9601 34.8197 21.7512C35.2608 21.5306 35.6322 21.2405 35.934 20.8807C36.2358 20.5092 36.4679 20.0856 36.6304 19.6097C36.7929 19.1338 36.8741 18.6405 36.8741 18.1298Z" fill="#C4C4C4"/>
<path fill-rule="evenodd" clip-rule="evenodd" d="M78.0145 13.8469L78.1886 6.465L59.2114 6.49982L59.0025 14.7174L64.1907 14.4389L64.4234 20.1204L71.4984 19.9051L64.7495 28.0847L64.8523 30.5955L72.1994 30.2125L72.8262 14.0559L78.0145 13.8469ZM44.564 18.7177L44.5997 18.0296C44.5937 18.2606 44.5818 18.49 44.564 18.7177Z" fill="#C4C4C4"/>
<path d="M45.4225 30.8277L57.0752 29.5425L55.4292 34.1966L54.0591 38.0703L54.4312 38.256L55.8824 36.4972L58.0934 33.8175L58.2714 33.6017L64.6584 25.8606L68.2647 21.4898L64.4842 21.6049L54.3366 21.9137L56.5651 5.19986L46.9082 2.22852L45.4225 30.8277Z" fill="#C4C4C4"/>
<path d="M44.5997 18.0296L43.8571 18.0103C43.8515 18.2286 43.8402 18.445 43.8234 18.6597L44.564 18.7177L45.3045 18.7757C45.3234 18.535 45.336 18.2927 45.3423 18.0489L44.5997 18.0296ZM22.0232 27.305L20.7033 26.6231L20.6988 26.6318L20.6944 26.6406L22.0232 27.305ZM18.5586 30.2822L19.1031 31.6645L19.1139 31.6602L18.5586 30.2822ZM13.6315 31.3442L13.53 29.862L13.5286 29.8621L13.6315 31.3442ZM9.03521 31.3442L9.14577 29.8626L9.13543 29.8619L9.12508 29.8612L9.03521 31.3442ZM4.47373 30.5781L4.05091 32.0024L4.06118 32.0054L4.07149 32.0083L4.47373 30.5781ZM2.3671 29.7599L0.881426 29.7622L0.882861 30.686L1.71206 31.0933L2.3671 29.7599ZM2.33228 7.33551L1.76784 5.96124L0.845057 6.34024L0.846606 7.33782L2.33228 7.33551ZM4.40409 6.62169L4.81224 8.0502L4.82267 8.04722L4.83307 8.04409L4.40409 6.62169ZM6.6326 6.08198L6.90232 7.54296L6.91102 7.54135L6.91971 7.53964L6.6326 6.08198ZM8.91333 5.75118L9.04989 7.23057L9.06116 7.22953L9.07241 7.22831L8.91333 5.75118ZM13.5967 5.786L13.4124 7.26021L13.4149 7.26051L13.5967 5.786ZM18.2104 7.26587L17.4591 8.54756L17.4673 8.55241L17.4757 8.55716L18.2104 7.26587ZM19.9688 8.69351L18.8521 9.67344L18.8577 9.67982L18.8634 9.68612L19.9688 8.69351ZM21.1527 10.6783L19.759 11.1929L19.7625 11.2023L19.7661 11.2116L21.1527 10.6783ZM19.2376 17.8165L20.0276 19.0747L20.038 19.0681L20.0483 19.0614L19.2376 17.8165ZM17.5488 18.5129L17.2011 17.0685L17.1729 19.9502L17.5488 18.5129ZM19.6032 19.3834L18.8179 20.6446L18.8285 20.6511L19.6032 19.3834ZM21.1875 20.7762L20.0202 21.6952L20.0262 21.7028L20.0322 21.7103L21.1875 20.7762ZM22.1973 22.6217L20.7903 23.0986L20.7939 23.1093L20.7977 23.1199L22.1973 22.6217ZM13.5096 14.0384L12.2197 14.7755L12.2275 14.7893L12.2357 14.8028L13.5096 14.0384ZM12.9873 13.4465L12.0849 14.6267L12.101 14.639L12.1175 14.6509L12.9873 13.4465ZM12.3257 13.1157L11.8988 14.5387L11.9082 14.5415L11.9176 14.5442L12.3257 13.1157ZM10.3758 13.3594L9.7724 12.0018L8.91598 12.3825L8.89066 13.3193L10.3758 13.3594ZM10.2713 17.2245L8.7862 17.1844L8.74496 18.7102H10.2713V17.2245ZM12.3954 16.8589L12.9699 18.229L12.9804 18.2246L12.9909 18.22L12.3954 16.8589ZM13.3355 16.1625L14.4697 17.1221L14.4786 17.1116L14.4873 17.1009L13.3355 16.1625ZM10.2713 20.6717L9.94904 19.2214L8.80642 19.4754L8.78589 20.6457L10.2713 20.6717ZM10.2017 24.6413L8.71625 24.6152L8.6945 25.8549L9.91033 26.0981L10.2017 24.6413ZM10.7066 24.7457L10.3953 26.1984L10.4524 26.2106L10.5102 26.2184L10.7066 24.7457ZM12.0124 24.7109L12.2471 26.1779L12.2755 26.1734L12.3037 26.1677L12.0124 24.7109ZM12.8306 24.3975L13.5864 25.6766L13.6076 25.6641L13.6283 25.6509L12.8306 24.3975ZM13.4574 23.7533L12.213 22.9418L12.2004 22.9611L12.1883 22.9809L13.4574 23.7533ZM13.4574 21.6119L12.1741 22.3605L12.1855 22.3801L12.1976 22.3993L13.4574 21.6119ZM12.848 20.9677L12.0239 22.2039L12.0448 22.2177L12.0661 22.2309L12.848 20.9677ZM12.0472 20.6543L11.7558 22.1111L11.784 22.1168L11.8125 22.1213L12.0472 20.6543ZM44.2386 20.7414L45.68 21.1017L45.681 21.0977L44.2386 20.7414ZM43.1766 23.4922L41.8697 22.7857L41.866 22.7926L41.8623 22.7995L43.1766 23.4922ZM41.5052 25.86L40.4115 24.8545L40.4108 24.8553L41.5052 25.86ZM39.2941 27.688L38.5115 26.4252L38.5035 26.4302L39.2941 27.688ZM36.6304 28.8893L37.0431 30.3166L37.051 30.3143L37.0589 30.3119L36.6304 28.8893ZM30.5716 28.9068L30.1658 30.3359L30.1704 30.3372L30.5716 28.9068ZM27.9253 27.7925L27.1689 29.0712L27.1756 29.0752L27.1823 29.0791L27.9253 27.7925ZM25.6794 26.0515L24.6109 27.0837L24.6198 27.093L24.6288 27.102L25.6794 26.0515ZM23.9732 23.7882L22.6745 24.5097L22.6804 24.5204L22.6866 24.5311L23.9732 23.7882ZM22.8763 21.107L21.4414 21.492L21.4436 21.5001L21.4459 21.5082L22.8763 21.107ZM22.8589 15.1701L24.2992 15.5345L24.3002 15.5304L22.8589 15.1701ZM23.9035 12.4193L22.5966 11.7128L22.5929 11.7197L22.5892 11.7266L23.9035 12.4193ZM27.7512 8.18861L26.9478 6.93887L26.9396 6.9442L27.7512 8.18861ZM37.9536 7.3181L37.4281 8.70774L37.4319 8.70918L37.9536 7.3181ZM41.5052 9.56402L40.4547 10.6145L40.461 10.6208L40.4673 10.627L41.5052 9.56402ZM43.786 13.0809L42.4002 13.6165L42.403 13.6236L42.4058 13.6306L43.786 13.0809ZM36.6478 16.6848L35.2219 17.1021L35.2281 17.1232L35.2349 17.144L36.6478 16.6848ZM36.021 15.4313L34.8325 16.3227L34.8393 16.3318L34.8463 16.3407L36.021 15.4313ZM34.9764 14.5433L34.2393 15.8333L34.2609 15.8456L34.283 15.8572L34.9764 14.5433ZM30.9895 15.3094L29.8852 14.3155L29.8833 14.3176L30.9895 15.3094ZM30.2931 16.5107L31.6914 17.0127L31.6953 17.0015L30.2931 16.5107ZM31.9122 21.6989L31.1478 22.9729L31.1557 22.9776L31.1636 22.9822L31.9122 21.6989ZM34.8197 21.7512L35.4697 23.0871L35.4769 23.0836L35.4841 23.08L34.8197 21.7512ZM35.934 20.8807L37.0723 21.8354L37.0797 21.8265L37.087 21.8175L35.934 20.8807ZM78.1886 6.465L79.6738 6.50003L79.7097 4.97654L78.1858 4.97933L78.1886 6.465ZM78.0145 13.8469L78.0742 15.3314L79.4668 15.2753L79.4997 13.882L78.0145 13.8469ZM72.8262 14.0559L72.7664 12.5714L71.3949 12.6266L71.3417 13.9983L72.8262 14.0559ZM72.1994 30.2125L72.2768 31.6962L73.6314 31.6256L73.684 30.2701L72.1994 30.2125ZM64.8523 30.5955L63.3679 30.6563L63.4294 32.1574L64.9297 32.0792L64.8523 30.5955ZM64.1907 14.4389L65.6752 14.3781L65.6136 12.8747L64.1111 12.9553L64.1907 14.4389ZM59.0025 14.7174L57.5173 14.6797L57.4764 16.2872L59.0822 16.201L59.0025 14.7174ZM59.2114 6.49982L59.2087 5.01415L57.763 5.01681L57.7262 6.46206L59.2114 6.49982ZM71.4984 19.9051L72.6443 20.8506L74.732 18.3203L71.4532 18.4201L71.4984 19.9051ZM57.0752 29.5425L58.4758 30.0379L59.2651 27.8063L56.9123 28.0658L57.0752 29.5425ZM68.2647 21.4898L69.4107 22.4353L71.4984 19.9051L68.2195 20.0048L68.2647 21.4898ZM54.3366 21.9137L52.8639 21.7173L52.6327 23.4519L54.3818 23.3986L54.3366 21.9137ZM56.5651 5.19986L58.0377 5.39621L58.2039 4.14971L57.002 3.77988L56.5651 5.19986ZM46.9082 2.22852L47.3451 0.808542L45.5234 0.248017L45.4245 2.15144L46.9082 2.22852ZM45.4225 30.8277L43.9389 30.7506L43.8482 32.496L45.5854 32.3044L45.4225 30.8277ZM64.6584 25.8606L63.5125 24.9151L63.5125 24.9151L64.6584 25.8606ZM64.4842 21.6049L64.5294 23.0899L64.5294 23.0899L64.4842 21.6049ZM44.564 18.7177L46.0451 18.8337L46.0466 18.8142L46.0476 18.7947L44.564 18.7177ZM44.5997 18.0296L46.0834 18.1067L46.0844 18.0874L46.0849 18.0681L44.5997 18.0296ZM64.7495 28.0847L63.6036 27.1391L63.2418 27.5776L63.2651 28.1454L64.7495 28.0847ZM64.4234 20.1204L62.939 20.1811L62.9991 21.6501L64.4686 21.6053L64.4234 20.1204ZM55.8824 36.4972L57.0283 37.4428L57.0283 37.4427L55.8824 36.4972ZM55.4292 34.1966L56.8298 34.692L56.8298 34.692L55.4292 34.1966ZM54.0591 38.0703L52.6585 37.575L52.2206 38.8131L53.3956 39.3996L54.0591 38.0703ZM54.4312 38.256L53.7677 39.5853L54.825 40.1131L55.5771 39.2016L54.4312 38.256ZM58.0934 33.8175L59.2393 34.763L59.2393 34.763L58.0934 33.8175ZM58.2714 33.6017L57.1255 32.6562L57.1255 32.6562L58.2714 33.6017ZM22.5629 24.8154H21.0773C21.0773 25.5949 20.932 26.1804 20.7033 26.6231L22.0232 27.305L23.3431 27.987C23.834 27.0369 24.0486 25.9625 24.0486 24.8154H22.5629ZM22.0232 27.305L20.6944 26.6406C20.4377 27.154 20.0975 27.5808 19.6685 27.934L20.613 29.0809L21.5574 30.2277C22.3124 29.606 22.9123 28.8488 23.352 27.9694L22.0232 27.305ZM20.613 29.0809L19.6685 27.934C19.2041 28.3165 18.6532 28.6423 18.0033 28.9042L18.5586 30.2822L19.1139 31.6602C20.0193 31.2953 20.838 30.8202 21.5574 30.2277L20.613 29.0809ZM18.5586 30.2822L18.0141 28.8999C17.3291 29.1697 16.6093 29.384 15.853 29.5415L16.156 30.996L16.459 32.4504C17.3741 32.2598 18.2559 31.9982 19.1031 31.6644L18.5586 30.2822ZM16.156 30.996L15.853 29.5415C15.0834 29.7019 14.3092 29.8086 13.53 29.862L13.6315 31.3442L13.733 32.8264C14.6484 32.7637 15.5572 32.6383 16.459 32.4504L16.156 30.996ZM13.6315 31.3442L13.5286 29.8621C12.7223 29.9181 11.9735 29.9456 11.2811 29.9456V31.4312V32.9169C12.0512 32.9169 12.8693 32.8864 13.7344 32.8263L13.6315 31.3442ZM11.2811 31.4312V29.9456C10.6013 29.9456 9.88965 29.9182 9.14577 29.8626L9.03521 31.3442L8.92464 32.8257C9.73607 32.8863 10.5217 32.9169 11.2811 32.9169V31.4312ZM9.03521 31.3442L9.12508 29.8612C8.41137 29.818 7.69684 29.7368 6.9813 29.6176L6.73706 31.083L6.49282 32.5485C7.30937 32.6846 8.12694 32.7775 8.94533 32.8271L9.03521 31.3442ZM6.73706 31.083L6.9813 29.6176C6.26818 29.4987 5.56649 29.3422 4.87597 29.148L4.47373 30.5781L4.07149 32.0083C4.86665 32.232 5.67384 32.412 6.49282 32.5485L6.73706 31.083ZM4.47373 30.5781L4.89655 29.1539C4.22947 28.9559 3.60529 28.7129 3.02213 28.4264L2.3671 29.7599L1.71206 31.0933C2.45208 31.4568 3.23232 31.7594 4.05091 32.0024L4.47373 30.5781ZM2.3671 29.7599L3.85277 29.7576L3.81794 7.33321L2.33228 7.33551L0.846606 7.33782L0.881426 29.7622L2.3671 29.7599ZM2.33228 7.33551L2.89671 8.70979C3.49168 8.46543 4.12978 8.24519 4.81224 8.0502L4.40409 6.62169L3.99595 5.19319C3.21594 5.41605 2.47284 5.67169 1.76784 5.96124L2.33228 7.33551ZM4.40409 6.62169L4.83307 8.04409C5.51172 7.83941 6.20139 7.67236 6.90232 7.54296L6.6326 6.08198L6.36288 4.621C5.55492 4.77016 4.75891 4.96292 3.97511 5.1993L4.40409 6.62169ZM6.6326 6.08198L6.91971 7.53964C7.63749 7.39826 8.34748 7.2954 9.04989 7.23057L8.91333 5.75118L8.77678 4.2718C7.9703 4.34625 7.1598 4.46392 6.34548 4.62431L6.6326 6.08198ZM8.91333 5.75118L9.07241 7.22831C9.77775 7.15236 10.4558 7.11498 11.107 7.11498V5.62931V4.14364C10.3422 4.14364 9.55781 4.18752 8.75426 4.27405L8.91333 5.75118ZM11.107 5.62931V7.11498C11.8682 7.11498 12.6365 7.16322 13.4124 7.2602L13.5967 5.786L13.781 4.31181C12.8855 4.19987 11.994 4.14364 11.107 4.14364V5.62931ZM13.5967 5.786L13.4149 7.26051C14.1773 7.35451 14.9017 7.51031 15.5898 7.72598L16.0341 6.30831L16.4785 4.89064C15.6112 4.61883 14.7106 4.42642 13.7785 4.3115L13.5967 5.786ZM16.0341 6.30831L15.5898 7.72598C16.265 7.93763 16.8869 8.21217 17.4591 8.54756L18.2104 7.26587L18.9617 5.98419C18.1875 5.53031 17.3585 5.16648 16.4785 4.89064L16.0341 6.30831ZM18.2104 7.26587L17.4757 8.55716C18.0086 8.86035 18.4647 9.23198 18.8521 9.67344L19.9688 8.69351L21.0855 7.71358C20.4747 7.01757 19.7586 6.43744 18.9451 5.97458L18.2104 7.26587ZM19.9688 8.69351L18.8634 9.68612C19.2422 10.108 19.542 10.6052 19.759 11.1929L21.1527 10.6783L22.5464 10.1637C22.2063 9.24242 21.7168 8.41652 21.0742 7.70089L19.9688 8.69351ZM21.1527 10.6783L19.7661 11.2116C19.9781 11.7629 20.1023 12.4466 20.1023 13.2898H21.588H23.0736C23.0736 12.1599 22.9077 11.1025 22.5394 10.1449L21.1527 10.6783ZM21.588 13.2898H20.1023C20.1023 13.7967 20.0302 14.2492 19.8971 14.6567L21.3094 15.1179L22.7217 15.579C22.96 14.8491 23.0736 14.0829 23.0736 13.2898H21.588ZM21.3094 15.1179L19.8971 14.6567C19.7613 15.0727 19.5714 15.4316 19.331 15.7441L20.5085 16.65L21.6861 17.5558C22.1421 16.963 22.4861 16.3005 22.7217 15.579L21.3094 15.1179ZM20.5085 16.65L19.331 15.7441C19.0894 16.0582 18.7915 16.334 18.4269 16.5715L19.2376 17.8165L20.0483 19.0614C20.6818 18.6489 21.2313 18.1471 21.6861 17.5558L20.5085 16.65ZM19.2376 17.8165L18.4476 16.5583C18.097 16.7784 17.6859 16.9517 17.2011 17.0685L17.5488 18.5129L17.8965 19.9573C18.6652 19.7722 19.38 19.4813 20.0276 19.0747L19.2376 17.8165ZM17.5488 18.5129L17.1729 19.9502C17.7938 20.1126 18.3389 20.3463 18.8179 20.6446L19.6032 19.3834L20.3885 18.1222C19.6372 17.6544 18.8127 17.3078 17.9247 17.0755L17.5488 18.5129ZM19.6032 19.3834L18.8285 20.6511C19.3135 20.9475 19.7061 21.2962 20.0202 21.6952L21.1875 20.7762L22.3549 19.8572C21.8101 19.1652 21.1464 18.5853 20.3779 18.1157L19.6032 19.3834ZM21.1875 20.7762L20.0322 21.7103C20.3597 22.1153 20.6127 22.5747 20.7903 23.0986L22.1973 22.6217L23.6044 22.1447C23.3177 21.2991 22.8975 20.5282 22.3428 19.8421L21.1875 20.7762ZM22.1973 22.6217L20.7977 23.1199C20.9806 23.6339 21.0773 24.1956 21.0773 24.8154H22.5629H24.0486C24.0486 23.8799 23.9015 22.9791 23.597 22.1235L22.1973 22.6217ZM13.7186 14.8915H15.2042C15.2042 14.3508 15.0914 13.7872 14.7836 13.2741L13.5096 14.0384L12.2357 14.8028C12.2227 14.7812 12.221 14.77 12.2233 14.7792C12.2259 14.79 12.2329 14.825 12.2329 14.8915H13.7186ZM13.5096 14.0384L14.7996 13.3013C14.5647 12.8903 14.2527 12.5278 13.8572 12.2421L12.9873 13.4465L12.1175 14.6509C12.1398 14.667 12.176 14.6991 12.2197 14.7755L13.5096 14.0384ZM12.9873 13.4465L13.8898 12.2663C13.5416 12.0001 13.1527 11.8069 12.7339 11.6872L12.3257 13.1157L11.9176 14.5442C11.9862 14.5638 12.0384 14.5911 12.0849 14.6267L12.9873 13.4465ZM12.3257 13.1157L12.7526 11.6927C12.4217 11.5934 12.0656 11.5256 11.699 11.5256V13.0112V14.4969C11.7038 14.4969 11.7655 14.4987 11.8988 14.5387L12.3257 13.1157ZM11.699 13.0112V11.5256C11.3156 11.5256 10.9384 11.5835 10.5726 11.699L11.02 13.1157L11.4674 14.5324C11.5426 14.5087 11.618 14.4969 11.699 14.4969V13.0112ZM11.02 13.1157L10.5726 11.699C10.2996 11.7852 10.0328 11.8861 9.7724 12.0018L10.3758 13.3594L10.9792 14.7171C11.1367 14.6471 11.2993 14.5855 11.4674 14.5324L11.02 13.1157ZM10.3758 13.3594L8.89066 13.3193L8.7862 17.1844L10.2713 17.2245L11.7565 17.2646L11.8609 13.3996L10.3758 13.3594ZM10.2713 17.2245V18.7102C10.6169 18.7102 11.01 18.6806 11.4373 18.6304L11.2637 17.1549L11.0901 15.6794C10.7282 15.722 10.4597 15.7388 10.2713 15.7388V17.2245ZM11.2637 17.1549L11.4373 18.6304C11.9673 18.568 12.4797 18.4346 12.9699 18.229L12.3954 16.8589L11.8208 15.4888C11.5914 15.585 11.3494 15.6489 11.0901 15.6794L11.2637 17.1549ZM12.3954 16.8589L12.9909 18.22C13.5646 17.969 14.064 17.6016 14.4697 17.1221L13.3355 16.1625L12.2014 15.2028C12.0964 15.3269 11.9689 15.4238 11.7999 15.4978L12.3954 16.8589ZM13.3355 16.1625L14.4873 17.1009C15.0193 16.448 15.2042 15.657 15.2042 14.8915H13.7186H12.2329C12.2329 15.1939 12.1624 15.2503 12.1838 15.224L13.3355 16.1625ZM11.2463 20.5673V19.0816C10.8065 19.0816 10.3732 19.1272 9.94904 19.2214L10.2713 20.6717L10.5936 22.122C10.7962 22.077 11.0129 22.0529 11.2463 22.0529V20.5673ZM10.2713 20.6717L8.78589 20.6457L8.71625 24.6152L10.2017 24.6413L11.6871 24.6673L11.7568 20.6978L10.2713 20.6717ZM10.2017 24.6413L9.91033 26.0981C10.0782 26.1317 10.2399 26.1651 10.3953 26.1984L10.7066 24.7457L11.0179 23.293C10.8483 23.2567 10.6734 23.2205 10.4931 23.1844L10.2017 24.6413ZM10.7066 24.7457L10.5102 26.2184C10.7442 26.2496 10.9783 26.2662 11.2115 26.2662V24.7805V23.2949C11.1197 23.2949 11.0171 23.2883 10.9029 23.2731L10.7066 24.7457ZM11.2115 24.7805V26.2662C11.5479 26.2662 11.8945 26.2343 12.2471 26.1779L12.0124 24.7109L11.7776 23.2439C11.5499 23.2803 11.3626 23.2949 11.2115 23.2949V24.7805ZM12.0124 24.7109L12.3037 26.1677C12.758 26.0769 13.1877 25.9122 13.5864 25.6766L12.8306 24.3975L12.0748 23.1185C11.9629 23.1846 11.8471 23.2289 11.721 23.2541L12.0124 24.7109ZM12.8306 24.3975L13.6283 25.6509C14.0818 25.3623 14.4497 24.9805 14.7265 24.5258L13.4574 23.7533L12.1883 22.9809C12.1401 23.0601 12.0901 23.1078 12.033 23.1441L12.8306 24.3975ZM13.4574 23.7533L14.7018 24.5649C15.083 23.9805 15.2042 23.3138 15.2042 22.6913H13.7186H12.2329C12.2329 22.9509 12.18 22.9923 12.213 22.9418L13.4574 23.7533ZM13.7186 22.6913H15.2042C15.2042 22.0645 15.0814 21.4071 14.7172 20.8245L13.4574 21.6119L12.1976 22.3993C12.1816 22.3738 12.2329 22.436 12.2329 22.6913H13.7186ZM13.4574 21.6119L14.7407 20.8633C14.4712 20.4014 14.1051 19.9986 13.63 19.7045L12.848 20.9677L12.0661 22.2309C12.0784 22.2386 12.1186 22.2653 12.1741 22.3605L13.4574 21.6119ZM12.848 20.9677L13.6721 19.7316C13.2502 19.4503 12.7821 19.2673 12.2819 19.1873L12.0472 20.6543L11.8125 22.1213C11.8925 22.1341 11.9584 22.1601 12.0239 22.2039L12.848 20.9677ZM12.0472 20.6543L12.3385 19.1975C11.972 19.1242 11.606 19.0816 11.2463 19.0816V20.5673V22.0529C11.3741 22.0529 11.542 22.0684 11.7558 22.1111L12.0472 20.6543ZM44.2386 20.7414L42.7973 20.381C42.5828 21.239 42.2731 22.0393 41.8697 22.7857L43.1766 23.4922L44.4836 24.1986C45.0087 23.2273 45.407 22.1937 45.68 21.1017L44.2386 20.7414ZM43.1766 23.4922L41.8623 22.7995C41.4698 23.5443 40.987 24.2285 40.4115 24.8545L41.5052 25.86L42.5989 26.8655C43.3467 26.0522 43.9781 25.1579 44.4909 24.1849L43.1766 23.4922ZM41.5052 25.86L40.4108 24.8553C39.8533 25.4625 39.2214 25.9853 38.5115 26.4252L39.2941 27.688L40.0768 28.9509C41.015 28.3694 41.8572 27.6734 42.5997 26.8647L41.5052 25.86ZM39.2941 27.688L38.5035 26.4302C37.8092 26.8667 37.0439 27.2132 36.2019 27.4668L36.6304 28.8893L37.0589 30.3119C38.1436 29.9852 39.1542 29.5308 40.0848 28.9459L39.2941 27.688ZM36.6304 28.8893L36.2177 27.4621C35.3983 27.6991 34.5166 27.8215 33.5662 27.8215V29.3072V30.7929C34.7746 30.7929 35.9357 30.6367 37.0431 30.3166L36.6304 28.8893ZM33.5662 29.3072V27.8215C32.6495 27.8215 31.7868 27.7046 30.9729 27.4763L30.5716 28.9068L30.1704 30.3372C31.26 30.6428 32.3936 30.7929 33.5662 30.7929V29.3072ZM30.5716 28.9068L30.9774 27.4776C30.1519 27.2432 29.3834 26.9189 28.6682 26.5059L27.9253 27.7925L27.1823 29.0791C28.1153 29.6178 29.111 30.0364 30.1658 30.3359L30.5716 28.9068ZM27.9253 27.7925L28.6817 26.5138C27.9642 26.0894 27.3145 25.5856 26.7299 25.001L25.6794 26.0515L24.6288 27.102C25.3906 27.8638 26.2382 28.5207 27.1689 29.0712L27.9253 27.7925ZM25.6794 26.0515L26.7478 25.0192C26.1704 24.4216 25.675 23.7643 25.2597 23.0452L23.9732 23.7882L22.6866 24.5311C23.2231 25.4602 23.8651 26.3118 24.6109 27.0837L25.6794 26.0515ZM23.9732 23.7882L25.2719 23.0667C24.8657 22.3356 24.5435 21.5498 24.3068 20.7058L22.8763 21.107L21.4459 21.5082C21.743 22.5677 22.152 23.5693 22.6745 24.5097L23.9732 23.7882ZM22.8763 21.107L24.3112 20.722C24.0912 19.9017 23.979 19.0391 23.979 18.1298H22.4933H21.0076C21.0076 19.2866 21.1508 20.4087 21.4414 21.492L22.8763 21.107ZM22.4933 18.1298H23.979C23.979 17.2409 24.0861 16.3768 24.2992 15.5345L22.8589 15.1701L21.4186 14.8057C21.1443 15.8901 21.0076 16.9992 21.0076 18.1298H22.4933ZM22.8589 15.1701L24.3002 15.5304C24.5161 14.6669 24.8226 13.8619 25.2178 13.112L23.9035 12.4193L22.5892 11.7266C22.0791 12.6945 21.6892 13.7234 21.4176 14.8098L22.8589 15.1701ZM23.9035 12.4193L25.2105 13.1258C25.6188 12.3704 26.1074 11.6784 26.6774 11.0473L25.5749 10.0515L24.4724 9.05568C23.7424 9.86386 23.1168 10.7504 22.5966 11.7128L23.9035 12.4193ZM25.5749 10.0515L26.6774 11.0473C27.2428 10.4214 27.8707 9.88436 28.5628 9.43303L27.7512 8.18861L26.9396 6.9442C26.0299 7.53747 25.207 8.24236 24.4724 9.05568L25.5749 10.0515ZM27.7512 8.18861L28.5546 9.43833C29.2515 8.99033 30.0046 8.64063 30.8183 8.38949L30.3801 6.9699L29.942 5.55031C28.8754 5.87951 27.8759 6.34229 26.9478 6.9389L27.7512 8.18861ZM30.3801 6.9699L30.8183 8.38949C31.608 8.14575 32.452 8.02031 33.3573 8.02031V6.53464V5.04897C32.1733 5.04897 31.0326 5.2137 29.942 5.55031L30.3801 6.9699ZM33.3573 6.53464V8.02031C34.8855 8.02031 36.2365 8.25715 37.4281 8.70774L37.9536 7.3181L38.4791 5.92847C36.9082 5.33444 35.195 5.04897 33.3573 5.04897V6.53464ZM37.9536 7.3181L37.4319 8.70918C38.642 9.16298 39.6413 9.80109 40.4547 10.6145L41.5052 9.56402L42.5558 8.51349C41.4193 7.37701 40.0507 6.51784 38.4752 5.92703L37.9536 7.3181ZM41.5052 9.56402L40.4673 10.627C41.2904 11.4308 41.9374 12.4191 42.4002 13.6165L43.786 13.0809L45.1717 12.5452C44.5668 10.9803 43.6932 9.62401 42.5432 8.50106L41.5052 9.56402ZM43.786 13.0809L42.4058 13.6306C42.872 14.8012 43.1186 16.143 43.1186 17.6772H44.6043H46.0899C46.0899 15.8221 45.791 14.0998 45.1662 12.5311L43.786 13.0809ZM36.8741 18.1298H38.3598C38.3598 17.4783 38.2609 16.8415 38.0607 16.2256L36.6478 16.6848L35.2349 17.144C35.3365 17.4566 35.3885 17.7832 35.3885 18.1298H36.8741ZM36.6478 16.6848L38.0737 16.2675C37.8869 15.6293 37.5979 15.0412 37.1958 14.5218L36.021 15.4313L34.8463 16.3407C35.0013 16.541 35.1302 16.7885 35.2219 17.1021L36.6478 16.6848ZM36.021 15.4313L37.2096 14.5399C36.7968 13.9896 36.2784 13.5506 35.6699 13.2294L34.9764 14.5433L34.283 15.8572C34.5101 15.9771 34.6881 16.1301 34.8325 16.3227L36.021 15.4313ZM34.9764 14.5433L35.7135 13.2534C35.0527 12.8758 34.3216 12.7095 33.5662 12.7095V14.1951V15.6808C33.8786 15.6808 34.0877 15.7466 34.2393 15.8333L34.9764 14.5433ZM33.5662 14.1951V12.7095C32.8394 12.7095 32.1353 12.8416 31.4835 13.1411L32.1037 14.4911L32.724 15.8411C32.9311 15.746 33.2019 15.6808 33.5662 15.6808V14.1951ZM32.1037 14.4911L31.4835 13.1411C30.8718 13.4222 30.3352 13.8155 29.8852 14.3155L30.9895 15.3094L32.0938 16.3032C32.2705 16.1069 32.4768 15.9547 32.724 15.8411L32.1037 14.4911ZM30.9895 15.3094L29.8833 14.3176C29.4396 14.8125 29.1123 15.3872 28.8908 16.0199L30.2931 16.5107L31.6953 17.0015C31.7989 16.7057 31.9358 16.4795 32.0957 16.3011L30.9895 15.3094ZM30.2931 16.5107L28.8948 16.0087C28.671 16.6322 28.5637 17.2846 28.5637 17.9557H30.0493H31.535C31.535 17.6055 31.5902 17.2945 31.6914 17.0126L30.2931 16.5107ZM30.0493 17.9557H28.5637C28.5637 18.5867 28.6541 19.2115 28.8297 19.8263L30.2583 19.4182L31.6868 19.0101C31.5839 18.65 31.535 18.2997 31.535 17.9557H30.0493ZM30.2583 19.4182L28.8297 19.8263C29.0126 20.4663 29.2917 21.0604 29.6713 21.5981L30.885 20.7414L32.0988 19.8846C31.9212 19.633 31.7825 19.345 31.6868 19.0101L30.2583 19.4182ZM30.885 20.7414L29.6713 21.5981C30.0666 22.1582 30.5609 22.6207 31.1478 22.9729L31.9122 21.6989L32.6766 20.425C32.4511 20.2897 32.2606 20.1138 32.0988 19.8846L30.885 20.7414ZM31.9122 21.6989L31.1636 22.9822C31.8366 23.3748 32.583 23.5502 33.3573 23.5502V22.0645V20.5789C33.0405 20.5789 32.8235 20.5106 32.6608 20.4156L31.9122 21.6989ZM33.3573 22.0645V23.5502C34.0959 23.5502 34.8107 23.4077 35.4697 23.0871L34.8197 21.7512L34.1698 20.4152C33.9699 20.5125 33.7097 20.5789 33.3573 20.5789V22.0645ZM34.8197 21.7512L35.4841 23.08C36.0978 22.7731 36.6333 22.3588 37.0723 21.8354L35.934 20.8807L34.7957 19.9259C34.6311 20.1222 34.4237 20.2881 34.1553 20.4223L34.8197 21.7512ZM35.934 20.8807L37.087 21.8175C37.505 21.3031 37.8201 20.7231 38.0364 20.0898L36.6304 19.6097L35.2244 19.1296C35.1157 19.448 34.9666 19.7153 34.7809 19.9438L35.934 20.8807ZM36.6304 19.6097L38.0364 20.0898C38.2525 19.4569 38.3598 18.8013 38.3598 18.1298H36.8741H35.3885C35.3885 18.4798 35.3333 18.8107 35.2244 19.1296L36.6304 19.6097ZM78.1886 6.465L76.7033 6.42997L76.5292 13.8119L78.0145 13.8469L79.4997 13.882L79.6738 6.50003L78.1886 6.465ZM78.0145 13.8469L77.9547 12.3625L72.7664 12.5714L72.8262 14.0559L72.886 15.5403L78.0742 15.3314L78.0145 13.8469ZM72.8262 14.0559L71.3417 13.9983L70.7149 30.1549L72.1994 30.2125L73.684 30.2701L74.3108 14.1134L72.8262 14.0559ZM72.1994 30.2125L72.1221 28.7289L64.775 29.1119L64.8523 30.5955L64.9297 32.0792L72.2768 31.6962L72.1994 30.2125ZM64.1907 14.4389L64.1111 12.9553L58.9229 13.2339L59.0025 14.7174L59.0822 16.201L64.2704 15.9224L64.1907 14.4389ZM59.0025 14.7174L60.4877 14.7552L60.6966 6.53758L59.2114 6.49982L57.7262 6.46206L57.5173 14.6797L59.0025 14.7174ZM59.2114 6.49982L59.2142 7.98549L78.1913 7.95067L78.1886 6.465L78.1858 4.97933L59.2087 5.01415L59.2114 6.49982ZM45.4225 30.8277L45.5854 32.3044L57.2381 31.0192L57.0752 29.5425L56.9123 28.0658L45.2597 29.351L45.4225 30.8277ZM54.3366 21.9137L55.8092 22.11L58.0377 5.39621L56.5651 5.19986L55.0924 5.00351L52.8639 21.7173L54.3366 21.9137ZM56.5651 5.19986L57.002 3.77988L47.3451 0.808542L46.9082 2.22852L46.4713 3.64849L56.1282 6.61983L56.5651 5.19986ZM46.9082 2.22852L45.4245 2.15144L43.9389 30.7506L45.4225 30.8277L46.9062 30.9048L48.3919 2.30559L46.9082 2.22852ZM64.4842 21.6049L64.439 20.1199L54.2914 20.4287L54.3366 21.9137L54.3818 23.3986L64.5294 23.0899L64.4842 21.6049ZM64.6584 25.8606L65.8044 26.8061L69.4107 22.4353L68.2647 21.4898L67.1188 20.5443L63.5125 24.9151L64.6584 25.8606ZM68.2647 21.4898L68.2195 20.0048L64.439 20.1199L64.4842 21.6049L64.5294 23.0899L68.3099 22.9748L68.2647 21.4898ZM44.564 18.7177L46.0476 18.7947L46.0834 18.1067L44.5997 18.0296L43.116 17.9525L43.0803 18.6406L44.564 18.7177ZM64.7495 28.0847L65.8955 29.0302L72.6443 20.8506L71.4984 19.9051L70.3524 18.9596L63.6036 27.1391L64.7495 28.0847ZM71.4984 19.9051L71.4532 18.4201L64.3782 18.6354L64.4234 20.1204L64.4686 21.6053L71.5436 21.3901L71.4984 19.9051ZM64.4234 20.1204L65.9078 20.0596L65.6752 14.3781L64.1907 14.4389L62.7063 14.4997L62.939 20.1811L64.4234 20.1204ZM64.8523 30.5955L66.3368 30.5348L66.2339 28.0239L64.7495 28.0847L63.2651 28.1454L63.3679 30.6563L64.8523 30.5955ZM44.6043 17.6772H43.1186C43.1186 17.7823 43.1172 17.8869 43.1145 17.991L44.5997 18.0296L46.0849 18.0681C46.0883 17.9382 46.0899 17.8078 46.0899 17.6772H44.6043ZM44.564 18.7177L43.0828 18.6016C43.035 19.2123 42.9393 19.8065 42.7963 20.385L44.2386 20.7414L45.681 21.0977C45.8636 20.3582 45.9848 19.6032 46.0451 18.8337L44.564 18.7177ZM57.0752 29.5425L55.6745 29.0472L54.0285 33.7012L55.4292 34.1966L56.8298 34.692L58.4758 30.0379L57.0752 29.5425ZM55.4292 34.1966L54.0285 33.7012L52.6585 37.575L54.0591 38.0703L55.4598 38.5657L56.8298 34.692L55.4292 34.1966ZM54.4312 38.256L55.5771 39.2016L57.0283 37.4428L55.8824 36.4972L54.7364 35.5517L53.2852 37.3105L54.4312 38.256ZM54.0591 38.0703L53.3956 39.3996L53.7677 39.5853L54.4312 38.256L55.0947 36.9268L54.7226 36.7411L54.0591 38.0703ZM55.8824 36.4972L57.0283 37.4427L59.2393 34.763L58.0934 33.8175L56.9474 32.872L54.7364 35.5517L55.8824 36.4972ZM58.2714 33.6017L59.4174 34.5472L65.8044 26.8061L64.6584 25.8606L63.5125 24.9151L57.1255 32.6562L58.2714 33.6017ZM58.0934 33.8175L59.2393 34.763L59.4174 34.5472L58.2714 33.6017L57.1255 32.6562L56.9474 32.872L58.0934 33.8175Z" fill="white" mask="url(#path-1-outside-1_401_13209)"/>
<path d="M22.5629 24.8154C22.5629 25.7787 22.383 26.6086 22.0232 27.305C21.675 28.0014 21.2049 28.5934 20.613 29.0809C20.021 29.5683 19.3362 29.9688 18.5586 30.2822C17.7925 30.5839 16.9917 30.8219 16.156 30.996C15.3203 31.1701 14.4788 31.2862 13.6315 31.3442C12.7958 31.4022 12.0124 31.4312 11.2811 31.4312C10.5615 31.4312 9.81286 31.4022 9.03521 31.3442C8.26916 31.2978 7.50311 31.2107 6.73706 31.083C5.97101 30.9554 5.21657 30.7871 4.47373 30.5781C3.7309 30.3576 3.02868 30.0849 2.3671 29.7599L2.33228 7.33551C2.98226 7.06856 3.67286 6.83062 4.40409 6.6217C5.13532 6.40117 5.87815 6.22126 6.6326 6.08198C7.39865 5.93109 8.15889 5.82083 8.91333 5.75118C9.66778 5.66994 10.399 5.62931 11.107 5.62931C11.9311 5.62931 12.761 5.68154 13.5967 5.78601C14.444 5.89047 15.2565 6.06457 16.0341 6.30831C16.8118 6.55205 17.5372 6.87124 18.2104 7.26587C18.8836 7.6489 19.4697 8.12478 19.9688 8.69351C20.4795 9.26224 20.8741 9.92383 21.1527 10.6783C21.4429 11.4327 21.588 12.3032 21.588 13.2898C21.588 13.9398 21.4951 14.5491 21.3094 15.1179C21.1237 15.6866 20.8567 16.1973 20.5085 16.65C20.1603 17.1026 19.7367 17.4915 19.2376 17.8165C18.7385 18.1298 18.1756 18.362 17.5488 18.5129C18.3032 18.7102 18.988 19.0004 19.6032 19.3834C20.23 19.7664 20.7581 20.2307 21.1875 20.7762C21.6286 21.3217 21.9652 21.9369 22.1973 22.6217C22.4411 23.3065 22.5629 24.0377 22.5629 24.8154ZM13.7186 14.8915C13.7186 14.5549 13.6489 14.2706 13.5096 14.0384C13.3703 13.7947 13.1962 13.5974 12.9873 13.4465C12.79 13.2956 12.5695 13.1853 12.3257 13.1157C12.0936 13.0461 11.8847 13.0112 11.699 13.0112C11.4668 13.0112 11.2405 13.0461 11.02 13.1157C10.7994 13.1853 10.5847 13.2666 10.3758 13.3594L10.2713 17.2245C10.5383 17.2245 10.8691 17.2013 11.2637 17.1549C11.6583 17.1084 12.0356 17.0098 12.3954 16.8589C12.7668 16.6964 13.0802 16.4643 13.3355 16.1625C13.5909 15.8491 13.7186 15.4255 13.7186 14.8915ZM11.2463 20.5673C10.9097 20.5673 10.5847 20.6021 10.2713 20.6717L10.2017 24.6413C10.3758 24.6761 10.5441 24.7109 10.7066 24.7457C10.8807 24.7689 11.049 24.7805 11.2115 24.7805C11.4552 24.7805 11.7222 24.7573 12.0124 24.7109C12.3025 24.6529 12.5753 24.5484 12.8306 24.3975C13.086 24.235 13.2949 24.0203 13.4574 23.7533C13.6315 23.4864 13.7186 23.1324 13.7186 22.6913C13.7186 22.2503 13.6315 21.8904 13.4574 21.6119C13.2949 21.3333 13.0918 21.1186 12.848 20.9677C12.6043 20.8052 12.3373 20.7008 12.0472 20.6543C11.757 20.5963 11.49 20.5673 11.2463 20.5673Z" fill="#8B5CF6"/>
<path d="M44.6043 17.6772C44.6043 17.7951 44.6027 17.9126 44.5997 18.0296C44.5937 18.2606 44.5818 18.49 44.564 18.7177C44.5099 19.4078 44.4015 20.0823 44.2386 20.7414C43.9949 21.7163 43.6409 22.6333 43.1766 23.4922C42.724 24.3511 42.1668 25.1404 41.5052 25.86C40.8553 26.568 40.1182 27.1773 39.2941 27.688C38.4817 28.1987 37.5938 28.5992 36.6304 28.8894C35.667 29.1679 34.6456 29.3072 33.5662 29.3072C32.5216 29.3072 31.5234 29.1737 30.5716 28.9068C29.6315 28.6398 28.7494 28.2684 27.9253 27.7925C27.1012 27.305 26.3526 26.7247 25.6794 26.0515C25.0178 25.3667 24.449 24.6122 23.9732 23.7882C23.5089 22.9525 23.1433 22.0587 22.8763 21.107C22.621 20.1552 22.4933 19.1628 22.4933 18.1298C22.4933 17.1201 22.6152 16.1335 22.8589 15.1701C23.1027 14.1951 23.4509 13.2782 23.9035 12.4193C24.3678 11.5604 24.9249 10.7711 25.5749 10.0515C26.2249 9.33188 26.9503 8.71092 27.7512 8.18861C28.5637 7.66631 29.44 7.26007 30.3801 6.9699C31.3203 6.67973 32.3127 6.53464 33.3573 6.53464C35.0403 6.53464 36.5724 6.7958 37.9536 7.3181C39.3464 7.84041 40.5303 8.58905 41.5052 9.56402C42.4918 10.5274 43.2521 11.6997 43.786 13.0809C44.3315 14.4505 44.6043 15.9826 44.6043 17.6772ZM36.8741 18.1298C36.8741 17.6307 36.7987 17.1491 36.6478 16.6848C36.5085 16.2089 36.2996 15.7911 36.021 15.4313C35.7425 15.0598 35.3943 14.7639 34.9764 14.5433C34.5702 14.3112 34.1001 14.1951 33.5662 14.1951C33.0207 14.1951 32.5332 14.2938 32.1037 14.4911C31.6743 14.6884 31.3029 14.9612 30.9895 15.3094C30.6877 15.646 30.4556 16.0464 30.2931 16.5107C30.1306 16.9634 30.0493 17.445 30.0493 17.9557C30.0493 18.4432 30.119 18.9307 30.2583 19.4182C30.3975 19.9057 30.6065 20.3467 30.885 20.7414C31.1636 21.136 31.506 21.4552 31.9122 21.6989C32.3301 21.9427 32.8117 22.0645 33.3573 22.0645C33.9028 22.0645 34.3903 21.9601 34.8197 21.7512C35.2608 21.5306 35.6322 21.2405 35.934 20.8807C36.2358 20.5092 36.4679 20.0856 36.6304 19.6097C36.7929 19.1338 36.8741 18.6405 36.8741 18.1298Z" fill="#8B5CF6"/>
<path fill-rule="evenodd" clip-rule="evenodd" d="M78.0145 13.8469L78.1886 6.465L59.2114 6.49982L59.0025 14.7174L64.1907 14.4389L64.4234 20.1204L71.4984 19.9051L64.7495 28.0847L64.8523 30.5956L72.1994 30.2125L72.8262 14.0559L78.0145 13.8469ZM44.564 18.7177L44.5997 18.0296C44.5937 18.2606 44.5818 18.49 44.564 18.7177Z" fill="#8B5CF6"/>
<path d="M45.4225 30.8277L57.0752 29.5425L55.4292 34.1966L54.0591 38.0703L54.4312 38.256L55.8824 36.4972L58.0934 33.8175L58.2714 33.6017L64.6584 25.8606L68.2647 21.4898L64.4842 21.6049L54.3366 21.9137L56.5651 5.19986L46.9082 2.22852L45.4225 30.8277Z" fill="#8B5CF6"/>
<g opacity="0.65">
<path d="M44.564 18.7177L44.5852 18.3081L44.5997 18.0296C44.5937 18.2606 44.5818 18.49 44.564 18.7177Z" fill="#EDE9FE"/>
<path d="M25.5749 11.1658C26.2249 10.4461 26.9503 9.82517 27.7512 9.30287C28.5637 8.78056 29.44 8.37432 30.3801 8.08415C31.3203 7.79398 32.3127 7.6489 33.3573 7.6489C35.0403 7.6489 36.5724 7.91005 37.9536 8.43236C39.3464 8.95466 40.5303 9.7033 41.5052 10.6783C42.6906 11.8398 44.6327 14.7367 44.5852 18.3081L44.5997 18.0296C44.6027 17.9125 44.6043 17.7951 44.6043 17.6772C44.6043 15.9826 44.3315 14.4505 43.786 13.0809C43.3576 11.6602 42.087 10.1444 41.5052 9.56402C40.5303 8.58905 39.3464 7.84041 37.9536 7.3181C36.5724 6.7958 35.0403 6.53464 33.3573 6.53464C32.3127 6.53464 31.3203 6.67973 30.3801 6.9699C29.44 7.26007 28.5637 7.66631 27.7512 8.18861C26.9503 8.71092 26.2249 9.33188 25.5749 10.0515C24.9249 10.7711 24.3678 11.5604 23.9035 12.4193C23.7101 12.7598 23.2303 13.7866 22.8589 15.1701C22.6152 16.1335 22.4933 17.12 22.4933 18.1298C22.4933 15.3999 24.5477 12.3497 25.5749 11.1658Z" fill="#EDE9FE"/>
<path d="M2.33228 8.44977C2.98226 8.18281 3.67286 7.94487 4.40409 7.73595C5.13532 7.51542 5.87815 7.33551 6.6326 7.19623C7.39865 7.04534 8.15889 6.93508 8.91333 6.86544C9.66778 6.78419 10.399 6.74357 11.107 6.74357C11.9311 6.74357 12.761 6.7958 13.5967 6.90026C14.444 7.00472 15.2565 7.17882 16.0341 7.42256C16.8118 7.66631 17.5372 7.98549 18.2104 8.38013C18.8836 8.76315 19.4697 9.23903 19.9688 9.80776C20.4795 10.3765 21.1875 11.1309 21.4661 11.8854C21.4429 11.5759 21.3477 10.9011 21.1527 10.6783C20.8741 9.92383 20.4795 9.26224 19.9688 8.69351C19.4697 8.12478 18.8836 7.6489 18.2104 7.26587C17.5372 6.87124 16.8118 6.55205 16.0341 6.30831C15.2565 6.06457 14.444 5.89047 13.5967 5.78601C12.761 5.68154 11.9311 5.62931 11.107 5.62931C10.399 5.62931 9.66778 5.66994 8.91333 5.75118C8.15889 5.82083 7.39865 5.93109 6.6326 6.08198C5.87815 6.22126 5.13532 6.40117 4.40409 6.6217C3.67286 6.83062 2.98226 7.06856 2.33228 7.33551V8.44977Z" fill="#EDE9FE"/>
<path d="M59.2114 7.61408L78.1886 7.57926V6.465L59.2114 6.49982V7.61408Z" fill="#EDE9FE"/>
<path d="M56.5651 5.19986L46.9082 2.22852V3.34277L56.4541 6.27996L56.5651 5.19986Z" fill="#EDE9FE"/>
</g>
<path d="M89.9707 14.5342L92.333 19.4404L92.4805 19.7451L92.3467 20.0557L89.9834 25.5498L89.7734 26.0371L89.2451 25.9971L82.8838 25.5127L82.4453 25.4795L82.2637 25.0801L79.8447 19.7588L79.6787 19.3936L79.8945 19.0537L82.502 14.9424L82.7012 14.6289L83.0713 14.5996L89.2432 14.1162L89.75 14.0762L89.9707 14.5342Z" fill="#C4C4C4" stroke="white" stroke-width="1.48567"/>
<g filter="url(#filter0_i_401_13209)">
<path d="M89.3012 14.8564L83.1293 15.3402L80.5215 19.4517L82.9397 24.7724L89.3012 25.2561L91.664 19.7626L89.3012 14.8564Z" fill="url(#paint0_linear_401_13209)"/>
</g>
<path d="M138.814 5.08799C138.347 9.51179 137.961 13.9151 137.657 18.2974C137.352 22.6735 137.066 27.0807 136.8 31.5188L136.762 32.1535L136.129 32.2144L128.419 32.9502L127.525 33.0354L127.609 32.1408L127.72 30.9662C127.484 31.0982 127.239 31.2171 126.983 31.3175L126.972 31.3216L126.962 31.3248C126.549 31.4729 126.121 31.5869 125.681 31.6656L125.67 31.6678L125.658 31.6691C125.228 31.7325 124.811 31.7624 124.408 31.7582C123.464 31.7652 122.562 31.605 121.71 31.2718L121.7 31.2671C120.873 30.9302 120.11 30.4822 119.415 29.9237L119.409 29.9179C118.721 29.3524 118.101 28.7001 117.549 27.9624L117.546 27.9576C117.001 27.2164 116.533 26.4384 116.143 25.6247L116.137 25.6112C115.763 24.7887 115.467 23.9489 115.249 23.093L115.246 23.0834L115.246 23.0824C115.041 22.2238 114.928 21.3826 114.91 20.5599C114.885 19.4215 114.879 18.2447 114.89 17.0311L114.89 17.0243C114.913 15.7924 114.968 14.5596 115.055 13.3264C115.142 12.0928 115.262 10.8706 115.413 9.66039L115.414 9.65353C115.578 8.4358 115.79 7.26552 116.047 6.14357L116.184 5.55057L116.792 5.56645C118.323 5.60791 119.861 5.64304 121.404 5.67168C122.936 5.70009 124.461 5.68574 125.978 5.62735L126.959 5.58908L126.729 6.54361C126.465 7.63955 126.2 8.74154 125.936 9.85C125.687 10.9368 125.463 12.0369 125.264 13.1479L125.264 13.1488C125.066 14.2397 124.911 15.3361 124.799 16.4373C124.689 17.527 124.645 18.6281 124.67 19.7407C124.675 19.9852 124.695 20.3471 124.731 20.8324C124.764 21.2803 124.831 21.7211 124.932 22.1554C125.038 22.5579 125.18 22.8958 125.351 23.1777C125.448 23.3167 125.531 23.3504 125.665 23.3476C125.904 23.3423 126.142 23.2463 126.396 22.9632C126.69 22.6225 126.969 22.1457 127.219 21.5081C127.473 20.8604 127.69 20.1016 127.864 19.2267L127.866 19.2169L128.001 18.5458C128.128 17.8678 128.234 17.1683 128.32 16.4474L128.32 16.4396C128.447 15.4599 128.543 14.4742 128.608 13.4833C128.673 12.4863 128.715 11.5542 128.733 10.6869L128.732 10.6771C128.763 9.79164 128.777 9.00319 128.774 8.31139L128.774 8.29772C128.783 7.59713 128.783 7.06102 128.775 6.68499C128.77 6.44635 128.759 6.21479 128.742 5.99023C128.725 5.76422 128.702 5.53101 128.673 5.2914L128.571 4.45068L129.417 4.45837C130.23 4.46543 131.036 4.46676 131.836 4.4616C132.636 4.45644 133.443 4.44469 134.255 4.42675L136.125 4.38547C136.755 4.35917 137.385 4.3205 138.015 4.26948L138.907 4.19704L138.814 5.08799ZM115.375 4.50371L115.342 5.29565C115.293 6.47525 115.249 7.64233 115.212 8.79644C115.175 9.96063 115.119 11.1376 115.044 12.3274L115.003 12.9739L114.357 13.0224L107.084 13.56L107.104 14.4866L114.085 14.3324L114.052 15.1234L113.804 20.9711L113.775 21.6467L113.099 21.6812L107.234 21.9777L107.483 31.6504L107.501 32.3816L106.771 32.4124L97.2446 32.8112L96.4698 32.843L96.4712 32.0684L96.4905 5.64744L96.4911 4.92069L115.375 4.50371ZM149.665 3.83057L149.661 4.93346C150.06 4.5718 150.483 4.25388 150.933 3.98522C151.437 3.67165 151.971 3.42586 152.534 3.24657L152.534 3.24559C153.132 3.04614 153.756 2.94026 154.405 2.92591C155.553 2.90055 156.598 3.06671 157.522 3.44705C158.419 3.81621 159.204 4.33172 159.868 4.99429C160.52 5.64546 161.064 6.41686 161.504 7.30052C161.934 8.15345 162.284 9.06458 162.556 10.0319C162.824 10.988 163.034 11.9882 163.186 13.0314L163.29 13.7959C163.386 14.5586 163.458 15.3156 163.503 16.0661L163.502 16.0662C163.575 17.0528 163.622 18.0097 163.642 18.9368L163.697 21.4421C163.729 22.8676 163.741 24.2811 163.734 25.6825C163.74 27.0688 163.727 28.4678 163.695 29.8797L163.679 30.6029L162.956 30.6062L152.102 30.6573L151.239 30.6617L151.363 29.8062C151.689 27.586 151.966 25.3733 152.193 23.1681L152.27 22.344C152.436 20.4172 152.497 18.4782 152.454 16.527C152.451 16.3776 152.44 16.1249 152.42 15.7619C152.4 15.4126 152.367 15.0172 152.32 14.5753L152.319 14.5734C152.273 14.129 152.21 13.6776 152.127 13.2199L152.123 13.1985C152.055 12.7463 151.961 12.3458 151.842 11.9944L151.838 11.9838L151.835 11.9741C151.729 11.6279 151.61 11.387 151.492 11.2266L151.479 11.2093L151.468 11.192C151.457 11.1748 151.446 11.1626 151.438 11.1526C151.201 11.1678 151.029 11.24 150.888 11.3611C150.692 11.5407 150.513 11.785 150.358 12.1102L150.249 12.3715C150.144 12.6435 150.056 12.9458 149.987 13.2808C149.891 13.7427 149.817 14.2034 149.768 14.663L149.769 14.6639C149.731 15.1372 149.704 15.5851 149.689 16.0068L149.693 17.0402L149.694 17.0509L149.693 17.0607C149.679 19.282 149.678 21.4909 149.689 23.6864C149.699 25.8749 149.698 28.0887 149.685 30.3278L149.681 31.0195L148.99 31.065L139.393 31.6911L138.574 31.7443L138.603 30.9241C138.756 26.4873 138.897 22.0759 139.026 17.6899L139.026 17.6879C139.168 13.3061 139.259 8.89969 139.299 4.4697L139.306 3.7858L139.987 3.73559L148.868 3.08724L149.667 3.02855L149.665 3.83057Z" fill="#0F172A" stroke="white" stroke-width="1.48567"/>
<defs>
<filter id="filter0_i_401_13209" x="80.5215" y="14.8564" width="11.1425" height="10.3999" filterUnits="userSpaceOnUse" color-interpolation-filters="sRGB">
<feFlood flood-opacity="0" result="BackgroundImageFix"/>
<feBlend mode="normal" in="SourceGraphic" in2="BackgroundImageFix" result="shape"/>
<feColorMatrix in="SourceAlpha" type="matrix" values="0 0 0 0 0 0 0 0 0 0 0 0 0 0 0 0 0 0 127 0" result="hardAlpha"/>
<feOffset dx="-0.371418" dy="1.11425"/>
<feComposite in2="hardAlpha" operator="arithmetic" k2="-1" k3="1"/>
<feColorMatrix type="matrix" values="0 0 0 0 0.9375 0 0 0 0 0.9375 0 0 0 0 0.9375 0 0 0 0.25 0"/>
<feBlend mode="normal" in2="shape" result="effect1_innerShadow_401_13209"/>
</filter>
<linearGradient id="paint0_linear_401_13209" x1="86.0928" y1="14.8564" x2="86.0928" y2="25.2561" gradientUnits="userSpaceOnUse">
<stop offset="0.286458" stop-color="#B7B7B7"/>
<stop offset="1" stop-color="#9B9B9B"/>
</linearGradient>
</defs>
</svg>
