<svg width="40" height="40" viewBox="0 0 40 40" fill="none" xmlns="http://www.w3.org/2000/svg">
<path d="M23.5418 26.2362C23.5418 25.0505 22.5883 24.082 21.4042 24.082H7.95517C6.77869 24.082 5.8175 25.0429 5.8175 26.2362C5.8175 27.4217 6.771 28.3904 7.95517 28.3904H21.4042C22.5807 28.3827 23.5418 27.4217 23.5418 26.2362Z" fill="url(#paint0_linear_401_13211)"/>
<path d="M32.385 17.4009C33.3751 16.0112 33.9631 14.3075 33.9631 12.4545C33.9631 7.77506 30.2268 3.98282 25.6163 3.98282H24.4713V3.06418C24.4713 1.89432 23.5353 0.952148 22.3905 0.952148C21.2378 0.952148 20.3095 1.90218 20.3095 3.06418V3.98282H18.19V3.99067H16.8516C15.7377 3.99067 14.8403 4.90928 14.8403 6.03203C14.8403 7.16265 15.7454 8.07341 16.8516 8.07341H18.19V8.08126H25.5853C27.8983 8.08126 29.7703 9.98131 29.7703 12.3289V12.3367C29.7703 14.6215 27.9911 16.5294 25.7555 16.5765C25.3455 16.5844 24.1078 16.5765 24.1078 16.5765C24.1 16.5765 24.0845 16.5765 24.0768 16.5765H24.0613C22.8313 16.6079 21.849 17.6836 21.9805 18.9713C22.0965 20.0939 23.0866 20.9184 24.2006 20.9184H28.4243C28.8575 20.9184 29.2985 20.9498 29.7161 21.0598C31.9828 21.6643 33.6615 23.7528 33.6615 26.2496C33.6615 29.2096 31.2943 31.6121 28.378 31.6121H15.6294H13.2313C12.1019 31.6121 11.0962 32.4521 10.9879 33.5906C10.8641 34.8939 11.8775 35.9931 13.1384 35.9931H20.3095V36.9353C20.3095 38.1053 21.2455 39.0474 22.3905 39.0474C23.543 39.0474 24.4713 38.0974 24.4713 36.9353V35.9931H26.2815H26.2893H28.5636C33.8471 35.9931 38.125 31.6434 38.125 26.2888C38.1326 22.3159 35.7655 18.8928 32.385 17.4009Z" fill="url(#paint1_linear_401_13211)"/>
<path d="M15.4649 18.7523C15.4649 17.5668 14.5061 16.5981 13.3153 16.5981H3.70423C2.52122 16.5981 1.55469 17.559 1.55469 18.7523C1.55469 19.938 2.51348 20.9065 3.70423 20.9065H13.3153C14.5061 20.9065 15.4649 19.938 15.4649 18.7523Z" fill="url(#paint2_linear_401_13211)"/>
<path d="M11.3324 14.5574H20.9435C22.1265 14.5574 23.093 13.5966 23.093 12.4032C23.093 11.2176 22.1343 10.249 20.9435 10.249H11.3324C10.1494 10.249 9.18286 11.2099 9.18286 12.4032C9.18286 13.5888 10.1416 14.5574 11.3324 14.5574Z" fill="url(#paint3_linear_401_13211)"/>
<defs>
<linearGradient id="paint0_linear_401_13211" x1="-168.662" y1="4.36223" x2="-165.853" y2="87.3074" gradientUnits="userSpaceOnUse">
<stop stop-color="#00B5F6"/>
<stop offset="1" stop-color="#0067FF"/>
</linearGradient>
<linearGradient id="paint1_linear_401_13211" x1="-22.9992" y1="26.9891" x2="44.134" y2="86.9208" gradientUnits="userSpaceOnUse">
<stop stop-color="#00B5F6"/>
<stop offset="1" stop-color="#0067FF"/>
</linearGradient>
<linearGradient id="paint2_linear_401_13211" x1="-134.076" y1="6.77825" x2="-129.445" y2="90.5763" gradientUnits="userSpaceOnUse">
<stop stop-color="#00B5F6"/>
<stop offset="1" stop-color="#0067FF"/>
</linearGradient>
<linearGradient id="paint3_linear_401_13211" x1="-125.674" y1="1.78261" x2="-121.043" y2="85.5808" gradientUnits="userSpaceOnUse">
<stop stop-color="#00B5F6"/>
<stop offset="1" stop-color="#0067FF"/>
</linearGradient>
</defs>
</svg>
