<svg width="116" height="40" viewBox="0 0 116 40" fill="none" xmlns="http://www.w3.org/2000/svg">
<g clip-path="url(#clip0_401_13212)">
<mask id="mask0_401_13212" style="mask-type:luminance" maskUnits="userSpaceOnUse" x="0" y="0" width="115" height="40">
<path d="M114.909 0H0.727295V40H114.909V0Z" fill="white"/>
</mask>
<g mask="url(#mask0_401_13212)">
<path d="M8.63639 5.18182C10.1818 5.18182 11.4546 5.81818 12.4546 7.09091C13.4546 8.36364 14 9.90909 14 11.7273C14 13.5455 13.4546 15.0909 12.4546 16.3636C11.4546 17.6364 10.1818 18.2727 8.63639 18.2727C7.54548 18.2727 6.54548 17.9091 5.8182 17.2727C5.00002 16.5455 4.45457 15.6364 4.09093 14.4545V18H0.727295V0H4.00002V9C4.36366 7.81818 4.90911 6.90909 5.7273 6.18182C6.54548 5.54545 7.45457 5.18182 8.63639 5.18182ZM7.45457 15.1818C8.36366 15.1818 9.09093 14.8182 9.72729 14.1818C10.3637 13.5455 10.6364 12.6364 10.6364 11.6364C10.6364 10.6364 10.3637 9.81818 9.72729 9.18182C9.09093 8.54546 8.27275 8.18182 7.45457 8.18182C6.45457 8.18182 5.63639 8.54546 5.00002 9.18182C4.36366 9.81818 4.00002 10.6364 4.00002 11.6364C4.00002 12.6364 4.36366 13.4545 5.00002 14.1818C5.63639 14.9091 6.45457 15.1818 7.45457 15.1818Z" fill="#1F142C"/>
<path d="M17 8.27291H14.4545V5.45472H17V1.81836L20.2727 0.818359V5.45472H23.5454V8.36381H20.2727V13.3638C20.2727 14.5456 20.8182 15.0911 22 15.0911H23.4545V18.0002H22C20.2727 18.0002 19 17.6365 18.1818 16.8184C17.3636 16.0002 16.9091 14.8184 16.9091 13.182L17 8.27291Z" fill="#1F142C"/>
<path d="M26.4546 16.2721C25.1818 14.9994 24.5455 13.454 24.5455 11.6358C24.5455 9.81761 25.1818 8.27215 26.4546 6.99942C27.7273 5.7267 29.3637 5.09033 31.1818 5.09033C32.5455 5.09033 33.7273 5.45397 34.8182 6.09033C35.9091 6.7267 36.7273 7.7267 37.1818 8.99942L34.1818 9.99942C33.9091 9.36306 33.5455 8.8176 33 8.54488C32.5455 8.36306 31.9091 8.18124 31.2727 8.18124C30.3637 8.18124 29.5455 8.54488 28.9091 9.18124C28.2727 9.81761 28 10.6358 28 11.6358C28 12.6358 28.2727 13.454 28.9091 14.1812C29.5455 14.8176 30.3637 15.1812 31.2727 15.1812C31.9091 15.1812 32.5455 14.9994 33.0909 14.6358C33.6364 14.2722 34 13.8176 34.2727 13.0903L37.2727 14.0903C36.7273 15.3631 35.9091 16.3631 34.9091 16.9994C33.8182 17.7267 32.6364 17.9994 31.2727 17.9994C29.3637 18.1812 27.7273 17.5449 26.4546 16.2721Z" fill="#1F142C"/>
<path d="M8.63639 22.1821C10.1818 22.1821 11.4546 22.8185 12.4546 24.0912C13.4546 25.3639 14 26.9094 14 28.7276C14 30.5458 13.4546 32.0912 12.4546 33.3639C11.4546 34.6367 10.1818 35.273 8.63639 35.273C7.54548 35.273 6.54548 34.9094 5.8182 34.273C5.00002 33.5458 4.45457 32.6367 4.09093 31.4549V39.9094H0.727295V22.4549H4.00002V26.0003C4.36366 24.8185 5.00002 23.9094 5.7273 23.1821C6.54548 22.5458 7.45457 22.1821 8.63639 22.1821ZM7.45457 32.1821C8.36366 32.1821 9.09093 31.8185 9.72729 31.1821C10.3637 30.5458 10.6364 29.6367 10.6364 28.6367C10.6364 27.6367 10.3637 26.8185 9.72729 26.1821C9.09093 25.5458 8.36366 25.1821 7.45457 25.1821C6.45457 25.1821 5.63639 25.5458 5.00002 26.1821C4.36366 26.8185 4.00002 27.6367 4.00002 28.6367C4.00002 29.6367 4.36366 30.4549 5.00002 31.1821C5.63639 31.9094 6.45457 32.1821 7.45457 32.1821Z" fill="#1F142C"/>
<path d="M19.2727 22.4547V25.7274C19.6364 24.182 20.2727 23.182 21.1818 22.7274C22 22.2729 23 22.182 24 22.4547V25.4547C22.7273 25.0001 21.5455 25.0001 20.6364 25.5456C19.7273 26.0001 19.2727 26.8183 19.2727 27.9092V34.9092H16V22.4547H19.2727Z" fill="#1F142C"/>
<path d="M30.3636 22.1821C31.9091 22.1821 33.2727 22.6367 34.1818 23.4549C35.1818 24.273 35.6364 25.4549 35.6364 27.0912V35.0003H32.3636V31.8185C31.6364 34.0912 30.2727 35.1821 28.0909 35.1821C27.0909 35.1821 26.1818 34.8185 25.4546 34.1821C24.7273 33.5458 24.3636 32.6367 24.3636 31.5458C24.3636 29.1821 26 27.9094 29.1818 27.5458L31.1818 27.3639C32 27.273 32.3636 27.0003 32.3636 26.3639C32.3636 25.9094 32.1818 25.5458 31.8182 25.273C31.4546 25.0003 30.9091 24.8185 30.3636 24.8185C29.7273 24.8185 29.1818 25.0003 28.8182 25.273C28.3636 25.6367 28.1818 26.0912 28 26.6367L24.7273 25.9094C24.9091 24.8185 25.4546 23.9094 26.4546 23.1821C27.5455 22.5458 28.8182 22.1821 30.3636 22.1821ZM29.2727 32.5458C30.0909 32.5458 30.9091 32.273 31.4546 31.6367C32.0909 31.0912 32.3636 30.3639 32.3636 29.6367V29.3639C32.1818 29.5458 31.8182 29.6367 31.2727 29.7276L29.1818 30.0003C28.7273 30.0912 28.3636 30.1821 28.0909 30.4549C27.8182 30.7276 27.6364 31.0003 27.6364 31.3639C27.6364 31.7276 27.8182 32.0003 28.0909 32.273C28.4546 32.4549 28.8182 32.5458 29.2727 32.5458Z" fill="#1F142C"/>
<path d="M47.7273 25.8185V22.3639H51V33.4549C51 35.273 50.3636 36.8185 49.0909 38.0912C47.8182 39.3639 46.1818 40.0003 44.2727 40.0003C43 40.0003 41.8182 39.7276 40.8182 39.0912C39.8182 38.4549 39 37.6367 38.4545 36.6367L41.3636 35.0912C42 36.3639 42.9091 37.0003 44.2727 37.0003C45.1818 37.0003 46 36.6367 46.7273 36.0003C47.3636 35.3639 47.7273 34.4549 47.7273 33.4549V31.0912C47.3636 32.1821 46.7273 33.0912 46 33.7276C45.1818 34.3639 44.2727 34.7276 43.1818 34.7276C41.6364 34.7276 40.3636 34.0912 39.3636 32.9094C38.3636 31.7276 37.8182 30.1821 37.8182 28.4549C37.8182 26.6367 38.3636 25.1821 39.3636 24.0003C40.3636 22.8185 41.6364 22.1821 43.1818 22.1821C44.2727 22.1821 45.1818 22.5458 46 23.1821C46.7273 23.8185 47.3636 24.7276 47.7273 25.8185ZM44.3636 31.8185C45.2727 31.8185 46.0909 31.5458 46.7273 30.9094C47.3636 30.273 47.6364 29.4549 47.6364 28.5458C47.6364 27.6367 47.3636 26.8185 46.7273 26.1821C46.0909 25.5458 45.2727 25.273 44.3636 25.273C43.4545 25.273 42.6364 25.5458 42 26.1821C41.3636 26.8185 41.0909 27.6367 41.0909 28.5458C41.0909 29.4549 41.3636 30.273 42 30.9094C42.7273 31.4549 43.4545 31.8185 44.3636 31.8185Z" fill="#1F142C"/>
<path d="M53.4545 29.6364V22.4546H56.7273V29.6364C56.7273 30.3637 57 31 57.4545 31.4546C57.9091 31.9091 58.5454 32.1819 59.3636 32.1819C60.0909 32.1819 60.7273 31.9091 61.2727 31.4546C61.7273 31 62 30.3637 62 29.6364V22.4546H65.2727V29.6364C65.2727 31.2728 64.7273 32.6364 63.6363 33.6364C62.5454 34.6364 61.0909 35.1819 59.4545 35.1819C57.7273 35.1819 56.3636 34.6364 55.2727 33.6364C54 32.6364 53.4545 31.2728 53.4545 29.6364Z" fill="#1F142C"/>
<path d="M73.7273 22.1821C75.8182 22.1821 77.5455 22.9094 78.8182 24.4549C80.0909 26.0003 80.5455 27.7276 80.1818 29.8185H70.5455C70.7273 30.5458 71.1818 31.1821 71.8182 31.6367C72.4546 32.0912 73.1818 32.3639 74 32.3639C75.4546 32.3639 76.4546 31.8185 77.0909 30.6367L79.8182 31.8185C79.2727 32.8185 78.4546 33.6367 77.4546 34.273C76.4546 34.9094 75.2727 35.1821 73.9091 35.1821C72 35.1821 70.4546 34.5458 69.1818 33.273C67.9091 32.0003 67.2727 30.4549 67.2727 28.6367C67.2727 26.8185 67.9091 25.273 69.1818 24.0003C70.3637 22.8185 71.9091 22.1821 73.7273 22.1821ZM73.7273 25.0003C73 25.0003 72.3636 25.1821 71.8182 25.6367C71.2727 26.0912 70.8182 26.6367 70.6364 27.3639H77C76.8182 26.6367 76.3636 26.0912 75.8182 25.6367C75.1818 25.1821 74.5455 25.0003 73.7273 25.0003Z" fill="#1F142C"/>
<path d="M47.7273 3.36377C51.3637 3.36377 54.3637 6.36377 54.3637 10.0001C54.3637 13.6365 51.3637 16.6365 47.7273 16.6365C44.0909 16.6365 41.0909 13.6365 41.0909 10.0001C41.0909 6.36377 44.0909 3.36377 47.7273 3.36377Z" fill="#F28A48"/>
<path d="M47.7273 1.90869C43.2727 1.90869 39.5455 5.54505 39.5455 10.0905C39.5455 14.5451 43.1818 18.2723 47.7273 18.2723C52.1818 18.2723 55.9091 14.636 55.9091 10.0905C55.8182 5.54505 52.1818 1.90869 47.7273 1.90869Z" fill="#F28A48"/>
<path d="M62.4546 3.36324C66.0909 3.36324 69.0909 6.36324 69.0909 9.9996C69.0909 13.636 66.0909 16.636 62.4546 16.636C58.8182 16.636 55.8182 13.636 55.8182 9.9996C55.8182 6.36324 58.8182 3.36324 62.4546 3.36324ZM62.4546 1.90869C58 1.90869 54.2728 5.54505 54.2728 10.0905C54.2728 14.5451 57.9091 18.2723 62.4546 18.2723C66.9091 18.2723 70.6364 14.636 70.6364 10.0905C70.6364 5.54505 67 1.90869 62.4546 1.90869Z" fill="#F28A48"/>
<path d="M77.2727 3.36377C80.9091 3.36377 83.9091 6.36377 83.9091 10.0001C83.9091 13.6365 80.9091 16.6365 77.2727 16.6365C73.6364 16.6365 70.6364 13.6365 70.6364 10.0001C70.6364 6.36377 73.5455 3.36377 77.2727 3.36377Z" fill="#F28A48"/>
<path d="M77.2727 1.90869C72.8182 1.90869 69.0909 5.54505 69.0909 10.0905C69.0909 14.5451 72.7273 18.2723 77.2727 18.2723C81.7273 18.2723 85.4545 14.636 85.4545 10.0905C85.3636 5.54505 81.7273 1.90869 77.2727 1.90869Z" fill="#F28A48"/>
<path d="M92 3.36324C95.6364 3.36324 98.6364 6.36324 98.6364 9.9996C98.6364 13.636 95.6364 16.636 92 16.636C88.3637 16.636 85.3637 13.636 85.3637 9.9996C85.3637 6.36324 88.3637 3.36324 92 3.36324ZM92 1.90869C87.5455 1.90869 83.8182 5.54505 83.8182 10.0905C83.8182 14.5451 87.4546 18.2723 92 18.2723C96.4546 18.2723 100.182 14.636 100.182 10.0905C100.182 5.54505 96.5455 1.90869 92 1.90869Z" fill="#F28A48"/>
<path d="M106.818 3.36377C110.455 3.36377 113.455 6.36377 113.455 10.0001C113.455 13.6365 110.455 16.6365 106.818 16.6365C103.182 16.6365 100.182 13.6365 100.182 10.0001C100.182 6.36377 103.091 3.36377 106.818 3.36377Z" fill="#F28A48"/>
<path d="M106.818 1.90869C102.364 1.90869 98.6364 5.54505 98.6364 10.0905C98.6364 14.5451 102.273 18.2723 106.818 18.2723C111.273 18.2723 115 14.636 115 10.0905C114.909 5.54505 111.273 1.90869 106.818 1.90869Z" fill="#F28A48"/>
</g>
</g>
<defs>
<clipPath id="clip0_401_13212">
<rect width="114.545" height="40" fill="white" transform="translate(0.727295)"/>
</clipPath>
</defs>
</svg>
