<svg width="76" height="40" viewBox="0 0 76 40" fill="none" xmlns="http://www.w3.org/2000/svg">
<g clip-path="url(#clip0_401_13212)">
<mask id="mask0_401_13212" style="mask-type:luminance" maskUnits="userSpaceOnUse" x="0" y="7" width="75" height="26">
<path d="M74.9909 7H0.772766V33H74.9909V7Z" fill="white"/>
</mask>
<g mask="url(#mask0_401_13212)">
<path d="M5.91368 10.3682C6.91822 10.3682 7.74549 10.7818 8.39549 11.6091C9.04549 12.4364 9.40004 13.4409 9.40004 14.6227C9.40004 15.8045 9.04549 16.8091 8.39549 17.6364C7.74549 18.4636 6.91822 18.8773 5.91368 18.8773C5.20458 18.8773 4.55458 18.6409 4.08186 18.2273C3.55004 17.7545 3.19549 17.1636 2.95913 16.3955V18.7H0.772766V7H2.90004V12.85C3.1364 12.0818 3.49095 11.4909 4.02277 11.0182C4.55458 10.6045 5.14549 10.3682 5.91368 10.3682ZM5.14549 16.8682C5.7364 16.8682 6.20913 16.6318 6.62277 16.2182C7.0364 15.8045 7.21368 15.2136 7.21368 14.5636C7.21368 13.9136 7.0364 13.3818 6.62277 12.9682C6.20913 12.5545 5.67731 12.3182 5.14549 12.3182C4.49549 12.3182 3.96368 12.5545 3.55004 12.9682C3.1364 13.3818 2.90004 13.9136 2.90004 14.5636C2.90004 15.2136 3.1364 15.7455 3.55004 16.2182C3.96368 16.6909 4.49549 16.8682 5.14549 16.8682Z" fill="#1F142C"/>
<path d="M11.35 12.3772H9.69543V10.5454H11.35V8.18174L13.4773 7.53174V10.5454H15.6045V12.4363H13.4773V15.6863C13.4773 16.4545 13.8318 16.809 14.6 16.809H15.5454V18.6999H14.6C13.4773 18.6999 12.65 18.4636 12.1182 17.9317C11.5863 17.3999 11.2909 16.6317 11.2909 15.5681L11.35 12.3772Z" fill="#1F142C"/>
<path d="M17.4955 17.5773C16.6682 16.75 16.2546 15.7454 16.2546 14.5636C16.2546 13.3818 16.6682 12.3773 17.4955 11.55C18.3228 10.7227 19.3864 10.3091 20.5682 10.3091C21.4546 10.3091 22.2228 10.5454 22.9318 10.9591C23.6409 11.3727 24.1728 12.0227 24.4682 12.85L22.5182 13.5C22.3409 13.0864 22.1046 12.7318 21.75 12.5545C21.4546 12.4364 21.0409 12.3182 20.6273 12.3182C20.0364 12.3182 19.5046 12.5545 19.0909 12.9682C18.6773 13.3818 18.5 13.9136 18.5 14.5636C18.5 15.2136 18.6773 15.7454 19.0909 16.2182C19.5046 16.6318 20.0364 16.8682 20.6273 16.8682C21.0409 16.8682 21.4546 16.75 21.8091 16.5136C22.1637 16.2773 22.4 15.9818 22.5773 15.5091L24.5273 16.1591C24.1728 16.9864 23.6409 17.6364 22.9909 18.05C22.2818 18.5227 21.5137 18.7 20.6273 18.7C19.3864 18.8182 18.3228 18.4045 17.4955 17.5773Z" fill="#1F142C"/>
<path d="M5.91368 21.4189C6.91822 21.4189 7.74549 21.8326 8.39549 22.6599C9.04549 23.4871 9.40004 24.4917 9.40004 25.6735C9.40004 26.8553 9.04549 27.8599 8.39549 28.6871C7.74549 29.5144 6.91822 29.928 5.91368 29.928C5.20458 29.928 4.55458 29.6917 4.08186 29.278C3.55004 28.8053 3.19549 28.2144 2.95913 27.4462V32.9417H0.772766V21.5962H2.90004V23.9008C3.1364 23.1326 3.55004 22.5417 4.02277 22.0689C4.55458 21.6553 5.14549 21.4189 5.91368 21.4189ZM5.14549 27.9189C5.7364 27.9189 6.20913 27.6826 6.62277 27.2689C7.0364 26.8553 7.21368 26.2644 7.21368 25.6144C7.21368 24.9644 7.0364 24.4326 6.62277 24.0189C6.20913 23.6053 5.7364 23.3689 5.14549 23.3689C4.49549 23.3689 3.96368 23.6053 3.55004 24.0189C3.1364 24.4326 2.90004 24.9644 2.90004 25.6144C2.90004 26.2644 3.1364 26.7962 3.55004 27.2689C3.96368 27.7417 4.49549 27.9189 5.14549 27.9189Z" fill="#1F142C"/>
<path d="M12.8273 21.5953V23.7226C13.0636 22.718 13.4773 22.068 14.0682 21.7726C14.6 21.4771 15.25 21.418 15.9 21.5953V23.5453C15.0727 23.2499 14.3046 23.2499 13.7136 23.6044C13.1227 23.8999 12.8273 24.4317 12.8273 25.1408V29.6908H10.7V21.5953H12.8273Z" fill="#1F142C"/>
<path d="M20.0364 21.4189C21.0409 21.4189 21.9273 21.7144 22.5182 22.2462C23.1682 22.778 23.4636 23.5462 23.4636 24.6099V29.7508H21.3364V27.6826C20.8636 29.1599 19.9773 29.8689 18.5591 29.8689C17.9091 29.8689 17.3182 29.6326 16.8454 29.2189C16.3727 28.8053 16.1364 28.2144 16.1364 27.5053C16.1364 25.9689 17.2 25.1417 19.2682 24.9053L20.5682 24.7871C21.1 24.728 21.3364 24.5508 21.3364 24.1371C21.3364 23.8417 21.2182 23.6053 20.9818 23.428C20.7454 23.2508 20.3909 23.1326 20.0364 23.1326C19.6227 23.1326 19.2682 23.2508 19.0318 23.428C18.7364 23.6644 18.6182 23.9599 18.5 24.3144L16.3727 23.8417C16.4909 23.1326 16.8454 22.5417 17.4954 22.0689C18.2045 21.6553 19.0318 21.4189 20.0364 21.4189ZM19.3273 28.1553C19.8591 28.1553 20.3909 27.978 20.7454 27.5644C21.1591 27.2099 21.3364 26.7371 21.3364 26.2644V26.0871C21.2182 26.2053 20.9818 26.2644 20.6273 26.3235L19.2682 26.5008C18.9727 26.5599 18.7364 26.6189 18.5591 26.7962C18.3818 26.9735 18.2636 27.1508 18.2636 27.3871C18.2636 27.6235 18.3818 27.8008 18.5591 27.978C18.7954 28.0962 19.0318 28.1553 19.3273 28.1553Z" fill="#1F142C"/>
<path d="M31.3227 23.7826V21.5371H33.45V28.7462C33.45 29.928 33.0364 30.9326 32.2091 31.7599C31.3818 32.5871 30.3182 33.0008 29.0773 33.0008C28.25 33.0008 27.4818 32.8235 26.8318 32.4099C26.1818 31.9962 25.65 31.4644 25.2955 30.8144L27.1864 29.8099C27.6 30.6371 28.1909 31.0508 29.0773 31.0508C29.6682 31.0508 30.2 30.8144 30.6727 30.4008C31.0864 29.9871 31.3227 29.3962 31.3227 28.7462V27.2099C31.0864 27.9189 30.6727 28.5099 30.2 28.9235C29.6682 29.3371 29.0773 29.5735 28.3682 29.5735C27.3637 29.5735 26.5364 29.1599 25.8864 28.3917C25.2364 27.6235 24.8818 26.6189 24.8818 25.4962C24.8818 24.3144 25.2364 23.3689 25.8864 22.6008C26.5364 21.8326 27.3637 21.4189 28.3682 21.4189C29.0773 21.4189 29.6682 21.6553 30.2 22.0689C30.6727 22.4826 31.0864 23.0735 31.3227 23.7826ZM29.1364 27.6826C29.7273 27.6826 30.2591 27.5053 30.6727 27.0917C31.0864 26.678 31.2637 26.1462 31.2637 25.5553C31.2637 24.9644 31.0864 24.4326 30.6727 24.0189C30.2591 23.6053 29.7273 23.428 29.1364 23.428C28.5455 23.428 28.0137 23.6053 27.6 24.0189C27.1864 24.4326 27.0091 24.9644 27.0091 25.5553C27.0091 26.1462 27.1864 26.678 27.6 27.0917C28.0727 27.4462 28.5455 27.6826 29.1364 27.6826Z" fill="#1F142C"/>
<path d="M35.0454 26.2639V21.5957H37.1727V26.2639C37.1727 26.7366 37.35 27.1502 37.6454 27.4457C37.9409 27.7412 38.3545 27.9184 38.8863 27.9184C39.3591 27.9184 39.7727 27.7412 40.1273 27.4457C40.4227 27.1502 40.6 26.7366 40.6 26.2639V21.5957H42.7273V26.2639C42.7273 27.3275 42.3727 28.2139 41.6636 28.8639C40.9545 29.5139 40.0091 29.8684 38.9454 29.8684C37.8227 29.8684 36.9363 29.5139 36.2273 28.8639C35.4 28.2139 35.0454 27.3275 35.0454 26.2639Z" fill="#1F142C"/>
<path d="M48.2227 21.4189C49.5818 21.4189 50.7046 21.8917 51.5318 22.8962C52.3591 23.9008 52.6546 25.0235 52.4182 26.3826H46.1546C46.2727 26.8553 46.5682 27.2689 46.9818 27.5644C47.3955 27.8599 47.8682 28.0371 48.4 28.0371C49.3455 28.0371 49.9955 27.6826 50.4091 26.9144L52.1818 27.6826C51.8273 28.3326 51.2955 28.8644 50.6455 29.278C49.9955 29.6917 49.2273 29.8689 48.3409 29.8689C47.1 29.8689 46.0955 29.4553 45.2682 28.628C44.4409 27.8008 44.0273 26.7962 44.0273 25.6144C44.0273 24.4326 44.4409 23.428 45.2682 22.6008C46.0364 21.8326 47.0409 21.4189 48.2227 21.4189ZM48.2227 23.2508C47.75 23.2508 47.3364 23.3689 46.9818 23.6644C46.6273 23.9599 46.3318 24.3144 46.2136 24.7871H50.35C50.2318 24.3144 49.9364 23.9599 49.5818 23.6644C49.1682 23.3689 48.7546 23.2508 48.2227 23.2508Z" fill="#1F142C"/>
<path d="M31.3227 9.18652C33.6864 9.18652 35.6364 11.1365 35.6364 13.5002C35.6364 15.8638 33.6864 17.8138 31.3227 17.8138C28.9591 17.8138 27.0091 15.8638 27.0091 13.5002C27.0091 11.1365 28.9591 9.18652 31.3227 9.18652Z" fill="#F28A48"/>
<path d="M31.3228 8.24121C28.4273 8.24121 26.0046 10.6048 26.0046 13.5594C26.0046 16.4548 28.3682 18.8776 31.3228 18.8776C34.2182 18.8776 36.6409 16.5139 36.6409 13.5594C36.5818 10.6048 34.2182 8.24121 31.3228 8.24121Z" fill="#F28A48"/>
<path d="M40.8955 9.18667C43.2591 9.18667 45.2091 11.1367 45.2091 13.5003C45.2091 15.8639 43.2591 17.8139 40.8955 17.8139C38.5318 17.8139 36.5818 15.8639 36.5818 13.5003C36.5818 11.1367 38.5318 9.18667 40.8955 9.18667ZM40.8955 8.24121C38 8.24121 35.5773 10.6048 35.5773 13.5594C35.5773 16.4548 37.9409 18.8776 40.8955 18.8776C43.7909 18.8776 46.2137 16.5139 46.2137 13.5594C46.2137 10.6048 43.85 8.24121 40.8955 8.24121Z" fill="#F28A48"/>
<path d="M50.5273 9.18652C52.8909 9.18652 54.8409 11.1365 54.8409 13.5002C54.8409 15.8638 52.8909 17.8138 50.5273 17.8138C48.1636 17.8138 46.2136 15.8638 46.2136 13.5002C46.2136 11.1365 48.1045 9.18652 50.5273 9.18652Z" fill="#F28A48"/>
<path d="M50.5273 8.24121C47.6318 8.24121 45.2091 10.6048 45.2091 13.5594C45.2091 16.4548 47.5727 18.8776 50.5273 18.8776C53.4227 18.8776 55.8455 16.5139 55.8455 13.5594C55.7864 10.6048 53.4227 8.24121 50.5273 8.24121Z" fill="#F28A48"/>
<path d="M60.1 9.18667C62.4637 9.18667 64.4137 11.1367 64.4137 13.5003C64.4137 15.8639 62.4637 17.8139 60.1 17.8139C57.7364 17.8139 55.7864 15.8639 55.7864 13.5003C55.7864 11.1367 57.7364 9.18667 60.1 9.18667ZM60.1 8.24121C57.2046 8.24121 54.7819 10.6048 54.7819 13.5594C54.7819 16.4548 57.1455 18.8776 60.1 18.8776C62.9955 18.8776 65.4182 16.5139 65.4182 13.5594C65.4182 10.6048 63.0546 8.24121 60.1 8.24121Z" fill="#F28A48"/>
<path d="M69.7318 9.18652C72.0955 9.18652 74.0455 11.1365 74.0455 13.5002C74.0455 15.8638 72.0955 17.8138 69.7318 17.8138C67.3682 17.8138 65.4182 15.8638 65.4182 13.5002C65.4182 11.1365 67.3091 9.18652 69.7318 9.18652Z" fill="#F28A48"/>
<path d="M69.7318 8.24121C66.8364 8.24121 64.4136 10.6048 64.4136 13.5594C64.4136 16.4548 66.7773 18.8776 69.7318 18.8776C72.6273 18.8776 75.05 16.5139 75.05 13.5594C74.9909 10.6048 72.6273 8.24121 69.7318 8.24121Z" fill="#F28A48"/>
</g>
</g>
<defs>
<clipPath id="clip0_401_13212">
<rect width="74.4545" height="26" fill="white" transform="translate(0.772766 7)"/>
</clipPath>
</defs>
</svg>
