<svg width="46" height="46" viewBox="0 0 46 46" fill="none" xmlns="http://www.w3.org/2000/svg">
<path d="M7.72723 18.5176C7.72723 8.95702 15.5031 3.2207 23.0241 3.2207C30.5451 3.2207 38.3209 8.95702 38.3209 18.5176C38.3209 27.6957 24.5538 41.7178 23.9164 42.3552C23.6615 42.6101 23.4065 42.7376 23.0241 42.7376C22.6417 42.7376 22.3867 42.6101 22.1318 42.3552C21.4944 41.7178 7.72723 27.5682 7.72723 18.5176Z" fill="#0B9072"/>
<mask id="mask0_401_13213" style="mask-type:alpha" maskUnits="userSpaceOnUse" x="7" y="3" width="32" height="40">
<path d="M7.7272 18.518C7.7272 8.95751 15.5031 3.22119 23.0241 3.22119C30.545 3.22119 38.3209 8.95751 38.3209 18.518C38.3209 27.6962 24.5537 41.7183 23.9164 42.3556C23.6614 42.6106 23.4065 42.7381 23.0241 42.7381C22.6416 42.7381 22.3867 42.6106 22.1317 42.3556C21.4944 41.7183 7.7272 27.5687 7.7272 18.518Z" fill="#0B9072"/>
</mask>
<g mask="url(#mask0_401_13213)">
<rect x="22.9276" y="22.9805" width="15.1302" height="15.373" transform="rotate(45 22.9276 22.9805)" fill="#0099AF"/>
<path d="M23.2923 23.885L34.5637 34.3513C43.5808 23.1873 40.8255 12.3453 38.3208 8.31982L23.2923 23.885Z" fill="#051173"/>
<rect x="11.9246" y="31.7056" width="33.4933" height="4.40657" transform="rotate(-45 11.9246 31.7056)" fill="#53C5D5"/>
<rect x="25.3347" y="23.0806" width="13.8051" height="4.40657" transform="rotate(45 25.3347 23.0806)" fill="#53C5D5"/>
</g>
<circle cx="22.7556" cy="19.3222" r="9.12444" fill="#E4EBEC"/>
<g clip-path="url(#clip0_401_13213)">
<path d="M25.7904 19.7046C26.509 19.5636 27.0533 19.1219 27.2051 18.1838C27.4145 16.9024 26.4063 16.1837 25.024 15.6856L25.4876 13.9545L24.3918 13.6609L23.9399 15.3463C23.6516 15.2691 23.3563 15.1958 23.0622 15.123L23.5165 13.4266L22.4217 13.1331L21.9578 14.8637C21.7193 14.8048 21.4851 14.7468 21.2576 14.6858L21.259 14.6807L19.7477 14.2751L19.4465 15.4004C19.4465 15.4004 20.2596 15.6026 20.2424 15.6132C20.686 15.7324 20.7645 16.019 20.7488 16.2441L20.2208 18.2161L19.4786 20.9862C19.4231 21.1152 19.2834 21.3076 18.9731 21.2249C18.984 21.2406 18.176 21.0112 18.176 21.0112L17.6215 22.2112L19.0472 22.5932C19.3128 22.6647 19.5728 22.7386 19.8283 22.8092L19.3602 24.5601L20.4546 24.8536L20.9185 23.1213C21.218 23.2078 21.508 23.2883 21.792 23.364L21.3297 25.0881L22.4254 25.3817L22.8943 23.6341C24.7634 24.0259 26.1724 23.9252 26.7785 22.3045C27.2666 20.9997 26.7714 20.2262 25.7904 19.7046ZM22.7565 16.3687C23.3745 16.5343 25.3688 16.8658 25.0363 18.1075C24.7171 19.2978 22.8114 18.6382 22.1928 18.4724L22.7565 16.3687V16.3687ZM21.2862 21.8539L21.9082 19.5344C22.6508 19.7332 25.0346 20.1519 24.6693 21.5167C24.3189 22.8256 22.0293 22.0524 21.2862 21.8539Z" fill="#0B9072"/>
</g>
<defs>
<clipPath id="clip0_401_13213">
<rect width="9.65725" height="12.2325" fill="white" transform="translate(19.8602 12.2388) rotate(15)"/>
</clipPath>
</defs>
</svg>
