<svg width="40" height="42" viewBox="0 0 40 42" fill="none" xmlns="http://www.w3.org/2000/svg">
<path d="M11.3022 40.3349C10.0497 40.3349 9.03467 39.319 9.03467 38.0665V3.93399C9.03467 2.68099 10.0501 1.66553 11.3022 1.66553C12.5543 1.66553 13.5702 2.68146 13.5702 3.93399V38.0665C13.5702 39.319 12.5547 40.3349 11.3022 40.3349Z" fill="#CEDC21"/>
<path d="M11.3036 40.335C10.4552 40.335 9.64181 39.8567 9.25308 39.0391C8.71594 37.9079 9.19801 36.5555 10.3301 36.017L24.0067 29.5275L9.95681 19.1764C8.94881 18.433 8.73368 17.0134 9.47661 16.0049C10.2195 14.9964 11.6401 14.7813 12.6476 15.5242L29.7495 28.1238C30.3921 28.5979 30.7389 29.3735 30.6623 30.1682C30.5858 30.9616 30.0981 31.6569 29.3767 31.9999L12.2743 40.1162C11.9611 40.2641 11.6293 40.335 11.3036 40.335Z" fill="#51B13E"/>
<path d="M11.3045 26.9186C10.6078 26.9186 9.92087 26.599 9.4766 25.9951C8.73367 24.9876 8.9488 23.5666 9.95727 22.8241L24.0067 12.4734L10.3301 5.98257C9.198 5.44544 8.71593 4.09257 9.2526 2.9609C9.7902 1.82877 11.1431 1.3467 12.2743 1.88337L29.3767 10.0006C30.0981 10.3426 30.5858 11.0389 30.6623 11.8327C30.7389 12.627 30.3921 13.4026 29.7495 13.8762L12.6476 26.4762C12.2421 26.7744 11.7712 26.9186 11.3045 26.9186Z" fill="#CEDC21"/>
<path d="M13.5702 16.2046V25.796L20.0774 21.0024L13.5702 16.2046Z" fill="#1E7A44"/>
<path d="M13.5707 12.1826H9.03467V23.2389H13.5707V12.1826Z" fill="white"/>
<path d="M13.5702 3.93399C13.5702 2.68099 12.5543 1.66553 11.3022 1.66553C10.0501 1.66553 9.03467 2.68146 9.03467 3.93399V32.4777H13.5707V3.93399H13.5702Z" fill="#CEDC21"/>
</svg>
