<svg width="40" height="40" viewBox="0 0 40 40" fill="none" xmlns="http://www.w3.org/2000/svg">
<g clip-path="url(#clip0_401_13205)">
<mask id="mask0_401_13205" style="mask-type:luminance" maskUnits="userSpaceOnUse" x="0" y="0" width="40" height="40">
<path d="M35 0H5C2.23858 0 0 2.23858 0 5V35C0 37.7614 2.23858 40 5 40H35C37.7614 40 40 37.7614 40 35V5C40 2.23858 37.7614 0 35 0Z" fill="white"/>
</mask>
<g mask="url(#mask0_401_13205)">
<path d="M40 0H0V40H40V0Z" fill="#00F5DC"/>
<path d="M32.4769 15.5959C32.4232 15.3112 32.4232 15.3112 32.4232 15.3112C32.3476 15.003 32.0072 14.7508 31.6666 14.7507L23.4119 14.75C23.0712 14.7499 22.7067 15.0153 22.6018 15.3397L20.8479 20.7606C20.7961 20.9207 20.728 21.118 20.8033 21.2246C20.8805 21.3338 21.104 21.3504 21.2765 21.3504H24.6372C24.6372 21.3504 24.7943 21.3492 24.8151 21.4583C24.8375 21.5741 24.7171 21.6989 24.7171 21.6989C21.9684 24.5913 19.2204 27.4842 16.4693 30.3742C16.4693 30.3742 16.4383 30.4092 16.4021 30.4427C16.3811 30.4621 16.361 30.4789 16.3419 30.4939C16.1311 30.6578 16.0314 30.5662 16.1189 30.2662C16.7104 28.2367 17.3029 26.2074 17.8935 24.1776C17.9086 24.1259 17.9436 23.9663 17.8907 23.8856C17.8404 23.8089 17.7555 23.7945 17.6604 23.7945C17.5572 23.7945 17.4358 23.7945 17.3081 23.7945H14.1072C13.7665 23.7945 13.6522 23.6218 13.8531 23.4108C18.427 18.6057 22.9961 13.7963 27.5662 8.98744C28.2353 8.28354 26.5279 7.69365 26.1418 7.5322C24.4679 6.83232 22.651 6.58329 20.8156 6.74915C20.2981 6.79595 19.7803 6.87548 19.2654 6.98708C17.8757 7.28849 16.5147 7.81908 15.2337 8.55447C14.4339 9.01346 13.6686 9.55111 12.9494 10.1595C11.2553 11.592 9.83373 13.4026 8.82365 15.4992C8.32193 16.5407 7.95185 17.5928 7.70154 18.6342C7.17689 20.8171 7.18119 22.9603 7.62763 24.8888C7.92443 26.1721 8.41834 27.3688 9.08826 28.4314C9.47795 29.0504 9.92982 29.625 10.4383 30.148C11.1328 30.862 11.9378 31.4821 12.8491 31.9831C13.3035 32.2331 13.7699 32.4453 14.2447 32.6221C14.9771 32.8944 15.7319 33.0824 16.4994 33.191C20.7226 33.7865 25.6339 31.9263 29.0272 27.8472C29.6767 27.0665 30.2423 26.2408 30.7232 25.3835C31.3545 24.258 31.8389 23.0778 32.1703 21.8747C32.4466 20.8714 32.616 19.8536 32.6755 18.841C32.7394 17.7576 32.68 16.6627 32.4769 15.5959Z" fill="#21201C"/>
</g>
</g>
<defs>
<clipPath id="clip0_401_13205">
<rect width="40" height="40" fill="white"/>
</clipPath>
</defs>
</svg>
