<svg width="40" height="40" viewBox="0 0 40 40" fill="none" xmlns="http://www.w3.org/2000/svg">
<path fill-rule="evenodd" clip-rule="evenodd" d="M35.786 20C35.786 32 20.0001 40 20.0001 40C20.0001 40 4.21399 32 4.21399 20V6L20.0001 0L35.786 6V20ZM19.682 18.8225L13.0452 14.0745C12.9633 14.0157 12.9144 13.9202 12.9144 13.8185V11.4599C12.9144 11.2036 13.2017 11.0555 13.4059 11.2068L19.8533 15.977C19.9617 16.0573 20.1087 16.0575 20.2174 15.9775L26.6801 11.2165C26.8844 11.0661 27.1709 11.2139 27.1709 11.4701V13.7644C27.1709 13.8657 27.1227 13.9608 27.0412 14.0196L20.3897 18.8225L20.1997 18.9428C20.0995 19.0063 19.9722 19.0063 19.872 18.9428L19.682 18.8225ZM13.2239 24.2512C13.0533 24.2515 12.9152 24.3917 12.9152 24.5645V26.4436C12.9152 26.6167 13.0537 26.7569 13.2243 26.7569L26.8475 26.7571C27.0184 26.7571 27.1567 26.6167 27.1567 26.4437V24.5532C27.1567 24.3801 27.0182 24.2397 26.8475 24.2397L21.4992 24.24C21.2015 24.24 21.0758 23.8555 21.3144 23.6753L27.0456 19.3474C27.1238 19.2883 27.1699 19.1951 27.1699 19.0962V16.7976C27.1699 16.5415 26.8835 16.3935 26.6791 16.5441L20.2164 21.3049C20.1078 21.3849 19.9607 21.3848 19.8524 21.3046L13.4049 16.5343C13.2007 16.3832 12.9134 16.531 12.9134 16.7874V19.1501C12.9134 19.2496 12.9601 19.3432 13.0391 19.4023L18.7515 23.6761C18.9913 23.8555 18.8665 24.2411 18.5685 24.2416L13.2239 24.2512Z" fill="#2F4F4F"/>
</svg>
