<svg width="48" height="40" viewBox="0 0 48 40" fill="none" xmlns="http://www.w3.org/2000/svg">
<g clip-path="url(#clip0_401_13215)">
<path d="M0.716431 34.9254H4.59703V36.8657H10.4179V34.9254H12.3582V15.5224H14.2985V11.6418H12.3582V9.70149H8.47763V11.6418H6.53733V13.5821H4.59703V15.5224H10.4179V19.403H8.47763V21.3433H4.59703V19.403H2.65673V11.6418H4.59703V9.70149H6.53733V7.76119H18.1791V9.70149H20.1194V11.6418H22.0597V15.5224H24V19.403H25.9403V21.3433H27.8806V17.4627H29.8209V15.5224H31.7612V11.6418H33.7015V7.76119H35.6418V5.8209H37.5821V1.9403H41.4627V0H45.3433V1.9403H47.2836V3.8806H43.403V1.9403H41.4627V3.8806H39.5224V27.1642H41.4627V36.8657H43.403V38.806H35.6418V36.8657H33.7015V17.4627H31.7612V19.403H29.8209V23.2836H27.8806V27.1642H25.9403V31.0448H22.0597V27.1642H20.1194V23.2836H18.1791V17.4627H16.2388V29.1045H14.2985V34.9254H12.3582V36.8657H10.4179V38.806H2.65673V36.8657H0.716431V34.9254Z" fill="#E23A5E"/>
</g>
<defs>
<clipPath id="clip0_401_13215">
<rect width="46.5672" height="40" fill="white" transform="translate(0.716431)"/>
</clipPath>
</defs>
</svg>
