<svg width="46" height="40" viewBox="0 0 46 40" fill="none" xmlns="http://www.w3.org/2000/svg">
<mask id="mask0_401_13232" style="mask-type:luminance" maskUnits="userSpaceOnUse" x="0" y="0" width="46" height="40">
<path d="M0.804016 0H45.196V40H0.804016V0Z" fill="white"/>
</mask>
<g mask="url(#mask0_401_13232)">
<path d="M44.5198 0.0224639H21.393C19.6387 0.0206144 17.9973 0.880164 16.997 2.31959L0.889241 25.3928C0.781795 25.5688 0.776236 25.7874 0.872566 25.9671C0.970753 26.1468 1.15786 26.2616 1.36349 26.2672H13.9755C14.183 26.2653 14.3756 26.3802 14.4701 26.5655C14.5646 26.7507 14.5479 26.973 14.4257 27.1416L6.20785 38.9275C6.07817 39.1555 6.11893 39.4425 6.30791 39.6239C6.495 39.8075 6.78399 39.8391 7.00815 39.7018L40.4238 16.2784C40.6109 16.1302 40.687 15.8819 40.6148 15.6541C40.5426 15.4281 40.337 15.2688 40.0997 15.2558H30.4334C30.2092 15.2409 30.0147 15.0983 29.935 14.889C29.8535 14.6796 29.9035 14.4425 30.0591 14.2813L44.8698 0.9969C45.0477 0.848686 45.1163 0.606002 45.0367 0.387397C44.9588 0.168793 44.7514 0.0224639 44.5198 0.0224639Z" fill="black"/>
</g>
</svg>
