<svg width="56" height="44" viewBox="0 0 56 44" fill="none" xmlns="http://www.w3.org/2000/svg">
<path d="M8.12767 22C8.11084 19.3796 8.61242 16.7818 9.60353 14.3561C10.5946 11.9303 12.0557 9.72453 13.9027 7.86568C15.7496 6.00682 17.946 4.5316 20.3653 3.52493C22.7847 2.51825 25.3792 2 27.9996 2C30.62 2 33.2146 2.51825 35.6339 3.52493C38.0533 4.5316 40.2496 6.00682 42.0966 7.86568C43.9435 9.72453 45.4046 11.9303 46.3957 14.3561C47.3868 16.7818 47.8884 19.3796 47.8716 22C47.8884 24.6204 47.3868 27.2182 46.3957 29.6439C45.4046 32.0697 43.9435 34.2755 42.0966 36.1343C40.2496 37.9932 38.0533 39.4684 35.6339 40.4751C33.2146 41.4817 30.62 42 27.9996 42C25.3792 42 22.7847 41.4817 20.3653 40.4751C17.946 39.4684 15.7496 37.9932 13.9027 36.1343C12.0557 34.2755 10.5946 32.0697 9.60353 29.6439C8.61242 27.2182 8.11084 24.6204 8.12767 22Z" fill="white" stroke="#FF6D3B" stroke-width="2.58371"/>
<path d="M15.8267 16.9604C20.6624 19.2155 20.5435 22.0133 19.3623 24.5455C19.3623 24.5455 16.4251 22.4092 13.3093 20.9566C9.19165 19.0368 4.26906 17.8367 1.73767 16.6562C2.42954 15.1733 5.08389 15.9299 7.44231 15.9955C10.3385 16.0767 13.1609 15.7176 15.8267 16.9604Z" fill="#FF6D3B"/>
<path d="M19.3623 24.546C17.3252 28.9153 13.4437 27.5094 10.1721 25.5797C7.87184 24.2238 6.5004 22.845 4.98878 21.258C3.78539 19.9939 1.04661 18.1388 1.73766 16.6567C4.26904 17.8372 9.19164 19.0373 13.3092 20.9571C16.4251 22.4097 19.3623 24.546 19.3623 24.546Z" fill="white"/>
<path d="M10.5 25.0238C12.1247 25.9821 13.7905 26.7387 15.248 26.7797C15.9579 26.8002 16.603 26.6502 17.1769 26.2797C17.7531 25.9083 18.3065 25.2828 18.777 24.2737L19.9476 24.8197C19.3992 25.9952 18.7032 26.833 17.8769 27.3658C17.0473 27.9003 16.1358 28.0979 15.2111 28.0708C13.4011 28.02 11.4902 27.1076 9.84337 26.137L10.5 25.0238ZM18.777 24.2737C19.3394 23.0671 19.5886 21.9202 19.2377 20.8521C18.8885 19.7913 17.8884 18.6363 15.5537 17.5469L16.0997 16.3763C18.6008 17.5428 19.9591 18.9134 20.4649 20.448C20.9674 21.976 20.5657 23.4933 19.9476 24.8197L18.777 24.2737ZM15.5537 17.5469C14.3241 16.9739 13.0437 16.7624 11.6862 16.6886C11.0058 16.6517 10.3147 16.6501 9.60237 16.6533C8.8941 16.6558 8.16125 16.6632 7.42429 16.6427L7.46036 15.3516C8.17108 15.3712 8.87771 15.3639 9.59663 15.3614C10.3106 15.3581 11.0353 15.3598 11.7558 15.3991C13.2002 15.477 14.6635 15.7065 16.0997 16.3763L15.5537 17.5469ZM7.42429 16.6427C6.80866 16.6255 6.17745 16.5632 5.59133 16.5066C4.99455 16.4492 4.44778 16.3976 3.95757 16.3918C2.90583 16.3804 2.48366 16.5861 2.32299 16.9304L1.15239 16.3845C1.68359 15.2458 2.93452 15.0884 3.97233 15.1007C4.5273 15.1065 5.12981 15.1647 5.71511 15.2204C6.31189 15.2786 6.89719 15.3352 7.46036 15.3516L7.42429 16.6427ZM2.32299 16.9304C2.25331 17.0788 2.24511 17.269 2.37545 17.5616C2.51071 17.8674 2.76893 18.2158 3.12635 18.6002C3.47884 18.9806 3.89199 19.3593 4.30842 19.7348C4.7142 20.1012 5.13473 20.475 5.45689 20.8127L4.52156 21.7038C4.2412 21.4103 3.86822 21.0775 3.44277 20.6939C3.0288 20.3201 2.57547 19.9061 2.17871 19.479C1.78769 19.0568 1.41553 18.5847 1.1942 18.0854C0.967125 17.5739 0.876133 16.9763 1.15239 16.3845L2.32299 16.9304ZM5.45689 20.8127C6.95785 22.3891 8.27929 23.7147 10.5 25.0238L9.84337 26.137C7.46446 24.7336 6.04301 23.3015 4.52156 21.7038L5.45689 20.8127ZM2.01067 16.0713C3.23291 16.6419 5.04702 17.2214 7.13328 17.9174C9.19495 18.6052 11.4862 19.3954 13.5823 20.3725L13.0363 21.5431C11.0148 20.6004 8.7859 19.8307 6.72423 19.1429C4.68715 18.4633 2.77385 17.8526 1.46471 17.2427L2.01067 16.0713ZM13.5823 20.3725C15.175 21.1152 16.7145 22.0284 17.8507 22.7523C18.4204 23.1146 18.8918 23.431 19.2205 23.6581C19.3853 23.7712 19.5148 23.8622 19.6033 23.9245C19.6484 23.9565 19.682 23.9811 19.7058 23.9975C19.7173 24.0057 19.7263 24.0122 19.732 24.0171C19.7353 24.0188 19.7378 24.0204 19.7394 24.0221C19.7402 24.0229 19.741 24.0229 19.741 24.0237C19.7418 24.0237 19.7418 24.0237 19.7418 24.0237C19.7418 24.0237 19.7427 24.0245 19.3623 24.5467C18.9828 25.0689 18.9828 25.0689 18.9828 25.0689C18.9819 25.0689 18.9819 25.0681 18.9811 25.0681C18.9803 25.0672 18.9778 25.0656 18.9754 25.064C18.9705 25.0599 18.9623 25.0541 18.9516 25.0468C18.9303 25.0312 18.8983 25.009 18.8565 24.9787C18.7721 24.9189 18.6483 24.832 18.4885 24.7221C18.1696 24.5024 17.7113 24.195 17.1572 23.8417C16.0456 23.1343 14.5586 22.253 13.0363 21.5431L13.5823 20.3725Z" fill="#FF6D3B"/>
<path d="M40.1733 16.9604C35.3367 19.2155 35.4564 22.0133 36.6377 24.5455C36.6377 24.5455 39.5749 22.4092 42.6907 20.9566C46.8083 19.0368 51.7309 17.8367 54.2623 16.6562C53.5704 15.1733 50.9161 15.9299 48.5577 15.9955C45.6615 16.0767 42.8391 15.7176 40.1733 16.9604Z" fill="#FF6D3B"/>
<path d="M36.6377 24.546C38.6747 28.9153 42.5563 27.5094 45.8279 25.5797C48.1281 24.2238 49.4995 22.845 51.0112 21.258C52.2145 19.9939 54.9533 18.1388 54.2623 16.6567C51.7309 17.8372 46.8083 19.0373 42.6907 20.9571C39.5748 22.4097 36.6377 24.546 36.6377 24.546Z" fill="white"/>
<path d="M45.5 25.0238C43.8753 25.9821 42.2095 26.7387 40.752 26.7797C40.0413 26.8002 39.397 26.6502 38.8231 26.2797C38.246 25.9083 37.6935 25.2828 37.223 24.2737L36.0524 24.8197C36.6 25.9952 37.2968 26.833 38.1231 27.3658C38.9527 27.9003 39.8642 28.0979 40.7881 28.0708C42.5989 28.02 44.5098 27.1076 46.1558 26.137L45.5 25.0238ZM37.223 24.2737C36.6607 23.0671 36.4114 21.9202 36.7623 20.8521C37.1115 19.7913 38.1116 18.6363 40.4463 17.5469L39.9003 16.3763C37.3992 17.5428 36.0401 18.9134 35.5351 20.448C35.0326 21.976 35.4343 23.4933 36.0524 24.8197L37.223 24.2737ZM40.4463 17.5469C41.6751 16.9739 42.9563 16.7624 44.3138 16.6886C44.9934 16.6517 45.6853 16.6501 46.3976 16.6533C47.1059 16.6558 47.8388 16.6632 48.5757 16.6427L48.5396 15.3516C47.8289 15.3712 47.1223 15.3639 46.4034 15.3614C45.6894 15.3581 44.9647 15.3598 44.2442 15.3991C42.7998 15.477 41.3365 15.7065 39.9003 16.3763L40.4463 17.5469ZM48.5757 16.6427C49.1913 16.6255 49.8225 16.5632 50.4087 16.5066C51.0054 16.4492 51.5522 16.3976 52.0424 16.3918C53.0942 16.3804 53.5163 16.5861 53.677 16.9304L54.8476 16.3845C54.3164 15.2458 53.0655 15.0884 52.0277 15.1007C51.4727 15.1065 50.8702 15.1647 50.2849 15.2204C49.6881 15.2786 49.1028 15.3352 48.5396 15.3516L48.5757 16.6427ZM53.677 16.9304C53.7459 17.0788 53.7549 17.269 53.6245 17.5616C53.4893 17.8674 53.2311 18.2158 52.8737 18.6002C52.5212 18.9806 52.108 19.3593 51.6916 19.7348C51.2858 20.1012 50.8653 20.475 50.5431 20.8127L51.4784 21.7038C51.7588 21.4103 52.1318 21.0775 52.5572 20.6939C52.9712 20.3201 53.4245 19.9061 53.8205 19.479C54.2123 19.0568 54.5845 18.5847 54.8058 18.0854C55.0329 17.5739 55.1239 16.9763 54.8476 16.3845L53.677 16.9304ZM50.5431 20.8127C49.0421 22.3891 47.7207 23.7147 45.5 25.0238L46.1558 26.137C48.5355 24.7336 49.957 23.3015 51.4784 21.7038L50.5431 20.8127ZM53.9893 16.0713C52.7671 16.6419 50.953 17.2214 48.8667 17.9174C46.8051 18.6052 44.5139 19.3954 42.4178 20.3725L42.9637 21.5431C44.9852 20.6004 47.2133 19.8307 49.2758 19.1429C51.3129 18.4633 53.2262 17.8526 54.5353 17.2427L53.9893 16.0713ZM42.4178 20.3725C40.825 21.1152 39.2847 22.0284 38.1485 22.7523C37.5796 23.1146 37.1082 23.431 36.7787 23.6581C36.6147 23.7712 36.4852 23.8622 36.3967 23.9245C36.3516 23.9565 36.318 23.9811 36.2942 23.9975C36.2827 24.0057 36.2737 24.0122 36.268 24.0171C36.2647 24.0188 36.2623 24.0204 36.2606 24.0221C36.2598 24.0229 36.259 24.0229 36.259 24.0237C36.259 24.0237 36.2573 24.0245 36.6377 24.5467C37.0172 25.0689 37.0172 25.0689 37.0172 25.0689C37.0181 25.0689 37.0181 25.0681 37.0189 25.0681C37.0197 25.0672 37.0222 25.0656 37.0246 25.064C37.0295 25.0599 37.0377 25.0541 37.0484 25.0468C37.0689 25.0312 37.1017 25.009 37.1435 24.9787C37.2279 24.9189 37.3517 24.832 37.5116 24.7221C37.8304 24.5024 38.2879 24.195 38.8428 23.8417C39.9544 23.1343 41.4414 22.253 42.9637 21.5431L42.4178 20.3725Z" fill="#FF6D3B"/>
<path d="M40.8078 22.6544C40.8078 29.9437 33.8596 33.8088 27.9992 33.8088C22.1396 33.8088 15.1906 30.0937 15.1906 22.6544C15.1906 15.2152 21.9298 11.9116 27.9992 11.9116C34.0686 11.9116 40.8078 15.3652 40.8078 22.6544Z" fill="#FF6D3B"/>
<path d="M30.051 28.8462C28.3475 29.5069 27.4762 29.5036 25.8875 28.8462" stroke="white" stroke-width="1.31111" stroke-linecap="round"/>
<path fill-rule="evenodd" clip-rule="evenodd" d="M22.9232 24.5802C24.575 24.9007 26.0662 24.3769 26.2531 23.4112C26.4408 22.4448 25.2538 21.402 23.602 21.0815C21.951 20.761 20.4599 21.2848 20.2722 22.2505C20.0853 23.217 21.2723 24.2597 22.9232 24.5802ZM32.4028 21.1356C34.0546 20.8151 35.5449 21.3381 35.7326 22.3046C35.9196 23.2711 34.7334 24.3138 33.0816 24.6343C31.4298 24.9548 29.9395 24.431 29.7518 23.4654C29.564 22.4989 30.751 21.4561 32.4028 21.1356Z" fill="white"/>
</svg>
