<svg width="40" height="40" viewBox="0 0 40 40" fill="none" xmlns="http://www.w3.org/2000/svg">
<g clip-path="url(#clip0_401_13234)">
<path fill-rule="evenodd" clip-rule="evenodd" d="M20 40C31.0457 40 40 31.0457 40 20C40 8.95431 31.0457 0 20 0C8.95431 0 0 8.95431 0 20C0 31.0457 8.95431 40 20 40ZM4.22194 10.8608C2.58379 13.6486 1.76471 16.6949 1.76471 20C1.76471 23.2907 2.5766 26.3371 4.20039 29.1392C5.83854 31.927 8.0515 34.1399 10.8392 35.7781C13.6413 37.4162 16.6949 38.2353 20 38.2353C23.2907 38.2353 26.3299 37.4234 29.1177 35.7997C31.9198 34.1614 34.1399 31.9486 35.7781 29.1608C37.4162 26.3587 38.2353 23.3051 38.2353 20C38.2353 16.7093 37.4162 13.6701 35.7781 10.8824C34.1542 8.08024 31.9413 5.8601 29.1392 4.22194C26.3514 2.58379 23.3051 1.76471 20 1.76471C16.7093 1.76471 13.6629 2.58379 10.8608 4.22194C8.07306 5.84573 5.8601 8.05869 4.22194 10.8608ZM17.5643 17.5212C16.9033 18.1822 16.5728 19.0084 16.5728 20C16.5728 20.9771 16.9033 21.7962 17.5643 22.4572C18.2397 23.1182 19.0516 23.4488 20 23.4488C20.9628 23.4488 21.7747 23.1182 22.4357 22.4572C23.1111 21.7819 23.4488 20.9628 23.4488 20C23.4488 19.0372 23.1182 18.2181 22.4572 17.5428C21.7962 16.853 20.9771 16.5081 20 16.5081C19.0372 16.5081 18.2253 16.8458 17.5643 17.5212ZM6.18342 27.9752C4.74644 25.5037 4.02796 22.8452 4.02796 20C4.02796 17.1836 4.72489 14.5539 6.11876 12.111C7.527 9.65373 9.46692 7.69226 11.9386 6.22653C14.4101 4.76081 17.0973 4.02796 20 4.02796C22.874 4.02796 25.5468 4.75362 28.0183 6.20498C30.5043 7.65633 32.4514 9.61062 33.8597 12.0679C35.2823 14.5108 35.9936 17.1548 35.9936 20C35.9936 22.874 35.2679 25.5396 33.8166 27.9968C32.3796 30.454 30.4324 32.4011 27.9752 33.8381C25.518 35.2608 22.8596 35.972 20 35.972C17.1691 35.972 14.5179 35.2536 12.0463 33.8166C9.5747 32.3796 7.6204 30.4324 6.18342 27.9752Z" fill="#F75394"/>
</g>
<defs>
<clipPath id="clip0_401_13234">
<rect width="40" height="40" fill="white"/>
</clipPath>
</defs>
</svg>
