<svg width="40" height="40" viewBox="0 0 40 40" fill="none" xmlns="http://www.w3.org/2000/svg">
<path d="M12.8995 0L8.69319 5.9243V9.27309L5.03299 11.014L5 10.9986V32.8465L19.2705 39.5884L20.1425 40L21.0146 39.5884L35.2851 32.8465V10.9986L35.2582 11.0112L31.597 9.2697V5.9243L31.4689 5.74415L27.3905 0L23.1841 5.9243V5.93015L20.1233 1.61941L17.0864 5.89705L16.9778 5.74415L12.8995 0ZM13.6436 3.44132L15.2705 5.73245H10.5284L12.1364 3.46823L13.6436 3.44132ZM28.1344 3.44132L29.7617 5.73245H25.0195L26.6271 3.46823L28.1344 3.44132ZM20.8675 5.06096L22.4944 7.35198H17.7527L19.3603 5.08764L20.8675 5.06096ZM10.0787 6.8872H12.3278V14.4604L10.0787 13.3978V6.8872ZM13.4825 6.8872H15.7204V16.0628L13.4825 15.0058V6.8872ZM24.57 6.8872H26.8189V14.9979L24.57 16.0604V6.8872ZM27.9734 6.8872H30.2111V13.3953L27.9734 14.4523V6.8872ZM17.3027 8.50661H19.5519V17.8729L17.3027 16.8103V8.50661ZM20.7066 8.50661H22.9442V16.8285L20.7066 17.8858V8.50661ZM31.5966 10.9956L33.5767 11.8052L31.5966 12.7406V10.9956ZM8.69319 10.9986V12.7434L6.71347 11.808L8.69319 10.9986ZM6.744 13.7514L19.2705 19.669V37.6593L6.74388 31.7417L6.744 13.7514ZM33.5409 13.7514V31.7417L21.0146 37.6593V19.6689L33.5409 13.7514Z" fill="black"/>
</svg>
