<svg width="40" height="40" viewBox="0 0 40 40" fill="none" xmlns="http://www.w3.org/2000/svg">
<g clip-path="url(#clip0_401_13237)">
<path fill-rule="evenodd" clip-rule="evenodd" d="M7.93542 29.113C6.22343 29.113 4.83551 27.725 4.83551 26.013C4.83551 24.301 6.22343 22.9131 7.93542 22.9131C9.64741 22.9131 11.0356 24.301 11.0356 26.013C11.0356 27.725 9.64765 29.113 7.93542 29.113Z" fill="url(#paint0_linear_401_13237)"/>
<path fill-rule="evenodd" clip-rule="evenodd" d="M40.0566 19.5887V33.7314C40.0566 35.7407 38.4277 37.3696 36.4186 37.3696H5.91634L5.988 37.287L12.2002 30.1258C12.2309 30.0934 12.2612 30.0605 12.2909 30.0272H12.2912C13.2307 28.9806 13.8084 27.5598 13.8084 25.9949C13.8084 22.7776 11.3668 20.1689 8.35574 20.1689H-0.000152588V6.26206C-0.000152588 4.25291 1.62874 2.62402 3.63788 2.62402H23.0919C32.4611 2.62402 40.0566 10.2194 40.0566 19.5887Z" fill="url(#paint1_linear_401_13237)"/>
<path fill-rule="evenodd" clip-rule="evenodd" d="M31.6024 21.0392V37.3696H5.91634L5.988 37.287L12.2002 30.1258C12.2309 30.0934 12.2612 30.0605 12.2909 30.0272H12.2912C13.2307 28.9806 13.8084 27.5598 13.8084 25.9949C13.8084 22.7776 11.3668 20.1689 8.35574 20.1689H-0.000152588V8.34668H18.9098C25.9198 8.34668 31.6024 14.0293 31.6024 21.0392Z" fill="#6D4AFF"/>
<path fill-rule="evenodd" clip-rule="evenodd" d="M31.6024 21.0392V37.3696H5.91634L5.988 37.287L12.2002 30.1258C12.2309 30.0934 12.2612 30.0605 12.2909 30.0272H12.2912C13.2307 28.9806 13.8084 27.5598 13.8084 25.9949C13.8084 22.7776 11.3668 20.1689 8.35574 20.1689H-0.000152588V8.34668H18.9098C25.9198 8.34668 31.6024 14.0293 31.6024 21.0392Z" fill="url(#paint2_linear_401_13237)" fill-opacity="0.9"/>
<path d="M12.2857 30.0273L12.2002 30.1259L5.988 37.2872L5.91634 37.3698H3.63788C1.62874 37.3698 -0.000152588 35.7409 -0.000152588 33.7315V31.7562L7.0909 31.8112L8.35574 31.821C8.40216 31.821 8.44859 31.8203 8.4948 31.8191C8.54003 31.8179 8.58503 31.816 8.62979 31.8136C8.63122 31.8136 8.63241 31.8136 8.63383 31.8134C8.65624 31.8122 8.67862 31.8108 8.701 31.8093C10.1073 31.7139 11.3687 31.0487 12.2855 30.0273H12.2857Z" fill="#FFBB93"/>
</g>
<defs>
<linearGradient id="paint0_linear_401_13237" x1="5.91691" y1="28.2014" x2="10.2959" y2="24.3453" gradientUnits="userSpaceOnUse">
<stop stop-color="#EA777D"/>
<stop offset="0.479" stop-color="#DC6E8E"/>
<stop offset="0.764" stop-color="#D2699A"/>
<stop offset="1" stop-color="#C864A6"/>
</linearGradient>
<linearGradient id="paint1_linear_401_13237" x1="-5.01857" y1="6.66769" x2="44.5596" y2="25.928" gradientUnits="userSpaceOnUse">
<stop stop-color="#957AFD"/>
<stop offset="1" stop-color="#FFC6C6"/>
</linearGradient>
<linearGradient id="paint2_linear_401_13237" x1="29.8145" y1="12.7505" x2="14.7426" y2="43.8136" gradientUnits="userSpaceOnUse">
<stop offset="0.149916" stop-color="#FA528E" stop-opacity="0"/>
<stop offset="0.720842" stop-color="#FF8065"/>
<stop offset="1" stop-color="#FFA51F"/>
</linearGradient>
<clipPath id="clip0_401_13237">
<rect width="40" height="40" fill="white"/>
</clipPath>
</defs>
</svg>
