<svg width="40" height="40" viewBox="0 0 40 40" fill="none" xmlns="http://www.w3.org/2000/svg">
<path d="M40 20C40 22.944 39.35 25.8518 38.0965 28.5156L31.5818 25.45C32.384 23.7451 32.8 21.8842 32.8 20H40Z" fill="#FB933C"/>
<path d="M34.1421 34.1421C32.0604 36.2239 29.5447 37.8204 26.7748 38.8176L24.3358 32.0433C26.1086 31.405 27.7187 30.3833 29.051 29.051L34.1421 34.1421Z" fill="#FB933C"/>
<path d="M20 40C16.7376 40 13.5246 39.2019 10.6414 37.6753C7.75817 36.1487 5.29215 33.94 3.45839 31.2417C1.62462 28.5434 0.478783 25.4374 0.120781 22.1947C-0.237221 18.9519 0.203484 15.6709 1.40447 12.6375L8.09886 15.288C7.33023 17.2293 7.04818 19.3292 7.2773 21.4046C7.50642 23.48 8.23976 25.4678 9.41337 27.1947C10.587 28.9216 12.1652 30.3352 14.0105 31.3122C15.8558 32.2892 17.912 32.8 20 32.8L20 40Z" fill="#FB933C"/>
<path d="M6.10683 5.6132C8.45362 3.34693 11.3192 1.68916 14.4536 0.784435C17.5881 -0.120293 20.8963 -0.244506 24.0898 0.422626C27.2833 1.08976 30.2651 2.52798 32.7752 4.61188C35.2853 6.69579 37.2476 9.36211 38.4908 12.3784L31.8341 15.1221C31.0384 13.1918 29.7826 11.4853 28.1761 10.1516C26.5697 8.81791 24.6613 7.89745 22.6175 7.47048C20.5736 7.04352 18.4564 7.12301 16.4503 7.70204C14.4443 8.28106 12.6103 9.34204 11.1084 10.7925L6.10683 5.6132Z" fill="#FB933C"/>
<path d="M20 12.5996L11 24.5996H29.2L20 12.5996Z" fill="#FB933C"/>
</svg>
