<svg width="49" height="40" viewBox="0 0 49 40" fill="none" xmlns="http://www.w3.org/2000/svg">
<path d="M48.1149 20.2999C48.3501 21.1773 48.2269 22.1122 47.7728 22.8989C47.3186 23.6856 46.5705 24.2596 45.6931 24.4947L12.0538 29.8134L7.21002 38.203L0.11836 11.7365C-0.116742 10.859 0.00633645 9.92414 0.460521 9.1375C0.914739 8.35077 1.66276 7.77674 2.54026 7.5417L39.4878 1.33641C40.3653 1.10136 41.3002 1.22441 42.0868 1.67857C42.8735 2.13281 43.4476 2.88084 43.6826 3.75833L48.1149 20.2999Z" fill="#FF5F45"/>
<path d="M6.14418 18.4824L5.7426 16.4949C6.17141 16.8859 6.58113 17.042 6.97184 16.9631C7.11937 16.9333 7.2318 16.8707 7.30929 16.7755C7.38618 16.6774 7.41273 16.5697 7.38901 16.4522C7.35476 16.2829 7.22024 16.138 6.98554 16.0176L6.66299 15.8567C6.44901 15.7549 6.26269 15.649 6.10394 15.5389C5.94467 15.426 5.80939 15.3055 5.69816 15.1773C5.58642 15.0463 5.49565 14.9068 5.42595 14.7588C5.35625 14.6108 5.30402 14.4507 5.26917 14.2786C5.20958 13.9836 5.21549 13.661 5.28698 13.3111C5.32491 13.147 5.37655 12.9943 5.44188 12.8532C5.50661 12.7093 5.58804 12.5777 5.68626 12.4583C5.95341 12.12 6.31509 11.9047 6.77139 11.8125C7.17845 11.7302 7.61009 11.7554 8.06622 11.8879L8.4571 13.8222C8.27412 13.6345 8.08146 13.4971 7.87904 13.41C7.67602 13.3202 7.4885 13.2927 7.3164 13.3275C7.18522 13.354 7.08504 13.4141 7.01585 13.5076C6.94333 13.5991 6.91755 13.6967 6.93853 13.8006C6.9727 13.9699 7.1228 14.1145 7.38866 14.2343L7.69974 14.3804C8.1128 14.5671 8.42482 14.7812 8.63572 15.0231C8.84944 15.2643 8.9932 15.5679 9.06718 15.9339C9.19305 16.5569 9.107 17.1089 8.80894 17.5899C8.51087 18.0711 8.07084 18.3703 7.48893 18.488C7.08735 18.5691 6.6391 18.5673 6.14418 18.4824ZM14.4869 16.9588L12.7206 17.3157L12.4312 16.5381L11.2797 16.7708L11.3026 17.6022L9.53633 17.9591L9.77813 11.3244L11.8682 10.9021L14.4869 16.9588ZM11.9563 15.2222L11.6966 14.5069C11.6933 14.5048 11.6804 14.469 11.6579 14.3996C11.6402 14.3406 11.5635 14.1087 11.4277 13.7039C11.4128 13.6586 11.3933 13.5971 11.3691 13.5196C11.3444 13.4392 11.3127 13.339 11.2743 13.2188L11.1 12.6313C11.1062 12.6898 11.111 12.7556 11.1144 12.8288C11.1206 12.9015 11.1267 12.9813 11.1329 13.0682C11.148 13.2414 11.1581 13.3617 11.1631 13.429C11.1682 13.4962 11.1707 13.5368 11.1707 13.5511L11.2068 14.3415L11.2351 15.368L11.9563 15.2222ZM17.5688 16.336L15.8271 16.688L13.0978 10.6537L14.8928 10.291L15.5694 12.0352C15.8266 12.7028 16.077 13.4569 16.3209 14.2976C16.2742 13.9118 16.2393 13.5492 16.2162 13.2098C16.1931 12.8704 16.1799 12.5375 16.1765 12.2112L16.1591 10.0351L18.0156 9.65997L17.5688 16.336ZM19.5688 15.932L18.2903 9.6044L21.4663 8.96272L21.7669 10.4503L20.2998 10.7467L20.4861 11.6688L21.8016 11.4031L22.0906 12.8333L20.7751 13.099L20.9705 14.0662L22.4376 13.7697L22.7449 15.2902L19.5688 15.932ZM29.6834 10.6166C29.8782 11.581 29.8168 12.4096 29.4989 13.1022C29.1832 13.7916 28.6743 14.2072 27.9721 14.3491C27.3492 14.475 26.7685 14.3521 26.2298 13.9803C25.5517 13.5088 25.0944 12.6884 24.8581 11.5191C24.6318 10.3989 24.7511 9.48333 25.2159 8.77238C25.5614 8.24467 26.032 7.92075 26.6275 7.80036C27.3571 7.65299 27.9978 7.83349 28.5498 8.34185C29.1018 8.85021 29.4797 9.60843 29.6834 10.6166ZM27.9114 10.9874C27.6801 9.8427 27.3622 9.31114 26.9579 9.39291C26.7557 9.43375 26.6249 9.61656 26.5654 9.94143C26.5042 10.2438 26.5283 10.6655 26.6377 11.2065C26.7453 11.7392 26.8836 12.1421 27.0524 12.4151C27.2235 12.6847 27.4074 12.7997 27.6041 12.76C27.8063 12.7191 27.9327 12.5428 27.9835 12.2311C28.0398 11.9184 28.0157 11.5038 27.9114 10.9874ZM32.1875 6.7964L33.8964 6.45107L34.8007 10.9262C34.8763 11.3005 34.8789 11.6157 34.8083 11.8716C34.7426 12.1379 34.5959 12.3965 34.3678 12.6473C34.0602 12.9825 33.6483 13.2022 33.1318 13.3065C32.5472 13.4247 32.0275 13.379 31.5729 13.1694C30.9957 12.9022 30.6251 12.3628 30.4611 11.5514L29.6057 7.31803L31.3146 6.97278L32.1394 11.0545C32.1951 11.3304 32.2674 11.5192 32.3561 11.6206C32.4476 11.7216 32.5725 11.756 32.731 11.724C32.895 11.6909 32.9976 11.6147 33.0389 11.4954C33.0791 11.3708 33.0704 11.1663 33.0131 10.8822L32.1875 6.7964ZM40.3961 11.7236L38.5478 12.0971L37.2482 10.0136C37.2323 9.97705 37.207 9.92952 37.1725 9.87113C37.1407 9.81213 37.1009 9.742 37.0532 9.66066L37.1499 10.0761L37.597 12.2891L35.8964 12.6328L34.6179 6.30533L36.3677 5.9517C37.1382 5.79603 37.7453 5.83114 38.1891 6.05719C38.7538 6.34686 39.1084 6.84957 39.253 7.5654C39.4076 8.33038 39.188 8.92496 38.5941 9.34924L40.3961 11.7236ZM36.9188 8.89012L37.0335 8.867C37.2303 8.82718 37.379 8.71895 37.4798 8.54222C37.5806 8.3654 37.6075 8.16093 37.5606 7.92871C37.4651 7.45606 37.17 7.26973 36.6755 7.36957L36.6141 7.38208L36.9188 8.89012ZM16.9065 24.3319L15.259 24.6648L14.4177 22.5272C14.2545 22.1137 14.122 21.7537 14.0203 21.4473C13.9697 21.2955 13.9271 21.169 13.8924 21.068C13.8579 20.9668 13.8323 20.8896 13.8157 20.836C13.8247 20.9508 13.8465 21.164 13.881 21.4755C13.8988 21.634 13.9155 21.8012 13.9311 21.9771C13.9468 22.1532 13.9603 22.3395 13.9716 22.5363L14.1116 24.8966L12.4478 25.2329L9.75947 19.1902L11.4479 18.8491L12.0785 20.5344C12.3252 21.2068 12.5092 21.737 12.6302 22.1248L12.8043 22.6911L12.7574 22.1845C12.6977 21.5937 12.6603 21.0282 12.645 20.4882L12.5995 18.6163L14.0707 18.3191L14.6648 19.7815C14.9444 20.4616 15.2324 21.2749 15.5289 22.2216C15.4712 21.7811 15.4262 21.3893 15.3937 21.0461C15.3614 20.7029 15.3394 20.3902 15.328 20.1082L15.2428 18.0823L16.9107 17.7453L16.9065 24.3319ZM23.0252 23.0956L21.2589 23.4525L20.9695 22.6749L19.818 22.9076L19.8409 23.739L18.0747 24.0959L18.3165 17.4612L20.4065 17.0388L23.0252 23.0956ZM20.4946 21.359L20.2349 20.6437C20.2317 20.6416 20.2187 20.6058 20.1962 20.5364C20.1786 20.4774 20.1018 20.2455 19.966 19.8407C19.9511 19.7954 19.9316 19.7339 19.9075 19.6563C19.8827 19.576 19.8511 19.4758 19.8126 19.3556L19.6384 18.7681C19.6445 18.8265 19.6493 18.8924 19.6527 18.9656C19.6589 19.0383 19.6651 19.1181 19.6712 19.205C19.6863 19.3782 19.6964 19.4985 19.7015 19.5658C19.7065 19.633 19.7091 19.6736 19.7091 19.6879L19.7451 20.4783L19.7734 21.5047L20.4946 21.359ZM26.3489 22.424L23.3572 23.0285L22.0788 16.701L23.7877 16.3557L24.7589 21.1628L26.0417 20.9036L26.3489 22.424ZM29.6808 21.7507L26.6892 22.3553L25.4106 16.0278L27.1196 15.6825L28.0909 20.4896L29.3736 20.2304L29.6808 21.7507ZM30.0211 21.682L28.7426 15.3545L31.9186 14.7127L32.2192 16.2003L30.7521 16.4968L30.9385 17.4189L32.2539 17.1531L32.5429 18.5833L31.2274 18.8491L31.4228 19.8163L32.8899 19.5199L33.1972 21.0402L30.0211 21.682ZM35.9718 20.4796L34.2629 20.8249L33.2907 16.0137L32.3481 16.2042L32.0417 14.6878L35.6727 13.9542L35.9791 15.4705L34.9996 15.6684L35.9718 20.4796ZM37.1985 20.0697L36.797 18.082C37.2258 18.4732 37.6355 18.6292 38.0262 18.5502C38.1737 18.5204 38.2862 18.4579 38.3637 18.3626C38.4405 18.2647 38.4671 18.1569 38.4434 18.0394C38.4091 17.87 38.2746 17.7251 38.0399 17.6048L37.7174 17.4439C37.5034 17.3421 37.3171 17.2362 37.1583 17.1261C36.999 17.0132 36.8638 16.8927 36.7525 16.7644C36.6408 16.6335 36.55 16.494 36.4803 16.346C36.4106 16.198 36.3584 16.038 36.3235 15.8659C36.2639 15.5708 36.2698 15.2482 36.3413 14.8982C36.3793 14.7342 36.4309 14.5816 36.4962 14.4404C36.561 14.2965 36.6424 14.1649 36.7406 14.0455C37.0078 13.7072 37.3695 13.4919 37.8258 13.3997C38.2328 13.3175 38.6645 13.3426 39.1206 13.475L39.5115 15.4094C39.3285 15.2217 39.1358 15.0843 38.9334 14.9973C38.7304 14.9075 38.5429 14.88 38.3708 14.9147C38.2396 14.9412 38.1394 15.0013 38.0702 15.0949C37.9977 15.1863 37.9719 15.284 37.9929 15.3877C38.0271 15.5572 38.1772 15.7017 38.443 15.8214L38.7541 15.9676C39.1672 16.1543 39.4792 16.3685 39.6902 16.6102C39.9038 16.8514 40.0477 17.155 40.1215 17.5212C40.2474 18.1441 40.1614 18.696 39.8633 19.1772C39.5652 19.6582 39.1252 19.9576 38.5433 20.0751C38.1417 20.1563 37.6935 20.1544 37.1985 20.0697Z" fill="white"/>
</svg>
