<svg width="40" height="40" viewBox="0 0 40 40" fill="none" xmlns="http://www.w3.org/2000/svg">
<g clip-path="url(#clip0_401_13244)">
<path d="M39.3995 24.8375C36.7283 35.5519 25.8764 42.0725 15.1608 39.4006C4.44954 36.7294 -2.07108 25.8769 0.601418 15.1631C3.27142 4.44752 14.1233 -2.07373 24.8358 0.597521C35.5508 3.26877 42.0708 14.1225 39.3995 24.8375Z" fill="#F7931A"/>
<path d="M28.8183 17.1506C29.2164 14.4894 27.1902 13.0588 24.4196 12.1044L25.3183 8.49938L23.1239 7.9525L22.2489 11.4625C21.6721 11.3188 21.0796 11.1831 20.4908 11.0487L21.3721 7.51562L19.1789 6.96875L18.2796 10.5725C17.8021 10.4638 17.3333 10.3563 16.8783 10.2431L16.8808 10.2319L13.8546 9.47625L13.2708 11.82C13.2708 11.82 14.8989 12.1931 14.8646 12.2162C15.7533 12.4381 15.9139 13.0262 15.8871 13.4925L14.8633 17.5994C14.9246 17.615 15.0039 17.6375 15.0914 17.6725C15.0183 17.6544 14.9402 17.6344 14.8596 17.615L13.4246 23.3681C13.3158 23.6381 13.0402 24.0431 12.4189 23.8894C12.4408 23.9213 10.8239 23.4913 10.8239 23.4913L9.73456 26.0031L12.5902 26.715C13.1214 26.8481 13.6421 26.9875 14.1546 27.1188L13.2464 30.765L15.4383 31.3119L16.3377 27.7044C16.9364 27.8669 17.5177 28.0169 18.0864 28.1581L17.1902 31.7487L19.3846 32.2956L20.2927 28.6563C24.0346 29.3644 26.8483 29.0787 28.0327 25.6944C28.9871 22.9694 27.9852 21.3975 26.0164 20.3725C27.4502 20.0419 28.5302 19.0988 28.8183 17.1506ZM23.8046 24.1813C23.1264 26.9063 18.5383 25.4331 17.0508 25.0637L18.2558 20.2331C19.7433 20.6044 24.5133 21.3394 23.8046 24.1813ZM24.4833 17.1113C23.8646 19.59 20.0458 18.3306 18.8071 18.0219L19.8996 13.6406C21.1383 13.9494 25.1277 14.5256 24.4833 17.1113Z" fill="white"/>
</g>
<defs>
<clipPath id="clip0_401_13244">
<rect width="40" height="40" fill="white"/>
</clipPath>
</defs>
</svg>
