<svg width="39" height="40" viewBox="0 0 39 40" fill="none" xmlns="http://www.w3.org/2000/svg">
<g clip-path="url(#clip0_401_13247)">
<path fill-rule="evenodd" clip-rule="evenodd" d="M24.8224 5.19782C23.1615 4.56952 21.3613 4.2247 19.4804 4.2247C11.1384 4.2247 4.37587 10.9873 4.37587 19.3292C4.37587 22.9137 5.6253 26.2059 7.71137 28.796L5.16221 31.1497C2.50845 27.9387 0.913757 23.8203 0.913757 19.3292C0.913757 9.07522 9.22627 0.762695 19.4804 0.762695C22.6838 0.762695 25.6979 1.57408 28.3282 3.00248L24.8224 5.19782ZM19.4804 34.4337C27.8223 34.4337 34.5849 27.6712 34.5849 19.3292C34.5849 15.4802 33.1443 11.9682 30.7741 9.30091L33.2485 6.87359C36.2304 10.1676 38.0469 14.5361 38.0469 19.3292C38.0469 29.5833 29.7344 37.8958 19.4804 37.8958C16.0024 37.8958 12.7485 36.9386 9.966 35.2747L13.4658 33.1876C15.309 33.9886 17.3425 34.4337 19.4804 34.4337Z" fill="#349934"/>
<path fill-rule="evenodd" clip-rule="evenodd" d="M37.779 -0.462891L12.0166 15.6599L18.1141 16.3421L7.61565 25.4542L13.5177 26.2742L-0.176208 38.9069L24.7025 24.0696L18.6489 22.9869L30.9097 13.8079L23.1951 13.8341L37.779 -0.462891Z" fill="#F7931B"/>
</g>
<defs>
<clipPath id="clip0_401_13247">
<rect width="39" height="40" fill="white"/>
</clipPath>
</defs>
</svg>
