<svg width="40" height="40" viewBox="0 0 40 40" fill="none" xmlns="http://www.w3.org/2000/svg">
<path d="M39.9811 11.2397C39.9614 10.5096 39.916 9.5452 39.7391 8.56031C39.5478 7.49542 39.23 6.53638 38.7676 5.62824C38.2884 4.68672 37.666 3.83 36.918 3.08191C36.1697 2.33366 35.3128 1.71123 34.371 1.23185C33.4635 0.769822 32.5049 0.452216 31.4407 0.260887C30.4556 0.083881 29.4906 0.0384597 28.7599 0.0187163C28.395 0.00890166 28.0303 0.00456495 27.6654 0.00233954C27.3079 0.000171186 26.9506 0 26.5933 0H13.4064C13.049 0 12.6918 0.000171186 12.3344 0.00233954C11.9694 0.00456495 11.6047 0.00890166 11.2401 0.0187163C10.5091 0.0385168 9.54412 0.083881 8.55923 0.260887C7.49491 0.452216 6.53644 0.769822 5.6287 1.23191C4.68701 1.71129 3.83011 2.33366 3.08197 3.08186C2.33372 3.83011 1.7114 4.68684 1.23208 5.62842C0.769822 6.53656 0.452101 7.49559 0.26083 8.56031C0.083881 9.54526 0.0385738 10.5097 0.0188304 11.2399C0.00895872 11.6047 0.00462201 11.9697 0.0023966 12.3348C2.65715e-10 12.7252 0 13.116 0 13.5067V26.4932C0 26.884 0 27.2747 0.00245366 27.6654C0.00462201 28.0302 0.00895872 28.3951 0.0188304 28.7601C0.0385168 29.4901 0.083881 30.4546 0.26083 31.4395C0.452101 32.5042 0.769822 33.4632 1.23208 34.3714C1.71157 35.3131 2.33389 36.1699 3.08197 36.9179C3.83005 37.6661 4.68712 38.2886 5.62899 38.768C6.53633 39.2299 7.49485 39.5475 8.55911 39.7389C9.54417 39.9159 10.5092 39.9613 11.2399 39.9811C11.6045 39.9909 11.9692 39.9952 12.3341 39.9975C12.6999 39.9997 13.065 39.9998 13.4301 39.9998H26.5697C26.9349 39.9998 27.3 39.9997 27.6652 39.9975C28.0306 39.9952 28.3954 39.9909 28.7601 39.9811C29.4907 39.9613 30.4557 39.9159 31.4408 39.7389C32.5051 39.5475 33.4636 39.2299 34.3712 38.7679C35.3129 38.2886 36.1698 37.6661 36.9181 36.9179C37.666 36.1699 38.2884 35.3132 38.7678 34.3715C39.2302 33.4633 39.5479 32.5042 39.7392 31.4395C39.9161 30.4546 39.9614 29.4901 39.9812 28.7599C39.991 28.3953 39.9954 28.0306 39.9976 27.6658C40 27.2748 40 26.8847 40 26.4945V13.5055C40 13.1153 40 12.7251 39.9976 12.3348C39.9954 11.9693 39.9909 11.6045 39.9811 11.2397ZM37.1468 26.4191C37.1468 26.8287 37.1469 27.2383 37.1445 27.6479C37.1423 27.9929 37.1384 28.3379 37.129 28.6828C37.1088 29.4341 37.0644 30.192 36.931 30.9349C36.7955 31.6893 36.5742 32.3915 36.2252 33.0769C35.8825 33.7501 35.4347 34.3662 34.9006 34.9004C34.3663 35.4346 33.7502 35.8825 33.0768 36.2252C32.3917 36.5739 31.69 36.7951 30.9359 36.9307C30.1927 37.0643 29.4346 37.1086 28.683 37.1289C28.3381 37.1383 27.9931 37.1422 27.6481 37.1443C27.2887 37.1465 26.9292 37.1466 26.5698 37.1466H13.4303C13.0708 37.1466 12.7114 37.1465 12.352 37.1443C12.007 37.1422 11.662 37.1382 11.3171 37.1289C10.5655 37.1086 9.80734 37.0643 9.06417 36.9307C8.31015 36.7952 7.60835 36.5739 6.92332 36.2252C6.24993 35.8825 5.63378 35.4346 5.09951 34.9004C4.56541 34.3662 4.11764 33.7502 3.77482 33.0769C3.42588 32.3915 3.2046 31.6893 3.06907 30.9349C2.93561 30.192 2.89133 29.4341 2.87107 28.6828C2.86171 28.3379 2.85777 27.9929 2.85566 27.6479C2.85315 27.2383 2.85327 26.8287 2.85327 26.4191V13.5805C2.85327 13.1709 2.85315 12.7614 2.85566 12.3518C2.85777 12.0067 2.86171 11.6618 2.87107 11.3169C2.89133 10.5656 2.93566 9.80774 3.06907 9.06474C3.2046 8.31038 3.42594 7.60818 3.77482 6.92275C4.11764 6.24948 4.56541 5.63349 5.09951 5.09928C5.63378 4.56501 6.24993 4.11719 6.92332 3.77447C7.60841 3.42571 8.31015 3.20454 9.06417 3.06896C9.8074 2.93538 10.5655 2.89104 11.3171 2.87073C11.662 2.86143 12.007 2.85743 12.352 2.85532C12.7035 2.85321 13.0551 2.85304 13.4066 2.85304H26.5935C26.9451 2.85304 27.2966 2.85315 27.6481 2.85532C27.9931 2.85743 28.3381 2.86143 28.683 2.87073C29.4346 2.89104 30.1928 2.93532 30.9359 3.06896C31.69 3.20448 32.3918 3.42571 33.0768 3.77447C33.7502 4.11719 34.3663 4.56501 34.9006 5.09928C35.4347 5.63349 35.8825 6.24948 36.2252 6.92275C36.5742 7.60818 36.7955 8.31038 36.931 9.06474C37.0645 9.80774 37.1088 10.5656 37.129 11.3169C37.1384 11.6619 37.1423 12.0067 37.1445 12.3518C37.147 12.7614 37.1468 13.1709 37.1468 13.5805V26.4191ZM27.8257 16.725H23.7211C23.1174 16.725 22.7294 16.0842 23.0091 15.5492L26.6935 8.50325C26.9162 8.0774 26.6073 7.56726 26.1267 7.56726H15.7319C15.4287 7.56726 15.1672 7.78016 15.1057 8.07706L12.4546 20.8677C12.3722 21.2647 12.6754 21.6371 13.0808 21.6371H16.7942C17.1996 21.6371 17.5028 22.0095 17.4205 22.4064L15.2112 33.0657L28.3112 17.7808C28.6669 17.3659 28.3721 16.725 27.8257 16.725Z" fill="#DFAB29"/>
</svg>
