<svg width="40" height="40" viewBox="0 0 40 40" fill="none" xmlns="http://www.w3.org/2000/svg">
<path fill-rule="evenodd" clip-rule="evenodd" d="M0.677979 34.5766V4.74609H10.6647V13.8834L15.0745 4.74609H25.0612V13.8834L29.4709 4.74609H39.4576V34.5766H29.4709V25.4393L25.0612 34.5766H15.0745V25.4393L10.6647 34.5766H0.677979ZM9.10835 6.30247H2.23435V31.3517L9.10835 17.1083V6.30247ZM31.0273 33.0202H37.9013V7.97102L31.0273 22.2144V33.0202ZM24.0841 33.0202L36.9784 6.30247H30.4479L17.5537 33.0202H24.0841ZM22.5819 6.30247H16.0515L3.15724 33.0202H9.68767L22.5819 6.30247ZM23.5048 7.97102L16.6308 22.2144V31.3517L23.5048 17.1083V7.97102Z" fill="black"/>
</svg>
